<svg width="117" height="117" fill="none" xmlns="http://www.w3.org/2000/svg"><path d="M114.586 43.39C106.325 12.558 74.648-5.73 43.817 2.53 12.987 10.793-5.303 42.47 2.96 73.3c8.26 30.83 39.938 49.119 70.769 40.858 30.752-8.126 49.147-39.832 40.858-70.769z" fill="#fff"/><path d="M114.586 43.39C106.325 12.558 74.648-5.73 43.817 2.53 12.987 10.793-5.303 42.47 2.96 73.3c8.26 30.83 39.938 49.119 70.769 40.858 30.752-8.126 49.147-39.832 40.858-70.769z" fill="url(#paint0_linear_2281_2907)" fill-opacity=".5"/><path d="M114.586 43.39C106.325 12.558 74.648-5.73 43.817 2.53 12.987 10.793-5.303 42.47 2.96 73.3c8.26 30.83 39.938 49.119 70.769 40.858 30.752-8.126 49.147-39.832 40.858-70.769z" fill="url(#paint1_linear_2281_2907)"/><path d="M114.586 43.39C106.325 12.558 74.648-5.73 43.817 2.53 12.987 10.793-5.303 42.47 2.96 73.3c8.26 30.83 39.938 49.119 70.769 40.858 30.752-8.126 49.147-39.832 40.858-70.769z" fill="url(#paint2_radial_2281_2907)"/><defs><linearGradient id="paint0_linear_2281_2907" x1="377.79" y1="1913.84" x2="12.518" y2="-210.098" gradientUnits="userSpaceOnUse"><stop offset=".001" stop-color="#fff"/><stop offset=".998" stop-color="#fff"/></linearGradient><linearGradient id="paint1_linear_2281_2907" x1="13.239" y1="34.238" x2="154.004" y2="143.211" gradientUnits="userSpaceOnUse"><stop offset=".127" stop-color="#fff" stop-opacity=".56"/><stop offset="1" stop-color="#fff" stop-opacity="0"/></linearGradient><radialGradient id="paint2_radial_2281_2907" cx="0" cy="0" r="1" gradientUnits="userSpaceOnUse" gradientTransform="rotate(45.238 -22.603 37.02) scale(136.907)"><stop stop-color="#fff" stop-opacity=".94"/><stop offset=".348" stop-color="#F7F7F7"/><stop offset=".636" stop-color="#E7E7E7"/><stop offset=".909" stop-color="#fff"/></radialGradient></defs></svg>