<svg width="48" height="16" fill="none" xmlns="http://www.w3.org/2000/svg"><path d="M1.875 1L1 2.009l1.75 2.173v1.165l2.99 2.561.437-.543s6.708 7.218 17.938 6.597c11.229-.62 16.99-8.615 16.99-8.615l.728.698.438-.31-.438-.388L43 3.794 41.833 2.32l-1.53 1.474-.73-.776-.292.388.73.776s-4.959 7.374-15.896 8.305C13.177 13.42 6.76 6.045 6.76 6.045l.438-.698-2.26-2.329H3.917L1.875 1z" fill="#fff" stroke="#4F4F4F" stroke-linecap="square" stroke-linejoin="round"/><path d="M35.407 12.385H34v1h1.407s.59 1.65 1.408 1.614c.882-.038 1.185-1.153 1.185-2 0-.845-.303-1.966-1.185-1.999-.757-.028-1.408 1.385-1.408 1.385z" fill="#049EFC" stroke="#4F4F4F"/><path d="M37.071 11l2.215 1.23 1.928.078.429.615 1.357.23v.232l-1.357.154-.429.538-2-.077L37 15m5.875-2s1.855-.247 3.015-.539C50.964 11.185 37 9 37 9" stroke="#4F4F4F"/></svg>