<svg width="35" height="35" fill="none" xmlns="http://www.w3.org/2000/svg"><path d="M12.309 7.783c0-.52.176-1.023.49-1.438A3.64 3.64 0 009.748.515c-1.825.073-3.423 1.677-3.49 3.5a3.623 3.623 0 00.753 2.356c.311.403.47.903.47 1.412a.94.94 0 01-.638.886c-1.447.498-2.398 1.338-2.398 2.292 0 1.528 2.44 2.767 5.45 2.767 3.01 0 5.45-1.239 5.45-2.767 0-.954-.95-1.794-2.397-2.292a.94.94 0 01-.64-.886z" fill="#fff"/><path d="M9.895 13.728c-3.01 0-5.45-1.24-5.45-2.767 0-.954.951-1.794 2.397-2.291a.954.954 0 00.462-.342.93.93 0 00.178-.545 2.31 2.31 0 00-.471-1.412 3.623 3.623 0 01-.753-2.355C6.325 2.19 7.923.588 9.748.516a3.371 3.371 0 01.079 0c-.846.072-1.588 1.675-1.619 3.5-.015.888.118 1.708.35 2.355.143.403.218.903.218 1.412 0 .201-.03.39-.082.545-.053.155-.126.276-.215.342-.67.497-1.112 1.337-1.112 2.291 0 1.528 1.132 2.767 2.528 2.767z" fill="#fff"/><path d="M14.59 11.054a44.797 44.797 0 00-9.396 0 2.552 2.552 0 00-2.283 2.378c-.303 4.93-.303 9.861 0 14.792a2.552 2.552 0 002.283 2.378c3.132.33 6.264.33 9.395 0a2.552 2.552 0 002.283-2.378c.304-4.93.304-9.861 0-14.792a2.552 2.552 0 00-2.283-2.378z" fill="#049EFC"/><path d="M6.056 12.928a249.177 249.177 0 000 15.8c.026.815.236 1.534.553 2a47.187 47.187 0 01-1.415-.126 2.552 2.552 0 01-2.283-2.378 120.467 120.467 0 010-14.792 2.552 2.552 0 012.283-2.378c.472-.05.943-.091 1.415-.126-.317.466-.527 1.185-.553 2z" fill="#049EFC"/><path d="M14.395 14.581a75.751 75.751 0 00-9.004 0c-2.56.152-4.596 2.213-4.738 4.774-.225 4.06-.182 8.12.13 12.18a2.91 2.91 0 002.65 2.678c4.306.368 8.613.368 12.92 0a2.91 2.91 0 002.65-2.678c.311-4.06.354-8.12.13-12.18-.143-2.561-2.177-4.622-4.738-4.774z" fill="#fff"/><path d="M5.391 14.58l.282-.015c-1.064.822-1.811 2.525-1.88 4.513-.149 4.28-.12 8.56.085 12.838.049 1.021.409 1.903.93 2.401-.459-.03-.917-.065-1.376-.104a2.911 2.911 0 01-2.65-2.679c-.31-4.06-.353-8.12-.129-12.179a5.057 5.057 0 014.738-4.775z" fill="#fff"/><path d="M17.1 25.563a90.75 90.75 0 01-.258 5.806.747.747 0 01-.671.683 74.376 74.376 0 01-6.276.268 74.11 74.11 0 01-6.276-.268.746.746 0 01-.671-.683 90.002 90.002 0 01-.263-7.422 1.695 1.695 0 011.255-1.628c3.294-.887 6.815 2.189 11.199 1.545a1.703 1.703 0 011.96 1.7z" fill="#049EFC"/><path d="M3.89 32.074l-.27-.022a.746.746 0 01-.672-.683 90.002 90.002 0 01-.263-7.422 1.695 1.695 0 011.03-1.55 155.03 155.03 0 00.165 9.52c.003.053.005.105.01.157zm23.352-8.305c0 .52.177 1.023.49 1.437a3.64 3.64 0 01-3.051 5.83c-1.824-.072-3.422-1.676-3.489-3.5a3.623 3.623 0 01.753-2.355 2.31 2.31 0 00.47-1.412.94.94 0 00-.639-.886c-1.446-.498-2.397-1.339-2.397-2.292 0-1.529 2.44-2.767 5.45-2.767 3.01 0 5.45 1.238 5.45 2.767 0 .953-.951 1.794-2.398 2.291a.94.94 0 00-.639.887z" fill="#fff"/><path d="M24.829 17.823c-3.01 0-5.45 1.24-5.45 2.767 0 .954.95 1.794 2.397 2.292a.96.96 0 01.462.341.93.93 0 01.177.546 2.31 2.31 0 01-.47 1.412 3.623 3.623 0 00-.753 2.355c.066 1.824 1.665 3.427 3.489 3.5a3.353 3.353 0 00.08 0c-.847-.073-1.588-1.676-1.62-3.5-.014-.888.119-1.708.35-2.355.144-.404.218-.904.218-1.413 0-.2-.03-.39-.082-.545a.707.707 0 00-.214-.341c-.671-.498-1.112-1.338-1.112-2.292 0-1.527 1.132-2.767 2.528-2.767z" fill="#fff"/><path d="M32.231 8.988a7.377 7.377 0 10-14.754.001 7.377 7.377 0 0014.754 0zm-2.294 0a5.083 5.083 0 11-10.167 0 5.083 5.083 0 0110.167 0z" fill="#049EFC"/><path d="M25.309 14.05a5.083 5.083 0 100-10.124 5.083 5.083 0 010 10.124zm-6.922-5.061a7.377 7.377 0 016.922-7.363 7.377 7.377 0 100 14.725 7.377 7.377 0 01-6.922-7.362z" fill="#049EFC"/><path d="M24.83 12.57c-.825 0-1.494.669-1.494 1.494v4.785h2.988v-4.785c0-.825-.669-1.494-1.494-1.494z" fill="#049EFC"/><path d="M25.355 12.665c-.567.213-.97.759-.97 1.4v3.758h-1.05v-3.759a1.494 1.494 0 012.02-1.4z" fill="#fff"/><path d="M32.984 20.31H16.677a1.243 1.243 0 110-2.486h16.307a1.244 1.244 0 110 2.487z" fill="#049EFC"/><path d="M20.905 20.31h-4.228a1.243 1.243 0 110-2.486h4.228c-.343 0-.654.138-.879.364a1.243 1.243 0 00.88 2.123z" fill="#049EFC"/><path d="M3.577 32.562a74.303 74.303 0 0012.639 0 1.264 1.264 0 001.139-1.155 91.43 91.43 0 00.258-5.838 2.202 2.202 0 00-.754-1.687 2.229 2.229 0 00-1.794-.526c-2.104.31-4.009-.29-5.85-.868-1.87-.587-3.637-1.142-5.408-.665a2.215 2.215 0 00-1.634 2.12c-.014 2.489.075 5 .264 7.464a1.263 1.263 0 001.14 1.155zm-.378-8.613c.003-.531.363-.998.875-1.136a4.39 4.39 0 011.147-.146c1.14 0 2.345.379 3.686.8 1.861.584 3.97 1.247 6.307.903.352-.052.705.052.97.284.264.23.407.551.403.902a90.47 90.47 0 01-.255 5.773.235.235 0 01-.204.212 73.84 73.84 0 01-6.232.265c-2.064 0-4.16-.09-6.232-.265a.235.235 0 01-.204-.212 89.815 89.815 0 01-.261-7.38z" fill="#4F4F4F"/><path d="M32.984 17.311h-1.68a.513.513 0 100 1.026h1.68a.731.731 0 010 1.461H16.677a.732.732 0 010-1.461h12.578a.513.513 0 100-1.026h-2.418v-.684a7.912 7.912 0 005.908-7.638c0-4.35-3.539-7.89-7.89-7.89-4.35 0-7.89 3.54-7.89 7.89 0 1.822.637 3.6 1.792 5.005a7.92 7.92 0 004.066 2.619v.698h-3.676a5.574 5.574 0 00-1.664-2.092 123.42 123.42 0 00-.097-1.818 3.05 3.05 0 00-1.53-2.466c-.008-.597-.29-1.172-.818-1.666-.468-.437-1.134-.813-1.925-1.085a.428.428 0 01-.293-.401c0-.405.133-.795.386-1.128.55-.725.84-1.59.84-2.503 0-1.14-.453-2.204-1.275-2.994A4.122 4.122 0 009.725.003C7.643.086 5.82 1.915 5.745 3.997a4.16 4.16 0 00.859 2.687c.234.304.364.695.364 1.099a.417.417 0 01-.08.244.44.44 0 01-.214.157c-.79.273-1.456.648-1.924 1.086-.528.493-.81 1.068-.818 1.664a3.051 3.051 0 00-1.53 2.467c-.037.6-.07 1.209-.098 1.813a5.577 5.577 0 00-2.162 4.113 93.179 93.179 0 00-.02 9.92.513.513 0 001.025-.052 92.135 92.135 0 01.019-9.811 4.541 4.541 0 014.257-4.291 75.621 75.621 0 018.942 0 4.539 4.539 0 013.626 2.218h-1.314c-.47 0-.912.183-1.242.515a1.758 1.758 0 001.242 2.998h2.012a92.29 92.29 0 01-.197 10.671 2.388 2.388 0 01-2.181 2.207 75.773 75.773 0 01-12.834 0 2.388 2.388 0 01-2.183-2.207 34.47 34.47 0 01-.02-.265.513.513 0 00-1.022.07l.02.273a3.41 3.41 0 003.118 3.151 76.642 76.642 0 0013.008 0 3.41 3.41 0 003.117-3.15 93.68 93.68 0 00.248-9.223c.462.408 1.098.759 1.847 1.016a.44.44 0 01.214.157c.052.072.08.157.08.245 0 .404-.13.794-.364 1.1a4.158 4.158 0 00-.86 2.686c.077 2.082 1.9 3.91 3.982 3.993a4.117 4.117 0 003.046-1.155 4.117 4.117 0 001.274-2.993 4.11 4.11 0 00-.84-2.503 1.858 1.858 0 01-.386-1.128.43.43 0 01.293-.402c.791-.272 1.457-.647 1.925-1.085.467-.436.742-.936.805-1.458h2.205c.47 0 .911-.183 1.241-.515.332-.332.515-.773.515-1.241 0-.969-.788-1.757-1.756-1.757zm-6.344-4.114a2.01 2.01 0 00-1.81-1.14c-.79 0-1.473.458-1.8 1.123a4.545 4.545 0 01-2.745-4.191c0-2.52 2.05-4.57 4.57-4.57 2.52 0 4.571 2.05 4.571 4.57a4.6 4.6 0 01-2.786 4.207zm-.828.867v3.247h-1.963v-3.247a.982.982 0 011.963 0zm-7.82-5.075a6.872 6.872 0 016.864-6.864 6.872 6.872 0 016.864 6.864 6.885 6.885 0 01-4.883 6.573v-1.34a5.65 5.65 0 002.484-1.86 5.547 5.547 0 001.13-3.373 5.603 5.603 0 00-5.595-5.596 5.602 5.602 0 00-5.597 5.596 5.55 5.55 0 001.115 3.352 5.654 5.654 0 002.45 1.862v1.344a6.895 6.895 0 01-4.833-6.558zm-10.983.165c.287-.1.533-.281.71-.526.18-.249.274-.541.274-.845a2.84 2.84 0 00-.577-1.726 3.131 3.131 0 01-.647-2.023C6.826 2.467 8.2 1.09 9.766 1.028a3.104 3.104 0 012.294.87 3.1 3.1 0 01.96 2.254c0 .687-.218 1.338-.631 1.884a2.914 2.914 0 00-.595 1.747c0 .617.396 1.168.985 1.371 1.014.349 1.72.863 1.96 1.402l-.094-.012a45.561 45.561 0 00-9.503 0l-.094.012c.24-.54.946-1.053 1.96-1.402zm-1.647 4.915a5.527 5.527 0 00-2 .503c.02-.37.04-.741.063-1.108a2.033 2.033 0 011.825-1.9 44.525 44.525 0 019.288 0 2.033 2.033 0 011.824 1.9c.023.368.044.74.063 1.11a5.518 5.518 0 00-2-.505 76.694 76.694 0 00-9.063 0zm22.354 8.329c-.59.202-.985.753-.985 1.37 0 .621.21 1.242.594 1.748.413.546.632 1.197.632 1.884a3.1 3.1 0 01-.96 2.254 3.103 3.103 0 01-2.295.87c-1.567-.063-2.94-1.44-2.997-3.007a3.131 3.131 0 01.647-2.023 2.837 2.837 0 00.577-1.725c0-.304-.094-.597-.274-.846a1.462 1.462 0 00-.71-.526c-1.122-.385-1.866-.972-2.021-1.573h9.813c-.156.6-.9 1.188-2.021 1.573z" fill="#4F4F4F"/><path d="M26.043 28.03a.513.513 0 00.518.884l.025-.015a.513.513 0 00-.518-.885l-.025.015zm.986-.226a.511.511 0 00.259-.07l.025-.015a.513.513 0 00-.518-.885l-.026.015a.513.513 0 00.26.955zm-1.429-.017a.511.511 0 00.258-.07l.025-.016a.513.513 0 00-.518-.885l-.025.015a.513.513 0 00.26.956zM11.504 4.194v.03a.513.513 0 00.51.515h.003c.281 0 .51-.227.512-.509V4.2a.513.513 0 00-.509-.515h-.003a.513.513 0 00-.513.509zm-.135-.681h.003c.282 0 .51-.227.513-.51v-.029a.513.513 0 00-.51-.516h-.003a.513.513 0 00-.512.51v.029a.513.513 0 00.509.516zm-.746 1.217h.003c.282 0 .51-.228.513-.51v-.029a.513.513 0 00-.51-.516h-.003a.513.513 0 00-.512.509v.03a.513.513 0 00.508.516z" fill="#4F4F4F"/></svg>