<svg width="39" height="37" fill="none" xmlns="http://www.w3.org/2000/svg"><path d="M25.409 35.87h-6.237a5.225 5.225 0 01-5.219-5.22V14.689a1.108 1.108 0 012.216 0V30.65a3.007 3.007 0 003.003 3.003h6.237a3.007 3.007 0 003.003-3.003v-2.7a1.108 1.108 0 012.216 0v2.7a5.225 5.225 0 01-5.22 5.219z" fill="#049EFC"/><path d="M2.871 13.246V1.645a5.624 5.624 0 015.624 5.624v.352a5.624 5.624 0 01-5.624 5.625z" fill="#fff"/><path d="M2.871 1.645v.488A5.624 5.624 0 016.204 7.27v.352a5.624 5.624 0 01-3.333 5.136v.489A5.624 5.624 0 008.495 7.62v-.35a5.624 5.624 0 00-5.624-5.624z" fill="#fff"/><path d="M1.93 14.317h-.413a.943.943 0 01-.943-.942V1.515c0-.52.422-.942.943-.942h.412c.52 0 .943.422.943.942v11.86c0 .52-.422.942-.943.942zM35.6 30.616H23.512a.715.715 0 01-.715-.716V16.348h13.519V29.9c0 .395-.32.716-.716.716z" fill="#FDFCFC"/><path d="M34.024 16.348V29.9c0 .395-.32.716-.715.716H35.6c.395 0 .716-.32.716-.716V16.348h-2.292z" fill="#fff"/><path d="M37.083 16.348h-15.06a1.312 1.312 0 01-1.312-1.312V5.358a3.934 3.934 0 013.934-3.934h9.816a3.934 3.934 0 013.934 3.934v9.678c0 .725-.588 1.312-1.312 1.312z" fill="#049EFC"/><path d="M34.464 1.424h-2.292a3.934 3.934 0 013.934 3.934v9.678c0 .725-.587 1.312-1.312 1.312h2.292c.724 0 1.312-.587 1.312-1.312V5.358a3.934 3.934 0 00-3.934-3.934z" fill="#049EFC"/><path d="M31.469 26.908a2.022 2.022 0 10-3.834-1.286 2.022 2.022 0 003.834 1.286z" fill="#fff"/><path d="M13.184 12.144h3.77v3.77h-3.77v-3.77z" fill="#049EFC"/><path d="M13.952 6.258h-2.925v2.287h2.046c.485 0 .879.393.879.878v2.709h2.215V7.136a.878.878 0 00-.878-.878h-1.337z" fill="#fff"/><path d="M10.304 10.05H9.221a.725.725 0 01-.725-.725v-4.12c0-.401.325-.726.725-.726h1.083c.4 0 .725.325.725.725v4.121c0 .4-.325.725-.725.725z" fill="#fff"/><path d="M34.245 10.285h-9.32a.563.563 0 01-.562-.563V4.566c0-.311.252-.563.563-.563h9.319c.31 0 .562.252.562.563v5.156a.563.563 0 01-.563.563z" fill="#FDFCFC"/><path d="M32.04 21.7h-4.971a.389.389 0 01-.39-.39v-1.78a.39.39 0 01.39-.388h4.97a.39.39 0 01.39.389v1.78a.389.389 0 01-.39.389z" fill="#049EFC"/><path d="M34.464.85h-9.816a4.512 4.512 0 00-4.507 4.508v9.678c0 1.04.846 1.885 1.885 1.885h.198v12.98c0 .71.578 1.288 1.288 1.288h4.265a2.434 2.434 0 01-2.37 1.893h-6.236c-1.34 0-2.43-1.09-2.43-2.431V16.487h.214a.573.573 0 00.573-.573v-3.77a.573.573 0 00-.573-.573h-.215V7.136c0-.8-.65-1.451-1.451-1.451H11.6v-.48a1.3 1.3 0 00-1.297-1.298H9.219c-.358 0-.682.146-.917.38a6.206 6.206 0 00-4.92-3.192A1.517 1.517 0 001.929 0h-.413C.68 0 0 .68 0 1.515v11.86c0 .835.68 1.515 1.515 1.515h.413c.69 0 1.272-.463 1.455-1.095a6.208 6.208 0 005.048-3.441c.219.168.492.269.788.269h1.084A1.3 1.3 0 0011.6 9.325v-.208h1.473c.169 0 .306.137.306.306v2.148h-.194a.573.573 0 00-.573.573v3.77c0 .316.256.573.573.573h.194v5.835a.573.573 0 001.146 0v-5.835h1.07V30.65a3.58 3.58 0 003.576 3.576h6.236a3.582 3.582 0 003.537-3.038h1.077a4.652 4.652 0 01-4.614 4.108h-6.236a4.651 4.651 0 01-4.646-4.646v-6.037a.573.573 0 10-1.146 0v6.037a5.799 5.799 0 005.792 5.792h6.236a5.8 5.8 0 005.767-5.254H35.6a1.29 1.29 0 001.288-1.289v-5.336a.573.573 0 10-1.146 0V29.9a.142.142 0 01-.142.143H23.512a.143.143 0 01-.143-.143V16.921h12.373v5.351a.573.573 0 001.146 0v-5.35h.198c1.04 0 1.885-.846 1.885-1.886V5.358A4.512 4.512 0 0034.464.85zM2.298 13.376a.37.37 0 01-.37.37h-.413a.37.37 0 01-.37-.37V1.515a.37.37 0 01.37-.37h.413a.37.37 0 01.37.37v11.86zm1.145-.735V2.25a5.059 5.059 0 014.479 5.02v.351a5.058 5.058 0 01-4.479 5.02zm7.011-3.315a.152.152 0 01-.151.152H9.219a.152.152 0 01-.151-.152V5.204c0-.083.068-.151.151-.151h1.084c.083 0 .151.068.151.151v4.121zm2.62-1.353H11.6V6.83h3.689c.168 0 .305.136.305.305v4.423h-1.07V9.423c0-.8-.65-1.451-1.45-1.451zm.684 7.369v-2.624h2.624v2.624h-2.625zm24.067-.305a.74.74 0 01-.739.74h-15.06a.74.74 0 01-.74-.74V5.358a3.365 3.365 0 013.362-3.361h9.816a3.365 3.365 0 013.361 3.36v9.68z" fill="#4F4F4F"/><path d="M33.004 21.31v-1.78a.963.963 0 00-.962-.962h-4.97a.963.963 0 00-.963.962v1.78c0 .53.432.962.962.962h4.971c.53 0 .962-.431.962-.962zm-1.146-.183h-4.603v-1.413h4.603v1.413zm-2.302 2.543a2.598 2.598 0 00-2.595 2.595 2.598 2.598 0 002.595 2.595 2.598 2.598 0 002.595-2.595 2.598 2.598 0 00-2.595-2.595zm0 4.044a1.45 1.45 0 01-1.45-1.449 1.45 1.45 0 012.898 0c.001.8-.65 1.45-1.448 1.45zM34.247 3.43H24.93c-.627 0-1.136.51-1.136 1.136v5.157c0 .626.51 1.135 1.136 1.135h9.318c.626 0 1.136-.51 1.136-1.135V4.566c0-.626-.51-1.136-1.136-1.136zm-.01 6.282h-9.298V4.576h9.298v5.136zm-7.334 2.053h-.842a.573.573 0 000 1.146h.842a.573.573 0 100-1.146zm3.055 0h-.842a.573.573 0 000 1.146h.842a.573.573 0 100-1.146zm3.094 0h-.842a.573.573 0 000 1.146h.842a.573.573 0 000-1.146zm-6.149 2.044h-.842a.573.573 0 000 1.146h.842a.573.573 0 100-1.146zm3.055 0h-.842a.573.573 0 000 1.146h.842a.573.573 0 000-1.146zm3.094 0h-.842a.573.573 0 100 1.146h.842a.573.573 0 000-1.146z" fill="#4F4F4F"/><path d="M26.905 7.613h5.304a.573.573 0 000-1.146h-5.304a.573.573 0 000 1.146z" fill="#4F4F4F"/></svg>