<svg width="46" height="28" fill="none" xmlns="http://www.w3.org/2000/svg"><path d="M34.898 13.537h3.643v6.248h-3.643v-6.248z" fill="#fff"/><path d="M42.425 24.412l-1.148-4.822a.938.938 0 00-.912-.72h-7.846a.937.937 0 00-.796.44l-3.18 5.102h13.882z" fill="#fff"/><path d="M43.083 26.65h-15.2c-.674 0-1.247-.49-1.351-1.155l-.118-.75a.938.938 0 01.926-1.083h16.285a.938.938 0 01.927 1.082l-.118.75a1.368 1.368 0 01-1.351 1.157zm-2.942-11.766h-6.84a.469.469 0 01-.469-.47v-2.07c0-.26.21-.47.469-.47h6.84c.26 0 .47.21.47.47v2.07c0 .26-.21.47-.47.47z" fill="#049EFC"/><path d="M23.328 8.963h11.755v2.912H23.328V8.963z" fill="#fff"/><path d="M40.046 11.874h-6.651l.766-3.237a.938.938 0 01.913-.722h3.294c.434 0 .812.299.912.722l.766 3.237zm-13.453-6.76a4.13 4.13 0 01-1.925-.476l-6.012-3.165v17.892l6.012-3.165a4.132 4.132 0 011.925-.476h.84c.517 0 .937-.42.937-.938V6.052a.937.937 0 00-.938-.938h-.838z" fill="#fff"/><path d="M28.37 6.052v8.734c0 .518-.42.937-.938.937h-.839c-.318 0-.636.038-.945.11V5.004c.309.074.627.112.945.112h.84c.518 0 .937.419.937.937z" fill="#049EFC"/><path d="M3.218 5.114c.67 0 1.332-.163 1.925-.476l6.012-3.165v17.892L5.143 16.2a4.132 4.132 0 00-1.925-.476h-.84a.937.937 0 01-.937-.938V6.052c0-.518.42-.938.938-.938h.839z" fill="#fff"/><path d="M4.164 5.004v10.83a4.104 4.104 0 00-.946-.11h-.84a.937.937 0 01-.937-.938V6.052c0-.518.42-.937.938-.937h.839c.32 0 .637-.038.946-.111z" fill="#049EFC"/><path d="M18.107.949h-6.4a.937.937 0 00-.938.937v17.066c0 .517.42.937.938.937h6.4c.518 0 .938-.42.938-.938V1.886a.937.937 0 00-.938-.937z" fill="#fff"/><path d="M15.248 4.338H10.77v3.969h4.478c.259 0 .469-.21.469-.469V4.807a.469.469 0 00-.47-.47z" fill="#049EFC"/><path d="M44.692 23.684a1.404 1.404 0 00-1.068-.492h-1.01l-.188-.784a.468.468 0 00-.188-.897h-.025l-.483-2.03a1.402 1.402 0 00-1.368-1.08H39.01v-3.048h1.13a.938.938 0 00.937-.938v-2.072a.939.939 0 00-.65-.892l-.692-2.922a1.4 1.4 0 00-1.368-1.083h-3.294a1.4 1.4 0 00-1.36 1.052c-.012 0-.024-.004-.036-.004H28.84V6.052c0-.776-.63-1.407-1.406-1.407h-.84a3.68 3.68 0 01-1.706-.421l-5.489-2.89A1.408 1.408 0 0018.106.48h-6.4c-.582 0-1.082.355-1.296.86-.013.005-.026.009-.038.016L4.925 4.224a3.679 3.679 0 01-1.707.421h-.84c-.775 0-1.405.631-1.405 1.407v8.734c0 .776.63 1.406 1.406 1.406h.839a3.68 3.68 0 011.707.422l5.447 2.868a.287.287 0 00.04.018c.214.504.713.858 1.294.858h6.4c.58 0 1.078-.352 1.293-.854l5.489-2.89a3.678 3.678 0 011.706-.422h.84c.775 0 1.406-.63 1.406-1.406v-2.443h3.523v2.072c0 .517.42.938.937.938h1.13V18.4h-1.914c-.489 0-.935.248-1.193.663l-1.526 2.448h-.174a.469.469 0 00-.327.803l-.548.878h-1.41a1.404 1.404 0 00-1.389 1.624l.118.75c.14.9.904 1.553 1.814 1.553h15.2c.91 0 1.673-.653 1.814-1.552l.118-.75a1.404 1.404 0 00-.32-1.133zm-9.618-15.3h3.294c.218 0 .405.148.456.36l.63 2.662h-5.467l.63-2.661a.467.467 0 01.457-.361zM3.218 15.255H2.38a.47.47 0 01-.469-.469V6.052a.47.47 0 01.469-.47h.84c.743 0 1.484-.182 2.143-.529l4.938-2.6v15.932l-4.938-2.6a4.619 4.619 0 00-2.144-.53zm24.684-.469a.47.47 0 01-.468.469h-.84c-.744 0-1.485.183-2.143.53l-4.938 2.6V9.55a.469.469 0 00-.938 0v9.402a.47.47 0 01-.469.468h-6.4a.47.47 0 01-.469-.468V1.886a.47.47 0 01.47-.468h6.4a.47.47 0 01.468.468v4.936a.469.469 0 10.938 0v-4.37l4.938 2.601c.658.347 1.4.53 2.143.53h.84a.47.47 0 01.468.469v8.734zm.938-3.38V9.432h4.651l-.467 1.974H28.84zm4.46.937h6.841v2.072h-6.84v-2.072zm2.068 3.01h2.705V18.4h-2.705v-3.047zm-3.25 4.206a.466.466 0 01.398-.221h7.846c.218 0 .405.148.456.36l.431 1.813H30.901l1.217-1.952zm11.969 5.112l-.118.75a.895.895 0 01-.889.76H27.882a.895.895 0 01-.888-.76l-.118-.75a.462.462 0 01.107-.377.462.462 0 01.356-.164h4.237a.469.469 0 100-.938h-1.722l.464-.744h11.155l.177.744h-7.346a.469.469 0 100 .938h9.32a.466.466 0 01.464.541z" fill="#4F4F4F"/></svg>