<svg width="40" height="35" fill="none" xmlns="http://www.w3.org/2000/svg"><path fill-rule="evenodd" clip-rule="evenodd" d="M12 19.02c-1.51.118-3.829.61-3.829.61l-.323-2.589 1.467-.215s-.647-4.388-.97-5.107c-.324-.719.559-3.26 2.157-3.56 1.63-.306 3.344 2.05 3.308 2.661-.036.611.612 5.322.612 5.322h1.186c.144.96.389 2.877.216 2.877l-.232-.007c-.629-.025-2.346-.09-3.592.007zm-1.354-9.27c-1.295.216-1.15 1.655-.971 1.942.18.288 2.374.072 2.517-.287.144-.36-.251-1.87-1.546-1.654z" fill="#fff"/><path d="M8.171 19.63l-.496.063a.5.5 0 00.6.427l-.104-.49zM12 19.02l.04.498-.04-.499zm-4.152-1.98l-.073-.494a.5.5 0 00-.423.556l.496-.062zm1.467-.215l.073.494a.5.5 0 00.422-.567l-.495.073zm-.97-5.107l-.457.205.456-.205zm2.157-3.56l-.092-.491.092.491zm3.92 7.983l-.496.069a.5.5 0 00.496.431v-.5zm1.186 0l.495-.074a.5.5 0 00-.495-.426v.5zm-.016 2.87l.02-.5-.02.5zm-5.917-7.32l.424-.265-.424.265zm.971-1.941l.082.493-.082-.493zm1.546 1.654l.465.185-.465-.185zm-4.02 8.226l.103.489h.002l.004-.002.02-.004.074-.015a44.07 44.07 0 011.233-.237c.765-.138 1.702-.287 2.431-.344l-.078-.997c-.78.061-1.758.218-2.53.356a52.778 52.778 0 00-1.258.243l-.078.016-.02.004-.006.001h-.001l.103.49zm-.82-2.527l.323 2.589.992-.124-.323-2.59-.992.125zm1.89-.773l-1.467.216.145.99 1.468-.217-.146-.989zm-1.354-4.407c.054.12.145.47.255.998.104.504.214 1.113.315 1.704a113.087 113.087 0 01.355 2.224l.006.036.001.01v.002l.495-.072.495-.073v-.001a.131.131 0 00-.002-.012l-.006-.037a80.203 80.203 0 00-.099-.65 97.762 97.762 0 00-.26-1.595 52.348 52.348 0 00-.321-1.739c-.103-.497-.214-.965-.322-1.205l-.912.41zm2.522-4.256c-1.03.193-1.75 1.078-2.155 1.89a4.77 4.77 0 00-.427 1.255c-.067.368-.085.788.06 1.111l.912-.41c-.016-.036-.046-.203.012-.523.053-.294.167-.644.338-.986.355-.712.876-1.248 1.444-1.354l-.184-.983zm3.9 3.182a1.264 1.264 0 00-.098-.51 3.197 3.197 0 00-.246-.494 5.62 5.62 0 00-.832-1.054c-.654-.654-1.653-1.325-2.724-1.124l.184.983c.558-.105 1.232.248 1.833.848.286.286.522.596.682.862.08.133.136.247.17.335.037.1.03.124.032.095l.998.059zm.112 5.292l.495-.068v-.003l-.002-.01-.005-.04a238.295 238.295 0 01-.311-2.373 95.908 95.908 0 01-.211-1.79c-.058-.548-.085-.907-.079-1.008l-.998-.06c-.012.205.029.664.082 1.172.056.533.134 1.183.213 1.81a229.83 229.83 0 00.292 2.234c.01.065.016.116.02.151l.006.04.002.01v.003l.496-.068zm1.186-.5h-1.186v1h1.186v-1zm.216 3.877c.287 0 .428-.21.468-.285a.71.71 0 00.07-.212c.018-.1.022-.215.021-.32a9.593 9.593 0 00-.05-.81 37.84 37.84 0 00-.23-1.824l-.99.149c.072.474.168 1.184.224 1.771.029.296.046.548.046.719a1.766 1.766 0 01-.005.141v-.005l.005-.014a.468.468 0 01.441-.31v1zm-.251-.008c.114.005.21.008.251.008v-1h-.017c-.012 0-.027 0-.046-.002a72.795 72.795 0 01-.15-.005l-.038 1zm-3.534.007c1.211-.096 2.899-.031 3.534-.007l.038-1c-.622-.023-2.37-.091-3.65.01l.078.997zm-1.94-8.09c.015.023-.017-.032-.033-.182a1.3 1.3 0 01.027-.433.764.764 0 01.188-.36c.085-.087.22-.171.447-.21l-.164-.986c-.42.07-.753.246-.999.498a1.762 1.762 0 00-.443.82 2.302 2.302 0 00-.05.775c.021.207.074.44.18.607l.847-.53zm1.629-.209c.051-.128.14-.157.086-.127a1.171 1.171 0 01-.19.07 4.486 4.486 0 01-.73.132c-.276.03-.542.039-.739.026a1.085 1.085 0 01-.196-.025c-.015-.005-.008-.004.011.006a.358.358 0 01.129.126l-.848.53a.644.644 0 00.241.223.95.95 0 00.207.08c.123.033.261.05.394.058.27.017.594.004.907-.03.313-.033.637-.089.903-.166a2.01 2.01 0 00.384-.15.78.78 0 00.37-.382l-.929-.37zm-1-.975c.396-.066.639.11.804.38.088.141.144.3.17.436.033.163.007.207.026.16l.929.37c.09-.227.07-.507.027-.722a2.36 2.36 0 00-.3-.768c-.32-.52-.922-.992-1.82-.843l.164.987z" fill="#4F4F4F"/><path d="M35.864 30H34v4h1.864v-.643s3.136 0 3.136-1.464-3.136-1.25-3.136-1.25V30zM10.86 21.66l-.705-.328s-6.105 2.372-8.046-1.825C.167 15.31-.044 1.88 8.39 1.04 16.825.2 26.5 12.5 26.5 12.5" stroke="#4F4F4F" stroke-linecap="square" stroke-linejoin="round"/><path d="M21.25 29.515c1.408.431 3.75.452 3.75.452L24.69 34s-5.373 0-10.09-4.033c-4.716-4.032-4.29-8.894-4.6-10.552 1.198 0 3.943-.415 3.943-.415s0 7.16 7.307 10.515z" fill="#fff" stroke="#4F4F4F" stroke-linecap="square" stroke-linejoin="round"/><path d="M26.464 12l-.464.59.563.629.232 3.36s1.01.735 1.523 1.366c.527.649 1.093 1.883 1.093 1.883l1.953.443 1.788 2.141h.331L34.973 24 36 22.855l-1.291-1.587v-.37l-1.92-2.03-.233-2.474s-.984-.694-1.49-1.292c-.563-.667-1.159-1.957-1.159-1.957l-2.781-.406-.662-.739z" fill="#049EFC" stroke="#4F4F4F" stroke-linecap="square" stroke-linejoin="round"/></svg>