<svg width="35" height="40" fill="none" xmlns="http://www.w3.org/2000/svg"><path opacity=".1" d="M7.173 33.932c-.552 1.014-1.58 3.008-1.58 3.784a1.92 1.92 0 003.84 0c0-.776-1.028-2.77-1.58-3.784a.387.387 0 00-.68 0z" fill="#049EFC"/><path d="M28.875 3.6l2.017 2.016-15.545 15.545-2.017-2.017L28.875 3.6z" fill="#049EFC"/><path d="M8.3 27.355l-1.158-1.159a.938.938 0 010-1.326l2.287-2.287 2.484 2.485-2.287 2.287a.938.938 0 01-1.326 0z" fill="#fff"/><path d="M25.552 13.779L12.982 26.35a.938.938 0 01-1.327 0l-3.509-3.51a.938.938 0 010-1.326l.796-.795L20.717 8.944l4.835 4.835z" fill="#fff"/><path d="M11.655 26.35l-3.51-3.51a.938.938 0 010-1.325l3.316-3.316 4.835 4.835-3.315 3.316a.937.937 0 01-1.326 0z" fill="#fff"/><path d="M13.324 19.15l8.64-8.64 2.017 2.018-8.64 8.64-2.017-2.018z" fill="#049EFC"/><path d="M16.51 22.824a1.627 1.627 0 01-1.155.478 1.63 1.63 0 01-1.154-.478l-2.528-2.528a1.632 1.632 0 010-2.308.935.935 0 011.326 0l2.022 2.022 1.488 1.488a.938.938 0 010 1.326z" fill="#049EFC"/><path d="M26.095 14.634L19.86 8.4a.871.871 0 111.232-1.232l6.234 6.234a.871.871 0 11-1.232 1.232zM32.26 7.98l-5.746-5.746A1.035 1.035 0 0127.977.77l5.747 5.746A1.035 1.035 0 0132.26 7.98zM11.316 19.301a6.515 6.515 0 100-13.03 6.515 6.515 0 000 13.03z" fill="#fff"/><path d="M34.056 6.186L28.31.44a1.504 1.504 0 00-2.126 0 1.505 1.505 0 000 2.126l1.533 1.533-4.515 4.515-1.777-1.777a1.342 1.342 0 00-1.895 0 1.342 1.342 0 000 1.895l.368.368-1.846 1.847c-.683-2.484-2.714-4.466-5.323-5.002a.468.468 0 10-.189.918 6.064 6.064 0 014.823 5.923 6.053 6.053 0 01-6.046 6.046 6.053 6.053 0 01-6.047-6.046c0-2.814 1.993-5.297 4.737-5.903a.469.469 0 00-.202-.915 7.013 7.013 0 00-3.91 2.416 6.996 6.996 0 00-1.562 4.402c0 3.213 2.183 5.926 5.144 6.736l-1.662 1.661a1.408 1.408 0 000 1.989l.18.181L6.81 24.54a1.397 1.397 0 00-.412.995c0 .375.146.728.412.994l.248.248-6.92 6.92a.469.469 0 10.662.663l6.92-6.92.248.247c.266.266.619.412.995.412.375 0 .728-.146.994-.412l1.186-1.186.181.181a1.402 1.402 0 001.989 0l12.083-12.083.368.368c.261.261.604.392.947.392a1.342 1.342 0 00.947-2.287l-1.776-1.777.452-.452a.469.469 0 00-.663-.663l-.452.452-1.354-1.354 4.515-4.515 1.354 1.354-2.133 2.134a.469.469 0 10.663.663l2.133-2.134 1.534 1.533c.293.293.677.44 1.062.44a1.499 1.499 0 001.504-1.503c0-.401-.157-.779-.44-1.063zM9.294 27.023a.47.47 0 01-.663 0l-1.158-1.158a.47.47 0 010-.663l1.186-1.186 1.821 1.822-1.186 1.185zm3.356-1.005a.466.466 0 01-.663 0l-3.51-3.509a.466.466 0 010-.663l2.115-2.114a6.992 6.992 0 007.708-6.946c0-.244-.014-.485-.039-.723l2.3-2.3 4.172 4.172L12.65 26.018zm14.346-11.715a.403.403 0 01-.569 0L20.193 8.07a.403.403 0 01.57-.569l6.233 6.234a.403.403 0 010 .57zm6.398-6.654a.562.562 0 01-.8 0l-5.747-5.746a.567.567 0 01.8-.8l5.747 5.746a.562.562 0 010 .8z" fill="#4F4F4F"/><path d="M11.297 15.836a.999.999 0 01-.985-1.012v-3.787c0-.56.441-1.013.985-1.013s.984.453.984 1.013v3.787a.997.997 0 01-.984 1.012z" fill="#4F4F4F"/><path d="M13.221 13.961H9.373a1.03 1.03 0 01-1.03-1.03c0-.57.461-1.032 1.03-1.032h3.848a1.03 1.03 0 011.029 1.031c0 .57-.46 1.031-1.029 1.031z" fill="#4F4F4F"/></svg>