<svg width="36" height="36" fill="none" xmlns="http://www.w3.org/2000/svg"><path d="M6.984 11.904h-2.89A3.567 3.567 0 01.527 8.338v-2.51c0-.835.293-1.643.827-2.283L2.799 1.81a3.567 3.567 0 015.48 0l1.445 1.734c.534.64.826 1.448.826 2.283v2.51a3.567 3.567 0 01-3.566 3.566z" fill="#fff"/><path d="M9.724 3.545L8.279 1.81A3.567 3.567 0 004.484.688c.652.202 1.24.587 1.686 1.123l1.444 1.734c.535.64.827 1.448.827 2.283v2.51a3.567 3.567 0 01-3.566 3.566h2.109a3.567 3.567 0 003.566-3.566v-2.51c0-.835-.292-1.643-.826-2.283z" fill="#fff"/><path d="M5.97 15.762h-.862a.687.687 0 01-.686-.687V9.011c0-.357.29-.646.646-.646h.943c.357 0 .646.29.646.646v6.064c0 .38-.308.687-.687.687z" fill="#049EFC"/><path d="M6.697 16.416H4.379a.84.84 0 01-.84-.84v-.671a.84.84 0 01.84-.84h2.318a.84.84 0 01.84.84v.672a.84.84 0 01-.84.84zm26.514 19.057h-7.076c-.739 0-1.338-.6-1.338-1.339V15.082l4.878-2.215 4.875 2.215v19.052c0 .74-.6 1.339-1.339 1.339z" fill="#049EFC"/><path d="M32.44 15.082v19.052c0 .74-.6 1.339-1.338 1.339h2.109c.74 0 1.339-.6 1.339-1.339V15.082h-2.11z" fill="#0085CF"/><path d="M28.724 9.34V1.968h1.899V5.26h1.626v1.71h-1.626v2.37a4.878 4.878 0 013.927 4.783v1.004h-9.753v-1.004a4.878 4.878 0 013.927-4.784z" fill="#fff"/><path d="M30.621 9.34V6.97h1.626V5.26h-1.626V1.97h-1.898v7.37l-.106.023a4.877 4.877 0 013.822 4.76v1.005h2.11v-1.004a4.878 4.878 0 00-3.928-4.784z" fill="#fff"/><path d="M27.844 2.988H31.5V1.833c0-.644-.521-1.165-1.165-1.165H29.01c-.644 0-1.165.521-1.165 1.165v1.155zM32.2 4.316v3.657h1.155c.643 0 1.165-.522 1.165-1.165V5.48c0-.643-.522-1.165-1.165-1.165h-1.156z" fill="#049EFC"/><path d="M19.305 14.836h3.184v8.437h-3.184v-8.437z" fill="#fff"/><path d="M20.734 14.836h1.758v8.437h-1.758v-8.437zm-.765-2.953h1.861v2.812h-1.86v-2.812z" fill="#fff"/><path d="M18.719 14.695h4.36v3.446h-4.36v-3.446z" fill="#fff"/><path d="M3.043 6.716h4.989c.682 0 .682-1.055 0-1.055h-4.99c-.681 0-.681 1.055 0 1.055zm3.813-1.882c.682 0 .682-1.055 0-1.055H4.218c-.681 0-.681 1.055 0 1.055h2.638zM32.93 31.852V23.26a.527.527 0 10-1.055 0v8.592a.527.527 0 101.055 0z" fill="#4F4F4F"/><path d="M35.426 17.613h-.352v-3.491a5.415 5.415 0 00-3.927-5.198V7.498h.52v.474c0 .292.237.528.528.528h1.156c.933 0 1.692-.76 1.692-1.692V5.48c0-.933-.76-1.692-1.692-1.692h-1.156a.527.527 0 00-.527.527v.417h-.521V3.516h.352a.527.527 0 00.527-.528V1.833c0-.933-.76-1.692-1.692-1.692h-1.327c-.933 0-1.692.759-1.692 1.692v1.155c0 .292.236.528.527.528h.352V5.73h-4.4a3.455 3.455 0 00-3.45 3.451v2.175h-.379a.527.527 0 00-.527.527v2.285h-.721a.527.527 0 00-.528.527v1.301h-1.445a2.508 2.508 0 00-2.506 2.505v12.647a3.766 3.766 0 01-3.761 3.762h-.633a3.766 3.766 0 01-3.762-3.762V16.944h.616c.754 0 1.367-.613 1.367-1.367v-.672c0-.583-.367-1.08-.881-1.276v-1.203a4.099 4.099 0 003.894-4.088v-2.51c0-1.817-1.315-3.06-2.394-4.355A4.083 4.083 0 005.539 0c-.93 0-1.843.321-2.568.905-.53.428.13 1.249.662.822a3.05 3.05 0 011.906-.672c.904 0 1.755.398 2.335 1.093.891 1.07 2.149 2.184 2.149 3.68v2.51a3.042 3.042 0 01-2.84 3.032V9.01c0-.647-.526-1.173-1.173-1.173h-.943c-.647 0-1.173.526-1.173 1.173v2.359a3.043 3.043 0 01-2.84-3.032v-2.51c0-.71.25-1.4.705-1.946.437-.524-.373-1.199-.81-.675A4.102 4.102 0 000 5.827v2.51a4.099 4.099 0 003.894 4.09v1.202a1.368 1.368 0 00-.881 1.276v.672c0 .754.613 1.367 1.367 1.367h.647v14.204a4.822 4.822 0 004.817 4.817h.633a4.822 4.822 0 004.816-4.817V18.501c0-.8.65-1.45 1.45-1.45h1.446v.562h-.412c-.681 0-.681 1.055 0 1.055h1v4.605c0 .292.236.528.527.528h3.184a.527.527 0 00.528-.528v-4.605h1.25v15.466c0 1.029.838 1.866 1.866 1.866h2.063c.682 0 .682-1.055 0-1.055h-2.063a.812.812 0 01-.81-.81V18.667h8.698v15.466a.812.812 0 01-.812.811h-2.203c-.682 0-.682 1.055 0 1.055h2.203a1.868 1.868 0 001.866-1.866V18.668h.352c.682 0 .682-1.055 0-1.055zM5.067 8.893h.943c.066 0 .119.052.119.118v4.527h-1.18V9.01a.12.12 0 01.118-.119zm-1 6.684v-.672c0-.173.14-.313.313-.313h2.318c.172 0 .312.14.312.313v.672c0 .172-.14.312-.312.312H4.38a.313.313 0 01-.313-.312zM32.722 4.843h.629c.351 0 .637.286.637.638v1.327a.638.638 0 01-.637.637h-.629V4.843zm-4.353-3.01a.64.64 0 01.638-.638h1.327c.351 0 .637.286.637.638v.628h-2.602v-.628zm1.723 1.683V5.26c0 .292.236.528.527.528h1.049v.655h-1.049a.527.527 0 00-.527.528v2.368c0 .252.178.469.425.517a4.356 4.356 0 013.503 4.267v.432h-8.7v-.432a4.356 4.356 0 013.502-4.267.527.527 0 00.425-.517V3.516h.844zm-9.6 8.894h.808v1.758h-.807V12.41zm-1.248 2.813h3.305v2.39h-3.305v-2.39zm2.717 7.523h-2.13v-4.078h2.13v4.078zm1.642-5.133v-2.918a.527.527 0 00-.527-.527h-.722v-2.285a.527.527 0 00-.527-.527h-.429V9.18a2.399 2.399 0 012.396-2.396h4.4v2.139a5.415 5.415 0 00-3.928 5.199v3.49h-.663zm1.718 0v-1.96h8.698v1.96h-8.698z" fill="#4F4F4F"/></svg>