<svg width="40" height="52" fill="none" xmlns="http://www.w3.org/2000/svg"><g clip-path="url(#clip0_2104_2055)" fill="#fff"><path fill-rule="evenodd" clip-rule="evenodd" d="M.606 17.15c.16.24.43.34.6.22.17-.11.18-.4.02-.63-.16-.24-.43-.34-.6-.22-.17.11-.18.4-.02.63zm-.008 2.61c.18.26.47.38.66.25.19-.12.2-.44.02-.71-.18-.26-.47-.38-.66-.25-.19.13-.2.44-.02.71zm2.635.13c.29.44.79.63 1.11.42.32-.21.33-.74.04-1.18-.29-.44-.79-.63-1.11-.42-.32.21-.33.74-.04 1.18zm.135-2.9c.23.34.62.49.87.33.25-.16.26-.58.03-.93-.23-.34-.62-.49-.87-.33-.25.16-.26.58-.03.93zm0-2.37c.23.34.62.49.87.33.25-.16.26-.58.03-.93-.23-.34-.62-.49-.87-.33-.25.17-.26.58-.03.93zm.121-2.39c.17.26.46.37.65.24s.19-.43.02-.69c-.17-.26-.46-.37-.65-.24-.18.12-.19.43-.02.69zm.053-1.98c.16.24.42.34.6.22.17-.11.18-.4.02-.63-.16-.24-.42-.34-.59-.22-.17.11-.18.4-.02.63m2.907 8.91c.39.58 1.05.83 1.47.55.42-.28.44-.98.05-1.57-.39-.58-1.05-.83-1.47-.55-.42.28-.44.98-.05 1.57zm.041-3.72c.34.51.91.72 1.27.48s.38-.85.04-1.36c-.34-.51-.91-.72-1.27-.48s-.38.85-.04 1.36zm.167-3.36c.27.41.74.59 1.03.39.29-.2.31-.69.04-1.1-.27-.41-.74-.58-1.03-.39-.29.2-.31.69-.04 1.1zm.081-3.05c.23.34.61.48.85.32.24-.16.26-.57.03-.91-.23-.34-.61-.48-.85-.32-.24.16-.26.57-.03.91zM6.87 6.3c.2.3.53.42.74.28.21-.14.22-.5.03-.79-.2-.3-.53-.42-.74-.28-.21.14-.22.5-.03.79zm3.11 12.56c.45.67 1.22.97 1.71.66.49-.3.51-1.09.06-1.76-.45-.67-1.22-.96-1.71-.66-.49.3-.51 1.09-.06 1.76zm.237-4.09c.37.58.99.8 1.39.48.4-.32.42-1.05.05-1.63-.37-.58-.99-.8-1.39-.48-.4.32-.42 1.05-.05 1.63zm-.013-4.18c.34.51.92.73 1.28.48.37-.24.39-.86.05-1.37-.34-.51-.92-.73-1.29-.49s-.39.86-.04 1.37m.004-3.8c.24.45.75.73 1.12.64.37-.1.48-.54.23-.99-.24-.45-.75-.73-1.12-.64-.37.1-.47.55-.23.99zm.173-3.32c.17.32.53.52.8.45s.34-.39.17-.71c-.17-.32-.53-.52-.8-.45s-.34.39-.17.71zm3.915 1.95c.31.53.91.81 1.32.64.41-.17.49-.74.18-1.27s-.91-.81-1.32-.64c-.41.17-.49.74-.17 1.27m-.016 4.06c.33.58.95.87 1.38.64.43-.23.51-.88.18-1.46s-.95-.87-1.38-.64c-.43.23-.51.88-.18 1.46zm-.161 4.12c.39.69 1.13 1.04 1.64.77s.61-1.05.22-1.75-1.13-1.04-1.64-.77-.61 1.05-.22 1.75zm-.241 4.73c.48.84 1.38 1.26 2 .94.62-.33.74-1.28.27-2.13-.48-.84-1.38-1.26-2-.94-.62.33-.74 1.29-.27 2.13zm24.782 2.09c.2.28.53.4.73.25.21-.14.22-.49.02-.77s-.53-.4-.74-.26c-.21.14-.22.49-.02.77m.241-2.61c.13.18.34.26.48.16.14-.09.14-.32.01-.5s-.34-.26-.48-.16c-.14.09-.14.32-.01.5zM35.742 20c.27.38.71.54.99.34.28-.19.29-.66.03-1.04-.27-.38-.71-.54-.99-.34s-.29.66-.03 1.04zm.018-2.97c.22.32.59.44.82.28.23-.16.24-.55.02-.86-.22-.32-.59-.44-.82-.28-.23.16-.24.55-.02.86zm.122-2.3c.2.29.55.41.76.26.21-.15.22-.51.02-.8-.2-.29-.55-.41-.76-.26-.21.15-.23.5-.02.8zm.037-2.26c.17.24.44.33.62.21.18-.12.18-.41.02-.65-.17-.24-.44-.33-.62-.21-.17.12-.18.41-.02.65zm-.012-2.11c.16.23.42.32.59.2.17-.11.17-.39.02-.62-.16-.23-.42-.32-.59-.2-.17.11-.17.39-.02.62zm-3.767 8.9c.39.56 1.04.78 1.46.5.41-.28.43-.97.04-1.53s-1.05-.79-1.46-.5c-.41.28-.43.97-.04 1.53zm.01-3.72c.33.48.89.67 1.25.43.35-.24.37-.83.03-1.31-.33-.48-.89-.67-1.25-.43-.35.24-.37.83-.03 1.3m.202-3.38c.27.39.73.55 1.01.35.29-.19.3-.67.03-1.06s-.73-.55-1.01-.35c-.29.2-.3.67-.03 1.06zm.08-3.07c.22.32.6.45.84.29.24-.16.25-.55.02-.88-.22-.32-.6-.45-.84-.29-.24.16-.25.56-.02.88zm.079-2.8c.19.27.51.38.71.24.2-.14.21-.47.02-.74s-.51-.38-.71-.24c-.2.14-.21.47-.02.74zm-4.223 12.61c.41.61 1.1.83 1.53.49.43-.34.45-1.12.04-1.73-.41-.61-1.1-.83-1.53-.49-.43.34-.45 1.12-.04 1.73zm.056-4.16c.37.55.99.75 1.38.44.39-.31.41-1.02.04-1.58-.37-.55-.99-.75-1.38-.44-.39.31-.41 1.02-.04 1.58zm.158-3.99c.32.48.87.66 1.21.38.34-.27.36-.89.03-1.38-.32-.48-.87-.66-1.21-.38-.34.28-.36.89-.03 1.38zm.068-3.78c.27.4.71.54.99.31.28-.23.29-.74.03-1.14-.27-.4-.71-.54-.99-.31-.28.23-.29.74-.03 1.14zm.101-3.35c.21.33.57.47.82.31.24-.16.27-.56.07-.89-.21-.33-.57-.46-.82-.31-.24.16-.27.56-.07.89zm-4.799 14.67c.53.77 1.43 1.07 1.99.69.56-.39.59-1.32.05-2.09-.54-.77-1.43-1.07-1.99-.69-.56.38-.59 1.32-.05 2.09zm.267-4.69c.48.61 1.2.78 1.62.4.41-.39.36-1.2-.12-1.81-.48-.61-1.21-.79-1.62-.4-.41.39-.36 1.2.12 1.81zm.148-4.12c.44.55 1.1.72 1.48.36.38-.35.33-1.1-.11-1.65-.44-.55-1.1-.72-1.48-.36-.38.36-.33 1.1.11 1.65zm.013-3.799c.39.5.99.64 1.32.32.34-.32.29-.98-.1-1.48s-.99-.64-1.32-.32c-.33.32-.29.98.1 1.48zm.101-3.871c.32.42.82.57 1.12.33.3-.24.28-.78-.04-1.21-.32-.42-.82-.57-1.12-.33-.3.24-.28.78.04 1.21zM21.44 16.66c-.63-.99-1.78-1.53-2.58-1.21-.79.32-.93 1.38-.3 2.37.63.99 1.79 1.53 2.58 1.21.79-.32.93-1.38.3-2.37zm-.217-5.04c-.55-.91-1.58-1.37-2.28-1.03-.7.34-.82 1.37-.27 2.28.55.91 1.58 1.37 2.28 1.03.7-.34.82-1.37.27-2.28zm-.195-4.08c-.42-.73-1.21-1.07-1.75-.76-.54.32-.63 1.17-.21 1.9.42.73 1.21 1.07 1.75.76.54-.32.63-1.17.2-1.9m-.242-3.8c-.35-.64-1-.91-1.45-.59-.44.32-.52 1.1-.17 1.74.35.64 1 .91 1.44.59.45-.32.52-1.1.17-1.74m.255-2.75c-.17-.55-.75-.99-1.28-.99s-.83.45-.65 1c.17.55.75.99 1.28.99s.83-.45.65-1zm-6.48.94c.25.42.71.62 1.03.46.32-.16.37-.64.12-1.05-.25-.42-.71-.62-1.03-.46-.32.16-.37.64-.12 1.05z"/><path d="M39.458 23.53c-.3.2-.77.04-1.05-.36-.2-.28-.24-.61-.15-.85h-1.3c.22.48.17.99-.17 1.22-.39.27-1.01.05-1.39-.48-.17-.24-.25-.5-.26-.74h-1.42c.24.49.19 1.02-.16 1.25-.39.27-1.01.05-1.38-.48-.17-.25-.26-.52-.26-.77h-1.66c.21.6.18 1.23-.15 1.6-.45.51-1.28.33-1.85-.39-.28-.36-.45-.79-.48-1.19h-1.08c.12.68.02 1.34-.36 1.77-.65.74-1.85.49-2.68-.57a3.61 3.61 0 01-.6-1.19h-1.47c.09.69-.03 1.34-.4 1.76-.7.79-1.98.52-2.85-.61-.27-.35-.47-.74-.59-1.14h-1.33c.24.7.19 1.42-.19 1.85-.54.61-1.52.4-2.2-.47-.32-.42-.51-.91-.57-1.37h-1.47c.19.59.15 1.19-.17 1.55-.46.52-1.3.34-1.87-.4-.27-.34-.43-.75-.48-1.14h-1.25c.13.48.06.94-.24 1.2-.42.36-1.14.14-1.59-.48-.16-.22-.26-.47-.31-.71h-1.46c.14.43.06.85-.23 1.05-.38.25-.98.03-1.33-.5-.12-.17-.19-.36-.22-.54h-1.21c0 .24-.07.46-.24.57-.32.21-.81.02-1.11-.42l-.09-.15h-.18l.02 29.39h39.59l.08-28.68c-.01.19-.08.35-.22.45m-38.41 5.13c-.13.09-.35.02-.48-.17-.13-.18-.12-.41.01-.5.13-.09.35-.02.48.17s.12.41-.01.5zm.13-2.42c-.21.14-.54.03-.74-.25-.2-.28-.19-.63.02-.77s.54-.03.74.25c.2.28.19.63-.02.77zm2.74 9.07c-.18.02-.41-.12-.5-.32-.1-.2-.03-.38.15-.41.18-.03.41.12.5.32.1.2.03.38-.15.41zm.02-1.93c-.2.03-.45-.13-.55-.35-.11-.22-.03-.42.17-.45.2-.03.45.13.55.35.11.22.03.42-.17.45zm.08-2c-.27.04-.62-.18-.76-.48s-.04-.58.23-.61c.27-.04.61.18.76.48.14.3.04.58-.23.61zm.01-2.4c-.32.04-.72-.21-.88-.56-.17-.35-.05-.67.27-.72.32-.04.71.21.88.56.17.35.05.67-.27.72zm.24-2.62c-.29.23-.75.07-1.02-.36s-.26-.96.04-1.18c.29-.23.75-.07 1.02.36.27.42.26.96-.04 1.18zm3.07 13.15c-.27.04-.6-.18-.74-.47s-.04-.57.23-.6c.27-.04.6.18.75.48.14.3.04.57-.23.6m.02-2.76c-.27.04-.6-.18-.75-.47-.14-.3-.04-.57.23-.6.27-.04.6.18.75.48.14.3.04.57-.23.6m.13-2.85c-.37.05-.84-.25-1.04-.66-.2-.41-.05-.79.32-.84.37-.05.84.25 1.03.66.2.41.05.79-.32.84m.04-2.96c-.44.08-1-.27-1.23-.78-.23-.51-.06-.99.38-1.07.45-.08 1 .27 1.23.78.24.51.06.99-.38 1.07zm.02-3.54c-.48.09-1.09-.3-1.34-.85-.26-.55-.07-1.08.41-1.16.48-.09 1.08.29 1.34.85s.07 1.08-.41 1.16zm3.56 15.08c-.23.12-.56-.03-.74-.33-.18-.3-.14-.64.09-.76s.56.03.74.33c.18.3.14.64-.09.76zm.2-2.91c-.31.16-.77-.04-1.01-.45-.25-.41-.19-.88.12-1.04.31-.16.77.04 1.01.45.25.41.19.88-.12 1.04zm.04-3.58c-.37.18-.91-.06-1.21-.55-.29-.48-.23-1.02.14-1.21.37-.18.91.06 1.21.55.29.48.23 1.02-.14 1.21zm.07-3.68c-.43.22-1.06-.06-1.4-.63-.34-.56-.27-1.2.17-1.42.44-.22 1.06.06 1.4.63.34.57.27 1.2-.17 1.42zm.01-4.11c-.46.31-1.14.03-1.5-.62-.37-.66-.29-1.45.18-1.76.46-.31 1.14-.03 1.5.62.36.66.29 1.45-.18 1.76zm3.93 16.42c-.32.16-.78-.04-1.03-.46-.25-.42-.2-.89.12-1.06.32-.16.78.04 1.03.46.25.42.2.89-.12 1.06zm.14-3.41c-.4.21-.98-.05-1.29-.58-.31-.52-.25-1.12.15-1.32.4-.21.98.05 1.29.58.31.52.25 1.12-.15 1.32zm.06-3.78c-.43.25-1.05-.02-1.39-.6-.34-.58-.26-1.27.16-1.52.43-.25 1.05.02 1.39.6.34.58.27 1.27-.16 1.52zm.16-3.88c-.51.3-1.26-.02-1.66-.72-.4-.7-.32-1.51.19-1.82.51-.3 1.26.02 1.66.72.4.7.32 1.51-.2 1.82m.12-4.39c-.58.37-1.43 0-1.9-.8-.46-.81-.36-1.77.22-2.14.58-.37 1.43 0 1.9.8.46.81.36 1.77-.22 2.14zm4.32 15.93c-.53 0-1.11-.44-1.28-.99-.17-.55.12-1 .65-1s1.11.44 1.28.99c.17.55-.12 1-.65 1zm.4-3.15c-.44.32-1.09.05-1.45-.59-.35-.64-.27-1.42.17-1.74.44-.32 1.09-.05 1.45.59.35.64.27 1.42-.17 1.74zm.05-3.63c-.54.32-1.32-.02-1.75-.76-.43-.73-.33-1.59.2-1.9.54-.32 1.32.03 1.75.76.42.73.33 1.59-.21 1.9m.33-3.81c-.7.34-1.72-.12-2.28-1.03-.56-.91-.43-1.93.27-2.28.7-.34 1.72.12 2.28 1.03.56.91.43 1.93-.27 2.28zm.08-4.86c-.79.32-1.95-.23-2.58-1.21-.63-.99-.49-2.05.3-2.37.79-.32 1.95.23 2.58 1.21.63.99.49 2.05-.3 2.37zm4.38 14.81c-.3.24-.8.09-1.12-.33-.32-.42-.34-.96-.04-1.21.3-.24.8-.09 1.12.33.32.42.34.96.04 1.21zm.15-3.38c-.34.32-.93.17-1.32-.32-.39-.5-.44-1.16-.1-1.48.34-.32.93-.17 1.32.32.39.5.44 1.16.1 1.48zm.1-3.78c-.38.35-1.04.19-1.48-.36-.44-.55-.49-1.29-.11-1.65.38-.36 1.04-.19 1.48.36.44.55.49 1.3.11 1.65zm.08-4.03c-.41.39-1.14.21-1.62-.4-.48-.61-.53-1.42-.12-1.81.41-.39 1.14-.21 1.62.4.48.61.53 1.42.12 1.81zm.17-4.19c-.56.39-1.46.08-1.99-.69-.53-.76-.51-1.7.05-2.09.56-.39 1.46-.08 1.99.69.53.76.51 1.7-.05 2.09zm3.5 13.59c-.24.16-.61.02-.82-.31-.21-.33-.18-.73.07-.89.24-.16.61-.02.82.31.21.33.18.72-.07.88m.05-3.07c-.28.23-.73.09-.99-.31-.27-.4-.26-.91.03-1.14.28-.23.73-.09.99.31.27.4.25.91-.03 1.14zm.1-3.51c-.34.27-.88.1-1.21-.38-.32-.48-.31-1.1.03-1.38.34-.27.88-.1 1.21.38.32.48.31 1.1-.03 1.38zm.1-3.8c-.39.31-1.01.12-1.38-.44-.37-.55-.35-1.26.04-1.58.39-.32 1.01-.12 1.38.44.37.55.35 1.26-.04 1.58zm.2-3.91c-.45.36-1.17.13-1.6-.51-.43-.64-.41-1.45.04-1.81.45-.36 1.17-.13 1.6.51.43.64.41 1.46-.04 1.81zm2.41 7.38c.24-.16.61-.03.84.29.22.32.21.72-.02.88-.24.16-.61.03-.84-.29-.22-.32-.21-.72.02-.88zm.84 3.83c-.2.14-.52.03-.71-.24-.19-.27-.18-.6.02-.74.2-.14.52-.03.7.24.19.27.18.6-.02.74m.14-5.53c-.29.2-.74.04-1.01-.35-.27-.39-.26-.86.03-1.06.29-.2.74-.04 1.01.35.27.39.26.86-.03 1.06zm.11-3.16c-.35.24-.91.05-1.25-.43-.33-.48-.32-1.06.03-1.31.35-.24.91-.05 1.25.43.33.48.32 1.07-.03 1.3m.12-3.46c-.41.28-1.07.05-1.46-.5-.39-.56-.37-1.24.04-1.52s1.07-.06 1.46.5c.39.56.37 1.24-.04 1.53m2.87 8.13c-.17.11-.43.02-.59-.2-.16-.23-.15-.5.02-.62.17-.11.43-.02.59.2.16.23.15.5-.02.62zm0-2.07c-.18.12-.45.02-.62-.21-.17-.24-.16-.53.02-.65.17-.12.45-.02.62.22.17.24.16.53-.02.65m.12-2.04c-.21.15-.56.03-.76-.26-.2-.29-.19-.65.02-.8.21-.15.56-.03.76.26.2.29.19.65-.02.8zm.05-2.5c-.23.16-.6.03-.82-.28-.22-.32-.21-.7.02-.86.23-.16.6-.03.82.28.22.32.21.7-.02.86zm.09-2.51c-.28.19-.73.04-.99-.34-.27-.38-.26-.85.03-1.04.28-.19.73-.04.99.34.27.38.26.85-.03 1.04zm2.67 2.23c-.14.09-.35.02-.48-.17-.13-.18-.12-.41.01-.5.14-.09.35-.02.48.17.13.18.12.41-.01.5zm.04-2.42c-.21.14-.54.03-.73-.25-.2-.28-.19-.63.02-.77s.54-.03.74.25c.2.28.19.63-.02.77"/></g><defs><clipPath id="clip0_2104_2055"><path fill="#fff" d="M0 0h39.68v51.76H0z"/></clipPath></defs></svg>