<svg width="40" height="52" fill="none" xmlns="http://www.w3.org/2000/svg"><path d="M33.02 33.2c-14.32 0-23.17-3.09-28.49-9.7-1.91-2.38-3.37-5.21-4.46-8.52v36.93l39.58-.07V35.68c-1.18-1.1-2.63-1.74-4.02-2.13-.88-.24-1.76-.36-2.61-.36" fill="#fff"/><path d="M39.58 32.13c-.79-4.65-2.1-9.49-4.27-13.94C29.87 7.02 20.44 1.36 7.29 1.36c-1.88 0-4.72 0-7.22-1.19C.05.16.02.15 0 .14c.02.32.05.62.07.93.75 9.56 2.64 15.89 5.94 20.32 4.82 6.47 13.15 9.35 27.01 9.35 2.24 0 4.54.63 6.56 1.92.03.02.07.04.1.06-.03-.19-.07-.39-.1-.58m-2.01-15.03c.3.62.59 1.25.86 1.88.37.86.7 1.72 1.01 2.59.09-.85.14-1.74.13-2.66-.03-4.19-1.24-10.02-6.86-14.05-.49-.35-.95-.76-1.35-1.21-.52 1.06-.93 2.19-1.11 3.36 3.13 2.9 5.51 6.38 7.31 10.09" fill="#fff"/></svg>