<svg width="40" height="52" fill="none" xmlns="http://www.w3.org/2000/svg"><path fill-rule="evenodd" clip-rule="evenodd" d="M19.84.15c.58 0 1.17 0 2.33.58-1.75 12.84-1.75 22.17-1.75 29.76h1.17c-.58-14 2.92-26.84 4.67-29.17 1.75 0 2.92.58 4.09 1.17-6.42 9.34-8.17 20.42-7.59 28.01h.58c-.58-12.25 6.42-22.17 10.5-26.26 1.17 1.17 2.34 1.75 2.92 2.92-8.75 4.67-12.84 14.59-12.25 23.34h1.17c-.58-6.42 5.84-20.42 14.01-19.84v41.25H0V10.65c8.76-.58 14.59 13.42 14.59 19.84h.58c1.17-8.75-3.5-18.67-12.25-23.34.58-1.17 1.75-1.75 2.92-2.92 4.08 4.08 11.09 14 10.5 26.26h1.17c0-7.58-1.75-18.67-8.17-28.01 1.17-.58 2.92-1.17 4.09-1.17 1.75 2.33 5.25 15.17 4.67 29.17h1.17c0-7.58 0-16.92-1.17-29.76.58-.58 1.17-.58 1.75-.58" fill="#fff"/></svg>