<svg width="40" height="53" fill="none" xmlns="http://www.w3.org/2000/svg"><path d="M32.954 6.77S22.544.87 19.674.87c-2.87 0-12.95 5.9-12.95 5.9-7.13 3.77-6.72 9.64-6.72 11.2v34.44h39.68V17.97c0-1.56.41-7.43-6.72-11.2m6 26.83c-3.74-2.03-18.48-10.01-19.57-10.6-1.09.59-15.13 8.21-18.69 10.15v-3.17l18.69-10.15 19.57 10.63v3.14zm0 9.36c-3.74-2.03-18.48-10.01-19.57-10.6-1.09.59-15.13 8.21-18.69 10.15v-3.17l18.69-10.15 19.57 10.63v3.15-.01zm-19.57-29.31c-1.01.55-14.04 7.59-18.78 10.15v-3.17l18.78-10.14 19.6 10.54.03 3.18c-4.07-2.19-18.56-9.98-19.63-10.55" fill="#fff"/></svg>