<svg width="123" height="83" fill="none" xmlns="http://www.w3.org/2000/svg"><path d="M82.62 26.105a28.286 28.286 0 00-14.85 4.198l-.175.105c-2.724 1.66-3.671 5.18-2.104 7.974a5.944 5.944 0 008.09 2.28l.211-.14a16.613 16.613 0 018.828-2.55c9.131 0 16.567 7.437 16.567 16.569 0 9.131-7.436 16.567-16.567 16.567-4.022 0-7.717-1.45-10.593-3.835a5.947 5.947 0 00-8.337.14c-2.303 2.34-2.268 6.116.07 8.419l.035.035c.176.175.363.327.562.468 4.945 4.15 11.318 6.664 18.274 6.664 15.715 0 28.447-12.733 28.447-28.447 0-15.714-12.732-28.447-28.447-28.447" fill="#575756"/><path d="M118.265 13.01c-3.134-.923-6.372.632-7.202 3.45l-1.696 5.764 1.929 26.109c.433 2.01.667 4.092.667 6.232 0 .339-.012.69-.024 1.028l10.512-35.778c.83-2.817-1.053-5.88-4.186-6.793" fill="#F4A6B4"/><path d="M104.026 34.513L86.348 2.605C84.921.033 81.426-.775 78.573.815c-2.853 1.58-4.034 4.982-2.608 7.554l9.412 16.989c7.332.69 13.89 4.08 18.661 9.166" fill="#EA505D"/><path d="M108.577 40.862l.035.059.023.07a29.117 29.117 0 011.462 3.262l-2.678-36.34c-.21-2.934-3.063-5.132-6.314-4.886-3.262.233-5.74 2.829-5.53 5.764l.737 9.938 12.007 21.677c.047.094.106.187.152.28l.106.188v-.012z" fill="#F6D52C"/><path d="M14.92 53.42c0 1.076-.13 2.082-.398 3.029a8.26 8.26 0 01-1.205 2.549 7.846 7.846 0 01-2.01 1.964 9.29 9.29 0 01-2.819 1.274c-.62.176-1.274.293-1.999.363-.713.07-1.485.105-2.327.105H0V44.301h4.21c.83 0 1.613.035 2.326.105.713.07 1.38.187 1.988.363 1.075.303 2.01.724 2.817 1.262a7.636 7.636 0 012 1.918 7.896 7.896 0 011.18 2.49c.258.924.398 1.918.398 2.982zm-2.234 0c0-1.765-.386-3.203-1.17-4.302-.783-1.1-1.905-1.883-3.355-2.339a9.475 9.475 0 00-1.87-.362 27.52 27.52 0 00-2.327-.093h-1.72V60.68h1.72c.865 0 1.637-.035 2.326-.093a8.705 8.705 0 001.871-.363c1.462-.456 2.572-1.262 3.356-2.408.783-1.146 1.169-2.62 1.169-4.396zm12.403-9.12h-2.245v18.404h2.245V44.301zm18.373 18.404h-1.029l-4.642-10.99a95.353 95.353 0 01-1.929-4.934h-.105c.129 2.56.199 4.898.199 7.026v8.898H33.71V44.301h3.239l4.337 10.406a96.125 96.125 0 011.672 4.396c.667-1.86 1.24-3.39 1.672-4.396L48.97 44.3h3.227v18.403h-2.245v-8.898c0-2.08.07-4.42.199-7.026h-.117a85.275 85.275 0 01-1.93 4.934l-4.63 10.99h-.01zm19.58-2.023h9.435v2.023h-11.68V44.301h11.178v2.023h-8.933v5.94h7.939v2.022h-7.94v6.395zm19.027-11.519c0 .538.105.994.327 1.345.222.35.515.643.889.877.374.233.795.42 1.286.56.491.153.994.281 1.532.41a39.57 39.57 0 012.104.573c.69.21 1.31.503 1.848.877.537.374.97.853 1.309 1.45.34.596.503 1.368.503 2.291 0 .924-.176 1.777-.538 2.467a4.788 4.788 0 01-1.497 1.707c-.643.445-1.391.772-2.268.994a12.145 12.145 0 01-4.326.234 12.95 12.95 0 01-1.426-.245 11.4 11.4 0 01-1.228-.34 4.79 4.79 0 01-.865-.385V59.93a9.11 9.11 0 001.11.456c.41.14.842.258 1.275.351.444.094.889.176 1.333.234.444.059.865.082 1.263.082.643 0 1.25-.059 1.835-.164a4.569 4.569 0 001.532-.55 2.81 2.81 0 001.04-1.052c.258-.444.386-1.005.386-1.672 0-.55-.117-1.005-.339-1.356a2.727 2.727 0 00-.9-.889 5.51 5.51 0 00-1.298-.572 36.46 36.46 0 00-1.543-.41 28.883 28.883 0 01-2.093-.56 6.967 6.967 0 01-1.836-.854 4.187 4.187 0 01-1.298-1.415c-.327-.573-.49-1.31-.49-2.21 0-.9.175-1.742.514-2.408a4.724 4.724 0 011.391-1.672c.585-.445 1.263-.76 2.023-.97a9.12 9.12 0 012.432-.317c.982 0 1.894.094 2.748.281A12.62 12.62 0 0191.13 45v2.08a15.969 15.969 0 00-2.362-.782 11.621 11.621 0 00-2.607-.316c-.701 0-1.298.082-1.812.222-.515.152-.936.362-1.275.643-.339.28-.596.62-.76 1.017a3.472 3.472 0 00-.245 1.333" fill="#575756"/></svg>