<svg width="180" height="122" fill="none" xmlns="http://www.w3.org/2000/svg"><path d="M99.126 44.385a41.392 41.392 0 0121.738-6.15v.071a41.607 41.607 0 0119.223 4.712c5.928 3.058 11.03 7.554 14.875 13.022 3.808 5.503 6.288 11.834 7.15 18.453.862 6.654.144 13.417-2.156 19.711a41.625 41.625 0 01-10.959 16.439c-4.958 4.532-10.887 7.805-17.354 9.532-6.467 1.727-13.222 1.907-19.762.432a41.377 41.377 0 01-17.75-8.741 7.83 7.83 0 01-.826-.719l-.036-.036c-1.653-1.619-2.623-3.813-2.659-6.115-.035-2.303.827-4.569 2.444-6.223a8.909 8.909 0 016.108-2.662 8.861 8.861 0 016.216 2.446c3.413 2.877 7.581 4.712 12.001 5.359 4.419.648 8.946.036 13.042-1.726 4.096-1.763 7.618-4.64 10.205-8.273a24.194 24.194 0 004.383-12.41 24.28 24.28 0 00-2.731-12.878 24.39 24.39 0 00-9.054-9.568c-3.809-2.302-8.228-3.453-12.683-3.417-4.456.072-8.839 1.331-12.612 3.741-.108.036-.18.108-.323.18-1.977 1.115-4.312 1.367-6.504.755-2.192-.575-4.024-2.014-5.174-3.992-1.15-1.943-1.473-4.281-.934-6.475.539-2.23 1.94-4.1 3.88-5.324l.252-.144zm73.878-25.324c-4.599-1.33-9.342.935-10.564 5.036l-2.479 8.453 2.838 38.237a43.59 43.59 0 01.971 9.136c0 .504 0 1.007-.036 1.51l15.378-52.408c1.221-4.137-1.545-8.597-6.108-9.964z" fill="#C1C9CA"/><path d="M152.173 50.571L126.303 3.81c-2.084-3.777-7.186-4.928-11.39-2.626-4.168 2.302-5.893 7.302-3.809 11.043l13.762 24.891c10.455.971 20.157 5.791 27.307 13.453z" fill="#FF5962"/><path d="M158.793 59.852l.036.108.036.108a42.297 42.297 0 012.155 4.748l-3.916-53.237c-.323-4.316-4.455-7.482-9.234-7.158-4.743.36-8.408 4.173-8.085 8.453l1.078 14.568 17.57 31.726.216.432.144.252z" fill="#FAD251"/><path fill-rule="evenodd" clip-rule="evenodd" d="M21.81 78.266c0 1.475-.18 2.986-.575 4.424a13.208 13.208 0 01-1.76 3.741 12.44 12.44 0 01-2.947 2.878 14.313 14.313 0 01-4.132 1.87c-.958.264-1.928.444-2.91.54-1.042.072-2.156.144-3.414.144H0V64.885h6.144c1.222 0 2.36.06 3.413.18.983.072 1.953.24 2.91.504 1.474.395 2.84 1.043 4.097 1.87a11.47 11.47 0 012.946 2.806c.755 1.115 1.366 2.338 1.725 3.633.395 1.439.575 2.913.575 4.388zm-3.27 0a10.568 10.568 0 00-1.725-6.295 9.173 9.173 0 00-4.886-3.453 13.063 13.063 0 00-2.73-.504c-1.007-.107-2.157-.143-3.378-.143H3.27v21.006h2.515c1.27 0 2.407-.048 3.413-.143.91-.072 1.82-.24 2.73-.504a9.11 9.11 0 004.887-3.525c1.222-1.943 1.833-4.173 1.725-6.439zm73.693 10.611h13.798v2.95H88.928V64.885h16.348v2.95H92.233v8.705h11.606v2.985H92.233v9.352zm27.811-16.87c-.036.684.143 1.367.467 1.979.323.503.79.935 1.293 1.259a7.91 7.91 0 001.904.827c.719.216 1.438.431 2.228.611 1.054.264 2.084.54 3.09.828.97.288 1.869.72 2.695 1.295.79.54 1.437 1.295 1.904 2.122a6.465 6.465 0 01.719 3.381c.036 1.223-.216 2.482-.791 3.597a6.9 6.9 0 01-2.191 2.482c-1.006.684-2.12 1.187-3.306 1.439-1.365.324-2.767.504-4.204.468a21.66 21.66 0 01-2.156-.108c-.718-.108-1.437-.216-2.084-.36a25.301 25.301 0 01-1.796-.504 6.61 6.61 0 01-1.258-.575v-2.986a13.59 13.59 0 001.617.684 26.9 26.9 0 001.869.503c.646.144 1.305.252 1.976.324.599.096 1.209.144 1.832.144.91 0 1.809-.084 2.695-.252.79-.144 1.545-.396 2.228-.827.646-.36 1.185-.863 1.545-1.51a4.874 4.874 0 00.539-2.447c.036-.72-.108-1.403-.467-2.014a4.45 4.45 0 00-1.294-1.295 7.915 7.915 0 00-1.904-.828 43.696 43.696 0 00-2.264-.611 58.072 58.072 0 01-3.09-.791 10.605 10.605 0 01-2.659-1.26 6.23 6.23 0 01-1.904-2.086 6.773 6.773 0 01-.719-3.237 8.106 8.106 0 01.719-3.561c.503-.935 1.186-1.799 2.048-2.446.898-.647 1.868-1.151 2.946-1.439 1.15-.288 2.372-.468 3.557-.431a18.191 18.191 0 017.438 1.474v3.058a22.428 22.428 0 00-3.449-1.151 15.339 15.339 0 00-3.809-.468c-.898-.036-1.796.108-2.659.324a5.083 5.083 0 00-1.868.935 3.54 3.54 0 00-1.114 1.51 4.511 4.511 0 00-.323 1.943z" fill="#2E3030"/><path d="M33.406 63.887h-1v28.978h5.27V63.887h-4.27zm30.146 28.942h.666l.256-.614 6.753-16.145c.275-.634.556-1.301.842-2.002-.045 1.663-.067 3.23-.067 4.703V92.83h5.305V63.887h-6.41l-.256.616-6.324 15.215h0l-.003.01a163.957 163.957 0 00-1.512 3.897 143.807 143.807 0 00-1.522-3.9h0l-.002-.007-6.324-15.215-.256-.616h-6.41v28.978h5.27V78.807c0-1.496-.023-3.063-.067-4.7.279.682.559 1.35.842 2l6.788 16.11.258.612h2.173z" fill="#2E3030" stroke="#2E3030" stroke-width="2"/></svg>