<svg width="1197" height="1197" fill="none" xmlns="http://www.w3.org/2000/svg"><path d="M1167.09 780.332a1.543 1.543 0 011 1.938 598.513 598.513 0 01-554.677 414.54A598.492 598.492 0 0138.23 808.975 598.5 598.5 0 01906.206 85.159c.731.438.966 1.385.526 2.114a1.544 1.544 0 01-2.117.526A595.417 595.417 0 10613.336 1193.73a595.454 595.454 0 00342.224-118.75 595.42 595.42 0 00209.59-293.649 1.546 1.546 0 011.94-.999z" fill="#F4F4F4"/><path d="M472.777 987.754a1.862 1.862 0 01-2.347 1.206 411.525 411.525 0 01-284.271-381.145A411.524 411.524 0 01452.836 212.32a411.526 411.526 0 01555.074 354.154 411.529 411.529 0 01-56.965 241.972 1.862 1.862 0 01-2.56.638 1.876 1.876 0 01-.638-2.567 407.805 407.805 0 0056.443-239.761 407.82 407.82 0 00-93.109-229.961 407.794 407.794 0 00-721.189 270.927 407.797 407.797 0 00281.675 377.681 1.874 1.874 0 011.21 2.351z" fill="#F4F4F4"/><path d="M446.865 431.363a1.712 1.712 0 01.121-2.428 227.627 227.627 0 01260.688-30.302 227.63 227.63 0 0152.57 360.391 227.63 227.63 0 01-260.037 44.688 227.626 227.626 0 01-99.821-93.608 1.712 1.712 0 01.669-2.337 1.733 1.733 0 012.346.672 224.184 224.184 0 00233.376 111.053 224.186 224.186 0 0069.25-417.834 224.182 224.182 0 00-256.725 29.826 1.732 1.732 0 01-2.437-.121z" fill="#F4F4F4"/></svg>