<svg width="50" height="48" fill="none" xmlns="http://www.w3.org/2000/svg"><g clip-path="url(#clip0_2071_1280)" fill="#049EFC"><path fill-rule="evenodd" clip-rule="evenodd" d="M33.147 18.085c1.295.932 2.386 2.528 1.854 4.175-.345 1.063-1.961.534-1.617-.526.23-.715-.332-1.492-.833-1.958l-.916 1.78c1.2.946 2.163 2.457 1.656 4.026-.345 1.062-1.961.534-1.617-.526.23-.715-.332-1.492-.833-1.959l-.916 1.78c1.2.946 2.163 2.457 1.656 4.027-.345 1.062-1.961.533-1.616-.527.23-.714-.333-1.492-.834-1.958l-.916 1.78c1.2.946 2.163 2.457 1.656 4.026-.345 1.063-1.961.534-1.616-.526.23-.715-.333-1.492-.834-1.958l-.916 1.78c1.2.946 2.163 2.457 1.656 4.026-.345 1.062-1.961.534-1.616-.526.233-.723-.346-1.513-.856-1.979-2.963 4.44-9.877.88-7.986-4.11-.676-.145-1.654-.158-2.107.453-.662.896-2.031-.112-1.367-1.01.983-1.326 2.77-1.419 4.239-.992l.916-1.78c-.67-.136-1.63-.143-2.078.46-.662.896-2.031-.111-1.367-1.01.983-1.325 2.77-1.418 4.239-.992l.916-1.78c-.67-.136-1.63-.142-2.078.46-.662.897-2.031-.111-1.367-1.01.983-1.325 2.77-1.418 4.239-.992l.916-1.779c-.67-.137-1.63-.143-2.078.46-.662.896-2.031-.112-1.367-1.01.983-1.325 2.77-1.419 4.239-.992l.916-1.78c-.67-.136-1.63-.143-2.078.46-.662.896-2.031-.111-1.367-1.01 1.03-1.39 2.964-1.43 4.475-.918 3.098-2.964 8.216-.33 7.603 3.915zm-12.8 17.386c.72.37 1.003 1.253.634 1.97-.37.718-1.253 1-1.973.63a1.465 1.465 0 01-.634-1.971c.37-.718 1.253-1 1.973-.63zm4.129.357a.982.982 0 11-.898 1.744.982.982 0 11.898-1.744zm-8.428-4.94a.982.982 0 11-.895 1.743.982.982 0 01.895-1.742zM25.14 9.697a1.469 1.469 0 01.636 1.977 1.469 1.469 0 01-1.978.63 1.469 1.469 0 01-.636-1.976 1.469 1.469 0 011.978-.63zm10.37 2.778a1.469 1.469 0 01.635 1.977 1.47 1.47 0 01-2.614-1.346 1.468 1.468 0 011.978-.63zm.374 4.2a.915.915 0 11-.836 1.628.915.915 0 01.836-1.628zm-7.745.73a2 2 0 01.866 2.69 2 2 0 01-2.694.86 2 2 0 01-.865-2.692 2 2 0 012.693-.859zm-2.412 9.038c.72.37 1.004 1.254.634 1.971a1.464 1.464 0 01-2.606-1.342 1.464 1.464 0 011.972-.628zM21.46 29.56a1.463 1.463 0 11-1.338 2.601 1.464 1.464 0 01-.634-1.971c.37-.719 1.253-1 1.972-.63z"/><path fill-rule="evenodd" clip-rule="evenodd" d="M39.5 38.5c8.008-8.008 8.008-20.992 0-29s-20.992-8.008-29 0-8.008 20.992 0 29 20.992 8.008 29 0zm-3.762-3.76c5.932-5.931 5.932-15.549 0-21.48-5.932-5.933-15.55-5.933-21.482 0-5.932 5.931-5.932 15.549 0 21.48 5.932 5.933 15.55 5.933 21.482 0z"/><path fill-opacity=".5" d="M9 11.578l3.154-3.154 26.852 26.851-3.154 3.155z"/></g><defs><clipPath id="clip0_2071_1280"><path fill="#fff" d="M0 0h50v48H0z"/></clipPath></defs></svg>