<svg width="47" height="48" fill="none" xmlns="http://www.w3.org/2000/svg"><g fill="#049EFC"><path d="M26.673 39.09h8.66v4.912H12.85v-4.913h7.744v-2.248L9.188 30.263l1.831-3.164 11.408 6.578h4.246a7.64 7.64 0 007.66-7.66 7.672 7.672 0 00-3.497-6.412c.833-.832 1.332-1.915 1.332-3.164 3.33 1.916 5.58 5.496 5.58 9.576 0 6.078-4.997 11.074-11.075 11.074v1.998z"/><path d="M25.014 20.272a4.687 4.687 0 01-2.332-4.08c0-3.58 3.914-5.912 7.078-4.163l.832-1.499-7.66-4.413-6.494 11.24 7.577 4.414.999-1.499zm-4.419 3.383l1.249-2.163-3.894-2.248-1.249 2.163 3.894 2.248zm10.01-17.407L26.71 4l-1.249 2.163 3.894 2.248 1.249-2.163z"/><path d="M30.583 16.19c0-1.665-1.415-3.08-3.08-3.08-1.666 0-3.081 1.415-3.081 3.08s1.415 3.08 3.08 3.08c1.666 0 3.081-1.415 3.081-3.08zm-4.496 0c0-.75.583-1.415 1.416-1.415.749 0 1.415.582 1.415 1.415 0 .833-.583 1.416-1.415 1.416-.75-.084-1.416-.667-1.416-1.416z"/></g></svg>