<svg width="48" height="48" fill="none" xmlns="http://www.w3.org/2000/svg"><path d="M37.291 29.618l-.02-.306c-.022-.34-.063-.68-.112-1.028-.014-.069-.021-.13-.035-.2a6.094 6.094 0 00-.084-.5c0-.02-.007-.035-.014-.056C35.073 17.23 23.562 4 23.562 4S12.053 17.23 10.1 27.528c-.008.02-.014.035-.014.055a6.272 6.272 0 00-.084.5c-.014.07-.021.132-.035.201-.049.347-.09.688-.112 1.028l-.02.306c-.014.229-.021.465-.021.694C9.813 37.876 15.965 44 23.563 44c7.597 0 13.75-6.124 13.75-13.688 0-.228-.008-.465-.022-.694zm-5.35 6.66a.214.214 0 01-.035.048c-.132.16-.216.243-.216.243l-.007-.007a1.88 1.88 0 01-1.332.556 1.91 1.91 0 01-1.912-1.903c0-.52.21-.986.545-1.333l.055-.056c5.01-5.042 3-10.861 2.881-11.201 4.213 7.639 1.005 12.459.021 13.653z" fill="#049EFC"/></svg>