<svg width="48" height="48" fill="none" xmlns="http://www.w3.org/2000/svg"><path d="M4.57 17c1.115 0 2.075.23 2.88.693.805.462 1.425 1.137 1.862 2.026.437.878.656 1.975.656 3.291 0 1.398-.265 2.581-.794 3.551-.517.97-1.235 1.71-2.155 2.217-.92.508-1.99.762-3.208.762a7.96 7.96 0 01-1.828-.207 4.767 4.767 0 01-1.517-.624L1.5 26.648c.334.23.69.392 1.07.485a5.7 5.7 0 001.19.121c1.034 0 1.856-.318 2.465-.953.621-.635.932-1.576.932-2.823 0-.208-.006-.439-.018-.693a5.726 5.726 0 00-.086-.762l.759.728a3.17 3.17 0 01-.828 1.143c-.356.3-.77.53-1.241.693-.472.15-1 .225-1.587.225-.77 0-1.472-.156-2.104-.468a3.858 3.858 0 01-1.5-1.316C.184 22.462 0 21.798 0 21.036c0-.832.201-1.548.604-2.148a4.06 4.06 0 011.655-1.386A5.293 5.293 0 014.57 17zm.172 2.096a2.32 2.32 0 00-1.052.225 1.614 1.614 0 00-.707.624c-.172.265-.258.583-.258.952 0 .555.184 1 .552 1.334.379.323.88.485 1.5.485.402 0 .759-.075 1.07-.225a1.8 1.8 0 00.74-.658c.173-.278.26-.59.26-.936 0-.346-.087-.652-.26-.918a1.597 1.597 0 00-.706-.64c-.31-.162-.69-.243-1.139-.243zM15.205 17c1.115 0 2.075.23 2.88.693.805.462 1.426 1.137 1.863 2.026.437.878.655 1.975.655 3.291 0 1.398-.264 2.581-.793 3.551-.518.97-1.236 1.71-2.156 2.217-.92.508-1.989.762-3.207.762a7.947 7.947 0 01-1.828-.207 4.767 4.767 0 01-1.518-.624l1.035-2.061c.333.23.69.392 1.069.485a5.7 5.7 0 001.19.121c1.035 0 1.857-.318 2.466-.953.62-.635.931-1.576.931-2.823 0-.208-.006-.439-.017-.693a5.726 5.726 0 00-.086-.762l.758.728c-.195.45-.471.831-.827 1.143-.357.3-.77.53-1.242.693-.471.15-1 .225-1.587.225-.77 0-1.471-.156-2.104-.468a3.858 3.858 0 01-1.5-1.316c-.368-.566-.552-1.23-.552-1.992 0-.832.202-1.548.604-2.148a4.06 4.06 0 011.655-1.386A5.293 5.293 0 0115.206 17zm.173 2.096c-.403 0-.753.075-1.052.225a1.614 1.614 0 00-.707.624c-.173.265-.259.583-.259.952 0 .555.184 1 .552 1.334.38.323.88.485 1.5.485.403 0 .76-.075 1.07-.225a1.8 1.8 0 00.741-.658c.172-.278.259-.59.259-.936 0-.346-.087-.652-.259-.918a1.597 1.597 0 00-.707-.64c-.31-.162-.69-.243-1.138-.243zM21.483 32l1.138-4.157.38 1.559c-.495 0-.903-.145-1.225-.433-.31-.289-.465-.687-.465-1.195s.16-.913.482-1.213c.322-.3.719-.45 1.19-.45.483 0 .88.156 1.19.467.31.3.466.7.466 1.196 0 .15-.012.3-.035.45a3.581 3.581 0 01-.138.52 6.5 6.5 0 01-.293.762L23.19 32h-1.707zm6.201-9.715c.637 0 1.186.132 1.646.396.46.264.814.65 1.064 1.158.25.502.374 1.129.374 1.88 0 .8-.15 1.476-.453 2.03a3.048 3.048 0 01-1.232 1.267c-.525.29-1.136.435-1.833.435-.361 0-.71-.04-1.044-.118a2.724 2.724 0 01-.867-.357l.59-1.178c.191.132.395.225.612.278.217.046.443.069.68.069.591 0 1.06-.182 1.409-.544.355-.363.532-.901.532-1.614 0-.119-.003-.25-.01-.396a3.277 3.277 0 00-.05-.435l.434.415a1.8 1.8 0 01-.473.654 2.21 2.21 0 01-.709.396 2.98 2.98 0 01-.907.128c-.44 0-.84-.089-1.202-.267a2.204 2.204 0 01-.857-.752 2.041 2.041 0 01-.316-1.138c0-.476.115-.885.345-1.228a2.32 2.32 0 01.946-.792c.401-.19.841-.287 1.32-.287zm.098 1.198c-.23 0-.43.043-.6.129a.922.922 0 00-.405.356.977.977 0 00-.148.544c0 .317.106.571.316.762.217.185.502.278.857.278.23 0 .434-.043.611-.129.184-.092.325-.218.424-.376a.99.99 0 00.148-.535.941.941 0 00-.148-.524.912.912 0 00-.404-.366 1.395 1.395 0 00-.65-.139zm5.979-1.198c.637 0 1.186.132 1.646.396.46.264.815.65 1.064 1.158.25.502.375 1.129.375 1.88 0 .8-.151 1.476-.454 2.03a3.048 3.048 0 01-1.231 1.267c-.526.29-1.137.435-1.833.435-.362 0-.71-.04-1.045-.118a2.723 2.723 0 01-.867-.357l.591-1.178c.19.132.394.225.611.278.217.046.444.069.68.069.591 0 1.061-.182 1.41-.544.354-.363.531-.901.531-1.614 0-.119-.003-.25-.01-.396a3.276 3.276 0 00-.049-.435l.434.415c-.112.258-.27.476-.473.654-.204.171-.44.303-.71.396a2.98 2.98 0 01-.906.128c-.44 0-.841-.089-1.203-.267a2.204 2.204 0 01-.857-.752 2.041 2.041 0 01-.315-1.138c0-.476.115-.885.345-1.228a2.32 2.32 0 01.946-.792c.4-.19.84-.287 1.32-.287zm.099 1.198c-.23 0-.43.043-.601.129a.923.923 0 00-.404.356.978.978 0 00-.148.544c0 .317.105.571.315.762.217.185.503.278.858.278.23 0 .433-.043.61-.129.184-.092.326-.218.424-.376a.99.99 0 00.148-.535.942.942 0 00-.148-.524.913.913 0 00-.404-.366 1.395 1.395 0 00-.65-.139zm7.143 5.85l4.71-6.929h1.173l-4.71 6.929h-1.173zm.602-3.188c-.335 0-.631-.075-.887-.227a1.7 1.7 0 01-.611-.663 2.26 2.26 0 01-.217-1.02c0-.39.072-.726.217-1.01a1.7 1.7 0 01.61-.663 1.66 1.66 0 01.888-.237c.335 0 .63.08.886.238.257.158.457.379.602.663.144.283.216.62.216 1.01 0 .389-.072.728-.216 1.019a1.63 1.63 0 01-.602.663 1.707 1.707 0 01-.886.227zm0-.811c.216 0 .39-.09.522-.267.131-.185.197-.462.197-.832 0-.37-.066-.643-.197-.821a.612.612 0 00-.523-.277.628.628 0 00-.522.277c-.131.178-.197.452-.197.821 0 .363.066.637.197.822a.628.628 0 00.523.277zm4.68 4.078a1.74 1.74 0 01-.886-.228 1.63 1.63 0 01-.602-.663 2.262 2.262 0 01-.216-1.02c0-.389.072-.725.216-1.01a1.63 1.63 0 01.602-.662c.262-.159.558-.238.886-.238.342 0 .64.08.897.238.256.158.457.38.601.663.145.284.217.62.217 1.01 0 .389-.072.729-.217 1.019a1.63 1.63 0 01-.6.663 1.726 1.726 0 01-.898.228zm0-.812a.62.62 0 00.523-.267c.131-.185.197-.462.197-.831 0-.363-.066-.637-.197-.822a.611.611 0 00-.523-.277.628.628 0 00-.522.277c-.131.178-.197.452-.197.822 0 .369.066.646.197.83a.634.634 0 00.522.268z" fill="#049EFC"/></svg>