<svg width="730" height="660" fill="none" xmlns="http://www.w3.org/2000/svg"><path d="M619.687 414.818a2.275 2.275 0 011.474 2.873A318.5 318.5 0 11480.99 44.567a2.275 2.275 0 01.783 3.133 2.3 2.3 0 01-3.144.784A313.929 313.929 0 0015.03 238.152a313.928 313.928 0 00491.725 331.565 313.926 313.926 0 00110.049-153.419 2.3 2.3 0 012.883-1.48z" fill="#F4F4F4"/><path d="M251.947 524.548a2.132 2.132 0 01-2.697 1.381 218.999 218.999 0 01124.802-419.634 218.997 218.997 0 01132.597 322.937 2.133 2.133 0 01-2.94.737 2.165 2.165 0 01-.739-2.955 214.7 214.7 0 00-19.9-246.308 214.706 214.706 0 00-240.575-63.696 214.706 214.706 0 008.063 404.827 2.165 2.165 0 011.389 2.711z" fill="#F4F4F4"/><path d="M255.516 249.045c-10.123-11.138-9.394-28.7 3.722-36.083a121.134 121.134 0 01168.292 52.441 121.14 121.14 0 01-88.352 172.507 121.135 121.135 0 01-110.818-38.64c-10.033-11.22-5.057-28.078 8.117-35.355 13.175-7.277 29.562-1.831 41.478 7.363a66.63 66.63 0 0087.963-5.778 66.635 66.635 0 00-68.767-110.043c-14.245 4.858-31.513 4.726-41.635-6.412z" fill="#F4F4F4"/><g filter="url(#filter0_f)"><path d="M669.582 272.814c-8.261-30.83-39.938-49.119-70.769-40.858-30.83 8.261-49.119 39.938-40.858 70.768 8.261 30.831 39.938 49.12 70.769 40.859 30.752-8.127 49.148-39.833 40.858-70.769z" fill="#F4F4F4"/></g><path d="M662.582 270.178c-8.261-30.83-39.938-49.119-70.769-40.858-30.83 8.261-49.119 39.938-40.858 70.769 8.261 30.83 39.938 49.119 70.769 40.858 30.752-8.126 49.148-39.832 40.858-70.769z" fill="#fff"/><path d="M662.582 270.178c-8.261-30.83-39.938-49.119-70.769-40.858-30.83 8.261-49.119 39.938-40.858 70.769 8.261 30.83 39.938 49.119 70.769 40.858 30.752-8.126 49.148-39.832 40.858-70.769z" fill="url(#paint0_linear)" fill-opacity=".5"/><path d="M662.582 270.178c-8.261-30.83-39.938-49.119-70.769-40.858-30.83 8.261-49.119 39.938-40.858 70.769 8.261 30.83 39.938 49.119 70.769 40.858 30.752-8.126 49.148-39.832 40.858-70.769z" fill="url(#paint1_linear)"/><path d="M662.582 270.178c-8.261-30.83-39.938-49.119-70.769-40.858-30.83 8.261-49.119 39.938-40.858 70.769 8.261 30.83 39.938 49.119 70.769 40.858 30.752-8.126 49.148-39.832 40.858-70.769z" fill="url(#paint2_radial)"/><g filter="url(#filter1_f)"><path d="M174.141 581.979c-3.162-11.803-15.29-18.805-27.093-15.642-11.803 3.162-18.805 15.29-15.643 27.093 3.163 11.804 15.291 18.805 27.094 15.643 11.773-3.111 18.816-15.25 15.642-27.094z" fill="#F4F4F4"/></g><path d="M171.462 580.97c-3.163-11.803-15.291-18.805-27.094-15.642-11.803 3.163-18.805 15.29-15.642 27.093 3.162 11.804 15.29 18.806 27.093 15.643 11.774-3.111 18.816-15.25 15.643-27.094z" fill="#fff"/><path d="M171.462 580.97c-3.163-11.803-15.291-18.805-27.094-15.642-11.803 3.163-18.805 15.29-15.642 27.093 3.162 11.804 15.29 18.806 27.093 15.643 11.774-3.111 18.816-15.25 15.643-27.094z" fill="url(#paint3_linear)" fill-opacity=".5"/><path d="M171.462 580.97c-3.163-11.803-15.291-18.805-27.094-15.642-11.803 3.163-18.805 15.29-15.642 27.093 3.162 11.804 15.29 18.806 27.093 15.643 11.774-3.111 18.816-15.25 15.643-27.094z" fill="url(#paint4_linear)"/><path d="M171.462 580.97c-3.163-11.803-15.291-18.805-27.094-15.642-11.803 3.163-18.805 15.29-15.642 27.093 3.162 11.804 15.29 18.806 27.093 15.643 11.774-3.111 18.816-15.25 15.643-27.094z" fill="url(#paint5_radial)"/><defs><linearGradient id="paint0_linear" x1="925.786" y1="2140.63" x2="560.515" y2="16.691" gradientUnits="userSpaceOnUse"><stop offset=".001" stop-color="#fff"/><stop offset=".998" stop-color="#fff"/></linearGradient><linearGradient id="paint1_linear" x1="561.235" y1="261.027" x2="702" y2="370" gradientUnits="userSpaceOnUse"><stop offset=".127" stop-color="#fff" stop-opacity=".56"/><stop offset="1" stop-color="#fff" stop-opacity="0"/></linearGradient><linearGradient id="paint3_linear" x1="272.228" y1="1297.06" x2="132.386" y2="483.924" gradientUnits="userSpaceOnUse"><stop offset=".001" stop-color="#fff"/><stop offset=".998" stop-color="#fff"/></linearGradient><linearGradient id="paint4_linear" x1="132.661" y1="577.467" x2="186.553" y2="619.187" gradientUnits="userSpaceOnUse"><stop offset=".127" stop-color="#fff" stop-opacity=".56"/><stop offset="1" stop-color="#fff" stop-opacity="0"/></linearGradient><radialGradient id="paint2_radial" cx="0" cy="0" r="1" gradientUnits="userSpaceOnUse" gradientTransform="rotate(45.238 -20.76 808.031) scale(136.907)"><stop stop-color="#fff" stop-opacity=".94"/><stop offset=".348" stop-color="#F7F7F7"/><stop offset=".636" stop-color="#E7E7E7"/><stop offset=".909" stop-color="#fff"/></radialGradient><radialGradient id="paint5_radial" cx="0" cy="0" r="1" gradientUnits="userSpaceOnUse" gradientTransform="rotate(45.238 -622.11 449.468) scale(52.4145)"><stop stop-color="#fff" stop-opacity=".94"/><stop offset=".348" stop-color="#F7F7F7"/><stop offset=".636" stop-color="#E7E7E7"/><stop offset=".909" stop-color="#fff"/></radialGradient><filter id="filter0_f" x="498" y="172" width="231.538" height="231.538" filterUnits="userSpaceOnUse" color-interpolation-filters="sRGB"><feFlood flood-opacity="0" result="BackgroundImageFix"/><feBlend in="SourceGraphic" in2="BackgroundImageFix" result="shape"/><feGaussianBlur stdDeviation="22.5" result="effect1_foregroundBlur"/></filter><filter id="filter1_f" x="80.68" y="515.611" width="144.187" height="144.187" filterUnits="userSpaceOnUse" color-interpolation-filters="sRGB"><feFlood flood-opacity="0" result="BackgroundImageFix"/><feBlend in="SourceGraphic" in2="BackgroundImageFix" result="shape"/><feGaussianBlur stdDeviation="22.5" result="effect1_foregroundBlur"/></filter></defs></svg>