<svg width="1197" height="1197" fill="none" xmlns="http://www.w3.org/2000/svg"><path d="M1167.09 780.332a1.543 1.543 0 011 1.938 598.513 598.513 0 01-554.677 414.54A598.492 598.492 0 0138.23 808.975 598.5 598.5 0 01906.206 85.159c.731.438.966 1.385.526 2.114a1.544 1.544 0 01-2.117.526A595.417 595.417 0 10613.336 1193.73a595.454 595.454 0 00342.224-118.75 595.42 595.42 0 00209.59-293.649 1.546 1.546 0 011.94-.999z" fill="#F4F4F4"/><path d="M472.779 987.754a1.862 1.862 0 01-2.347 1.206 411.532 411.532 0 01-284.271-381.145A411.524 411.524 0 01452.838 212.32a411.526 411.526 0 01555.072 354.154 411.527 411.527 0 01-56.963 241.972 1.862 1.862 0 01-2.56.638 1.876 1.876 0 01-.638-2.567 407.804 407.804 0 0056.441-239.761 407.794 407.794 0 00-814.296 40.966 407.797 407.797 0 00281.675 377.681 1.874 1.874 0 011.21 2.351z" fill="#F4F4F4"/><path d="M446.861 431.363a1.712 1.712 0 01.121-2.428 227.634 227.634 0 01376.389 206.828 227.629 227.629 0 01-186.014 187.124 227.633 227.633 0 01-236.975-112.783 1.712 1.712 0 01.669-2.337 1.733 1.733 0 012.346.672 224.192 224.192 0 00233.376 111.054 224.194 224.194 0 00183.2-184.293 224.193 224.193 0 00-113.95-233.542 224.196 224.196 0 00-133.948-25.704 224.195 224.195 0 00-122.777 55.53 1.732 1.732 0 01-2.437-.121z" fill="#F4F4F4"/></svg>