<svg width="385" height="353" fill="none" xmlns="http://www.w3.org/2000/svg"><path d="M75.829 207.484a1.011 1.011 0 01-1.206-.778 141.56 141.56 0 11136.872 112.469 1.011 1.011 0 01-.998-1.032 1.022 1.022 0 011.036-1 139.534 139.534 0 00132.534-91.228A139.524 139.524 0 00222.875 38.437 139.525 139.525 0 0076.609 206.274a1.022 1.022 0 01-.78 1.21z" fill="#E2F5F7"/><path d="M304.743 206.761c.502.16.779.698.614 1.199a97.343 97.343 0 01-34.045 47.336 97.342 97.342 0 01-112.788 2.811 97.336 97.336 0 01103.855-164.55c.455.268.6.855.328 1.307a.962.962 0 01-1.313.328 95.428 95.428 0 00-101.802 161.332 95.428 95.428 0 00143.946-49.146.963.963 0 011.205-.617z" fill="#E2F5F7"/><path d="M264.879 166.408a.975.975 0 011.168.758 53.844 53.844 0 01-24.739 56.412 53.843 53.843 0 01-62.255-4.344 53.841 53.841 0 0134.214-95.438c.546 0 .981.452.97.999-.01.546-.461.979-1.008.98a51.86 51.86 0 00-32.92 91.93 51.86 51.86 0 0080.61-19.677 51.859 51.859 0 003.194-30.441 1.005 1.005 0 01.766-1.179z" fill="#E2F5F7"/><g filter="url(#filter0_f)"><path d="M311.832 58.619c-2.969-11.08-14.353-17.652-25.433-14.684-11.08 2.97-17.653 14.353-14.684 25.433 2.969 11.08 14.353 17.652 25.433 14.684 11.052-2.92 17.663-14.315 14.684-25.433z" fill="#F4F4F4"/></g><path d="M310.601 57.672c-2.969-11.08-14.353-17.653-25.433-14.684-11.079 2.969-17.652 14.353-14.683 25.433 2.969 11.08 14.353 17.652 25.433 14.683 11.051-2.92 17.662-14.314 14.683-25.432z" fill="#fff"/><path d="M310.601 57.672c-2.969-11.08-14.353-17.653-25.433-14.684-11.079 2.969-17.652 14.353-14.683 25.433 2.969 11.08 14.353 17.652 25.433 14.683 11.051-2.92 17.662-14.314 14.683-25.432z" fill="url(#paint0_linear)" fill-opacity=".5"/><path d="M310.601 57.672c-2.969-11.08-14.353-17.653-25.433-14.684-11.079 2.969-17.652 14.353-14.683 25.433 2.969 11.08 14.353 17.652 25.433 14.683 11.051-2.92 17.662-14.314 14.683-25.432z" fill="url(#paint1_linear)"/><path d="M310.601 57.672c-2.969-11.08-14.353-17.653-25.433-14.684-11.079 2.969-17.652 14.353-14.683 25.433 2.969 11.08 14.353 17.652 25.433 14.683 11.051-2.92 17.662-14.314 14.683-25.432z" fill="url(#paint2_radial)"/><g filter="url(#filter1_f)"><path d="M243.606 313.752c-1.893-7.064-9.15-11.254-16.214-9.361-7.064 1.893-11.254 9.15-9.361 16.214 1.892 7.064 9.15 11.254 16.214 9.361 7.046-1.861 11.26-9.126 9.361-16.214z" fill="#F4F4F4"/></g><path d="M242.002 313.148c-1.893-7.064-9.151-11.254-16.215-9.361-7.063 1.893-11.254 9.15-9.361 16.214 1.893 7.064 9.151 11.254 16.214 9.361 7.046-1.861 11.261-9.126 9.362-16.214z" fill="#fff"/><path d="M242.002 313.148c-1.893-7.064-9.151-11.254-16.215-9.361-7.063 1.893-11.254 9.15-9.361 16.214 1.893 7.064 9.151 11.254 16.214 9.361 7.046-1.861 11.261-9.126 9.362-16.214z" fill="url(#paint3_linear)" fill-opacity=".5"/><path d="M242.002 313.148c-1.893-7.064-9.151-11.254-16.215-9.361-7.063 1.893-11.254 9.15-9.361 16.214 1.893 7.064 9.151 11.254 16.214 9.361 7.046-1.861 11.261-9.126 9.362-16.214z" fill="url(#paint4_linear)"/><path d="M242.002 313.148c-1.893-7.064-9.151-11.254-16.215-9.361-7.063 1.893-11.254 9.15-9.361 16.214 1.893 7.064 9.151 11.254 16.214 9.361 7.046-1.861 11.261-9.126 9.362-16.214z" fill="url(#paint5_radial)"/><defs><linearGradient id="paint0_linear" x1="405.191" y1="729.87" x2="273.92" y2="-33.426" gradientUnits="userSpaceOnUse"><stop offset=".001" stop-color="#fff"/><stop offset=".998" stop-color="#fff"/></linearGradient><linearGradient id="paint1_linear" x1="274.179" y1="54.383" x2="324.767" y2="93.545" gradientUnits="userSpaceOnUse"><stop offset=".127" stop-color="#fff" stop-opacity=".56"/><stop offset="1" stop-color="#fff" stop-opacity="0"/></linearGradient><linearGradient id="paint3_linear" x1="302.306" y1="741.699" x2="218.616" y2="255.07" gradientUnits="userSpaceOnUse"><stop offset=".001" stop-color="#fff"/><stop offset=".998" stop-color="#fff"/></linearGradient><linearGradient id="paint4_linear" x1="218.781" y1="311.051" x2="251.033" y2="336.019" gradientUnits="userSpaceOnUse"><stop offset=".127" stop-color="#fff" stop-opacity=".56"/><stop offset="1" stop-color="#fff" stop-opacity="0"/></linearGradient><radialGradient id="paint2_radial" cx="0" cy="0" r="1" gradientUnits="userSpaceOnUse" gradientTransform="rotate(45.238 76.092 357.66) scale(49.2016)"><stop stop-color="#fff" stop-opacity=".94"/><stop offset=".348" stop-color="#F7F7F7"/><stop offset=".636" stop-color="#E7E7E7"/><stop offset=".909" stop-color="#fff"/></radialGradient><radialGradient id="paint5_radial" cx="0" cy="0" r="1" gradientUnits="userSpaceOnUse" gradientTransform="rotate(45.238 -261.164 418.992) scale(31.3678)"><stop stop-color="#fff" stop-opacity=".94"/><stop offset=".348" stop-color="#F7F7F7"/><stop offset=".636" stop-color="#E7E7E7"/><stop offset=".909" stop-color="#fff"/></radialGradient><filter id="filter0_f" x="221.341" y="-6.439" width="140.866" height="140.866" filterUnits="userSpaceOnUse" color-interpolation-filters="sRGB"><feFlood flood-opacity="0" result="BackgroundImageFix"/><feBlend in="SourceGraphic" in2="BackgroundImageFix" result="shape"/><feGaussianBlur stdDeviation="22.5" result="effect1_foregroundBlur"/></filter><filter id="filter1_f" x="169.604" y="255.964" width="122.429" height="122.429" filterUnits="userSpaceOnUse" color-interpolation-filters="sRGB"><feFlood flood-opacity="0" result="BackgroundImageFix"/><feBlend in="SourceGraphic" in2="BackgroundImageFix" result="shape"/><feGaussianBlur stdDeviation="22.5" result="effect1_foregroundBlur"/></filter></defs></svg>