<svg width="366" height="353" fill="none" xmlns="http://www.w3.org/2000/svg"><path d="M99.638 73.62a1.011 1.011 0 01.07-1.434 141.561 141.561 0 01221.679 43.365 141.563 141.563 0 01-26.829 161.874 141.555 141.555 0 01-161.712 27.791 141.556 141.556 0 01-62.103-58.26 1.011 1.011 0 01.395-1.38 1.022 1.022 0 011.385.397 139.524 139.524 0 00145.272 69.164 139.529 139.529 0 0043.099-260.046 139.527 139.527 0 00-159.818 18.6 1.022 1.022 0 01-1.438-.071z" fill="#F4F4F4"/><path d="M279.613 133.249a.947.947 0 011.282.413 97.338 97.338 0 01-127.18 132.376 97.332 97.332 0 01-56.702-97.539 97.338 97.338 0 0172.598-85.342.948.948 0 011.155.693.963.963 0 01-.696 1.16 95.426 95.426 0 0042.093 186.064 95.424 95.424 0 0076.24-80.137 95.428 95.428 0 00-9.205-56.4.962.962 0 01.415-1.288z" fill="#F4F4F4"/><path d="M149.777 149.057a.975.975 0 01-.29-1.362 53.84 53.84 0 116.654 67.989.975.975 0 01.02-1.392 1.004 1.004 0 011.406.02 51.862 51.862 0 10-6.415-65.547 1.003 1.003 0 01-1.375.292z" fill="#F4F4F4"/><g filter="url(#filter0_f)"><path d="M182.103 140.311c-3.346-12.487-16.176-19.895-28.663-16.549-12.487 3.346-19.895 16.176-16.549 28.663 3.346 12.487 16.176 19.895 28.663 16.549 12.456-3.291 19.906-16.133 16.549-28.663z" fill="#F4F4F4"/></g><path d="M179.268 139.243c-3.346-12.487-16.176-19.894-28.663-16.548-12.487 3.346-19.895 16.176-16.549 28.663 3.346 12.487 16.176 19.894 28.663 16.549 12.456-3.292 19.906-16.133 16.549-28.664z" fill="#fff"/><path d="M179.268 139.243c-3.346-12.487-16.176-19.894-28.663-16.548-12.487 3.346-19.895 16.176-16.549 28.663 3.346 12.487 16.176 19.894 28.663 16.549 12.456-3.292 19.906-16.133 16.549-28.664z" fill="url(#paint0_linear)" fill-opacity=".5"/><path d="M179.268 139.243c-3.346-12.487-16.176-19.894-28.663-16.548-12.487 3.346-19.895 16.176-16.549 28.663 3.346 12.487 16.176 19.894 28.663 16.549 12.456-3.292 19.906-16.133 16.549-28.664z" fill="url(#paint1_linear)"/><path d="M179.268 139.243c-3.346-12.487-16.176-19.894-28.663-16.548-12.487 3.346-19.895 16.176-16.549 28.663 3.346 12.487 16.176 19.894 28.663 16.549 12.456-3.292 19.906-16.133 16.549-28.664z" fill="url(#paint2_radial)"/><path d="M304.526 73.932c-1.862-6.948-9.001-11.07-15.948-9.208-6.948 1.862-11.07 9-9.208 15.948s9 11.07 15.948 9.208c6.93-1.831 11.076-8.976 9.208-15.948z" fill="#fff"/><path d="M304.526 73.932c-1.862-6.948-9.001-11.07-15.948-9.208-6.948 1.862-11.07 9-9.208 15.948s9 11.07 15.948 9.208c6.93-1.831 11.076-8.976 9.208-15.948z" fill="url(#paint3_linear)" fill-opacity=".5"/><path d="M304.526 73.932c-1.862-6.948-9.001-11.07-15.948-9.208-6.948 1.862-11.07 9-9.208 15.948s9 11.07 15.948 9.208c6.93-1.831 11.076-8.976 9.208-15.948z" fill="url(#paint4_linear)"/><path d="M304.526 73.932c-1.862-6.948-9.001-11.07-15.948-9.208-6.948 1.862-11.07 9-9.208 15.948s9 11.07 15.948 9.208c6.93-1.831 11.076-8.976 9.208-15.948z" fill="url(#paint5_radial)"/><g filter="url(#filter1_f)"><path d="M306.102 74.526c-1.862-6.947-9-11.069-15.948-9.207-6.948 1.861-11.069 9-9.208 15.948 1.862 6.948 9 11.07 15.948 9.207 6.931-1.83 11.076-8.976 9.208-15.948z" fill="#F4F4F4"/></g><defs><linearGradient id="paint0_linear" x1="285.872" y1="896.82" x2="137.928" y2="36.575" gradientUnits="userSpaceOnUse"><stop offset=".001" stop-color="#fff"/><stop offset=".998" stop-color="#fff"/></linearGradient><linearGradient id="paint1_linear" x1="138.22" y1="135.537" x2="195.233" y2="179.674" gradientUnits="userSpaceOnUse"><stop offset=".127" stop-color="#fff" stop-opacity=".56"/><stop offset="1" stop-color="#fff" stop-opacity="0"/></linearGradient><linearGradient id="paint3_linear" x1="363.84" y1="495.448" x2="281.524" y2="16.807" gradientUnits="userSpaceOnUse"><stop offset=".001" stop-color="#fff"/><stop offset=".998" stop-color="#fff"/></linearGradient><linearGradient id="paint4_linear" x1="281.687" y1="71.87" x2="313.409" y2="96.427" gradientUnits="userSpaceOnUse"><stop offset=".127" stop-color="#fff" stop-opacity=".56"/><stop offset="1" stop-color="#fff" stop-opacity="0"/></linearGradient><radialGradient id="paint2_radial" cx="0" cy="0" r="1" gradientUnits="userSpaceOnUse" gradientTransform="rotate(45.238 -88.734 235.264) scale(55.4509)"><stop stop-color="#fff" stop-opacity=".94"/><stop offset=".348" stop-color="#F7F7F7"/><stop offset=".636" stop-color="#E7E7E7"/><stop offset=".909" stop-color="#fff"/></radialGradient><radialGradient id="paint5_radial" cx="0" cy="0" r="1" gradientUnits="userSpaceOnUse" gradientTransform="rotate(45.238 57.27 374.875) scale(30.8528)"><stop stop-color="#fff" stop-opacity=".94"/><stop offset=".348" stop-color="#F7F7F7"/><stop offset=".636" stop-color="#E7E7E7"/><stop offset=".909" stop-color="#fff"/></radialGradient><filter id="filter0_f" x="85.834" y="72.705" width="147.326" height="147.326" filterUnits="userSpaceOnUse" color-interpolation-filters="sRGB"><feFlood flood-opacity="0" result="BackgroundImageFix"/><feBlend in="SourceGraphic" in2="BackgroundImageFix" result="shape"/><feGaussianBlur stdDeviation="22.5" result="effect1_foregroundBlur"/></filter><filter id="filter1_f" x="232.576" y="16.948" width="121.896" height="121.896" filterUnits="userSpaceOnUse" color-interpolation-filters="sRGB"><feFlood flood-opacity="0" result="BackgroundImageFix"/><feBlend in="SourceGraphic" in2="BackgroundImageFix" result="shape"/><feGaussianBlur stdDeviation="22.5" result="effect1_foregroundBlur"/></filter></defs></svg>