<svg width="360" height="326" fill="none" xmlns="http://www.w3.org/2000/svg"><g clip-path="url(#clip0)"><path d="M60.829 180.485a1.011 1.011 0 01-1.206-.779 141.56 141.56 0 11136.872 112.47 1.013 1.013 0 01-.998-1.032 1.024 1.024 0 011.036-1.001 139.526 139.526 0 10-71.122-258.575 139.528 139.528 0 00-63.802 147.706 1.023 1.023 0 01-.78 1.211z" fill="#F4F4F4"/><path d="M289.743 179.761a.949.949 0 01.614 1.199 97.334 97.334 0 01-146.833 50.147 97.334 97.334 0 01-7.825-155.538 97.338 97.338 0 01111.68-9.011c.455.267.6.855.328 1.306a.962.962 0 01-1.313.329 95.427 95.427 0 1042.144 112.186.963.963 0 011.205-.618z" fill="#F4F4F4"/><path d="M249.879 139.408a.976.976 0 011.168.759 53.84 53.84 0 11-52.78-43.37c.546 0 .981.452.97.998-.01.546-.461.98-1.008.98a51.867 51.867 0 00-29.244 9.035 51.862 51.862 0 1080.128 32.777 1.005 1.005 0 01.766-1.179z" fill="#F4F4F4"/><g filter="url(#filter0_f)"><path d="M131.715 41.44c-2.951-11.012-14.266-17.545-25.279-14.594-11.012 2.95-17.545 14.265-14.594 25.278 2.95 11.012 14.266 17.545 25.278 14.595 10.985-2.903 17.556-14.228 14.595-25.279z" fill="#F4F4F4"/></g><path d="M129.214 40.499c-2.951-11.013-14.266-17.546-25.279-14.595C92.923 28.855 86.39 40.17 89.341 51.183c2.95 11.012 14.266 17.545 25.278 14.594 10.985-2.903 17.556-14.228 14.595-25.278z" fill="#fff"/><path d="M129.214 40.499c-2.951-11.013-14.266-17.546-25.279-14.595C92.923 28.855 86.39 40.17 89.341 51.183c2.95 11.012 14.266 17.545 25.278 14.594 10.985-2.903 17.556-14.228 14.595-25.278z" fill="url(#paint0_linear)" fill-opacity=".5"/><path d="M129.214 40.499c-2.951-11.013-14.266-17.546-25.279-14.595C92.923 28.855 86.39 40.17 89.341 51.183c2.95 11.012 14.266 17.545 25.278 14.594 10.985-2.903 17.556-14.228 14.595-25.278z" fill="url(#paint1_linear)"/><path d="M129.214 40.499c-2.951-11.013-14.266-17.546-25.279-14.595C92.923 28.855 86.39 40.17 89.341 51.183c2.95 11.012 14.266 17.545 25.278 14.594 10.985-2.903 17.556-14.228 14.595-25.278z" fill="url(#paint2_radial)"/><g filter="url(#filter1_f)"><path d="M331.387 220.755c-1.756-6.552-8.487-10.438-15.039-8.683-6.551 1.756-10.438 8.487-8.682 15.039 1.755 6.551 8.487 10.438 15.038 8.682 6.535-1.727 10.444-8.464 8.683-15.038z" fill="#F4F4F4"/></g><path d="M329.899 220.195c-1.755-6.552-8.487-10.438-15.038-8.683-6.552 1.756-10.438 8.487-8.683 15.039 1.756 6.551 8.487 10.438 15.039 8.682 6.535-1.727 10.444-8.464 8.682-15.038z" fill="#fff"/><path d="M329.899 220.195c-1.755-6.552-8.487-10.438-15.038-8.683-6.552 1.756-10.438 8.487-8.683 15.039 1.756 6.551 8.487 10.438 15.039 8.682 6.535-1.727 10.444-8.464 8.682-15.038z" fill="url(#paint3_linear)" fill-opacity=".5"/><path d="M329.899 220.195c-1.755-6.552-8.487-10.438-15.038-8.683-6.552 1.756-10.438 8.487-8.683 15.039 1.756 6.551 8.487 10.438 15.039 8.682 6.535-1.727 10.444-8.464 8.682-15.038z" fill="url(#paint4_linear)"/><path d="M329.899 220.195c-1.755-6.552-8.487-10.438-15.038-8.683-6.552 1.756-10.438 8.487-8.683 15.039 1.756 6.551 8.487 10.438 15.039 8.682 6.535-1.727 10.444-8.464 8.682-15.038z" fill="url(#paint5_radial)"/></g><defs><linearGradient id="paint0_linear" x1="223.229" y1="708.618" x2="92.755" y2="-50.046" gradientUnits="userSpaceOnUse"><stop offset=".001" stop-color="#fff"/><stop offset=".998" stop-color="#fff"/></linearGradient><linearGradient id="paint1_linear" x1="93.013" y1="37.23" x2="143.293" y2="76.155" gradientUnits="userSpaceOnUse"><stop offset=".127" stop-color="#fff" stop-opacity=".56"/><stop offset="1" stop-color="#fff" stop-opacity="0"/></linearGradient><linearGradient id="paint3_linear" x1="385.83" y1="617.666" x2="308.21" y2="166.328" gradientUnits="userSpaceOnUse"><stop offset=".001" stop-color="#fff"/><stop offset=".998" stop-color="#fff"/></linearGradient><linearGradient id="paint4_linear" x1="308.363" y1="218.25" x2="338.276" y2="241.407" gradientUnits="userSpaceOnUse"><stop offset=".127" stop-color="#fff" stop-opacity=".56"/><stop offset="1" stop-color="#fff" stop-opacity="0"/></linearGradient><radialGradient id="paint2_radial" cx="0" cy="0" r="1" gradientUnits="userSpaceOnUse" gradientTransform="rotate(45.238 6.067 131.668) scale(48.903)"><stop stop-color="#fff" stop-opacity=".94"/><stop offset=".348" stop-color="#F7F7F7"/><stop offset=".636" stop-color="#E7E7E7"/><stop offset=".909" stop-color="#fff"/></radialGradient><radialGradient id="paint5_radial" cx="0" cy="0" r="1" gradientUnits="userSpaceOnUse" gradientTransform="rotate(45.238 -105.205 480.026) scale(29.0929)"><stop stop-color="#fff" stop-opacity=".94"/><stop offset=".348" stop-color="#F7F7F7"/><stop offset=".636" stop-color="#E7E7E7"/><stop offset=".909" stop-color="#fff"/></radialGradient><filter id="filter0_f" x="41.5" y="-23.497" width="140.557" height="140.557" filterUnits="userSpaceOnUse" color-interpolation-filters="sRGB"><feFlood flood-opacity="0" result="BackgroundImageFix"/><feBlend in="SourceGraphic" in2="BackgroundImageFix" result="shape"/><feGaussianBlur stdDeviation="22.5" result="effect1_foregroundBlur"/></filter><filter id="filter1_f" x="259.487" y="163.895" width="120.077" height="120.077" filterUnits="userSpaceOnUse" color-interpolation-filters="sRGB"><feFlood flood-opacity="0" result="BackgroundImageFix"/><feBlend in="SourceGraphic" in2="BackgroundImageFix" result="shape"/><feGaussianBlur stdDeviation="22.5" result="effect1_foregroundBlur"/></filter><clipPath id="clip0"><path fill="#fff" d="M0 0h360v326H0z"/></clipPath></defs></svg>