<svg width="207" height="206" fill="none" xmlns="http://www.w3.org/2000/svg"><g filter="url(#filter0_f)"><path d="M159.583 88.022c-8.261-30.83-39.938-49.119-70.769-40.858-30.83 8.261-49.12 39.939-40.858 70.769 8.26 30.83 39.938 49.119 70.769 40.858 30.752-8.126 49.148-39.832 40.858-70.769z" fill="#F4F4F4"/></g><path d="M152.583 85.387c-8.261-30.83-39.938-49.12-70.769-40.859-30.83 8.261-49.12 39.939-40.858 70.769 8.26 30.83 39.938 49.119 70.769 40.858 30.752-8.126 49.148-39.832 40.858-70.768z" fill="#fff"/><path d="M152.583 85.387c-8.261-30.83-39.938-49.12-70.769-40.859-30.83 8.261-49.12 39.939-40.858 70.769 8.26 30.83 39.938 49.119 70.769 40.858 30.752-8.126 49.148-39.832 40.858-70.768z" fill="url(#paint0_linear)" fill-opacity=".5"/><path d="M152.583 85.387c-8.261-30.83-39.938-49.12-70.769-40.859-30.83 8.261-49.12 39.939-40.858 70.769 8.26 30.83 39.938 49.119 70.769 40.858 30.752-8.126 49.148-39.832 40.858-70.768z" fill="url(#paint1_linear)"/><path d="M152.583 85.387c-8.261-30.83-39.938-49.12-70.769-40.859-30.83 8.261-49.12 39.939-40.858 70.769 8.26 30.83 39.938 49.119 70.769 40.858 30.752-8.126 49.148-39.832 40.858-70.768z" fill="url(#paint2_radial)"/><defs><linearGradient id="paint0_linear" x1="415.787" y1="1955.83" x2="50.516" y2="-168.1" gradientUnits="userSpaceOnUse"><stop offset=".001" stop-color="#fff"/><stop offset=".998" stop-color="#fff"/></linearGradient><linearGradient id="paint1_linear" x1="51.236" y1="76.235" x2="192.001" y2="185.209" gradientUnits="userSpaceOnUse"><stop offset=".127" stop-color="#fff" stop-opacity=".56"/><stop offset="1" stop-color="#fff" stop-opacity="0"/></linearGradient><radialGradient id="paint2_radial" cx="0" cy="0" r="1" gradientUnits="userSpaceOnUse" gradientTransform="rotate(45.238 -54.003 103.617) scale(136.907)"><stop stop-color="#fff" stop-opacity=".94"/><stop offset=".348" stop-color="#F7F7F7"/><stop offset=".636" stop-color="#E7E7E7"/><stop offset=".909" stop-color="#fff"/></radialGradient><filter id="filter0_f" x=".972" y=".18" width="205.6" height="205.595" filterUnits="userSpaceOnUse" color-interpolation-filters="sRGB"><feFlood flood-opacity="0" result="BackgroundImageFix"/><feBlend in="SourceGraphic" in2="BackgroundImageFix" result="shape"/><feGaussianBlur stdDeviation="22.5" result="effect1_foregroundBlur"/></filter></defs></svg>