<svg width="387" height="398" fill="none" xmlns="http://www.w3.org/2000/svg"><path d="M56.038 223.232a1.011 1.011 0 01-1.206-.778 141.56 141.56 0 11136.872 112.469 1.01 1.01 0 01-.998-1.032 1.022 1.022 0 011.036-1A139.527 139.527 0 1056.818 222.022a1.022 1.022 0 01-.78 1.21z" fill="#F4F4F4"/><path d="M284.954 222.509a.948.948 0 01.614 1.199 97.343 97.343 0 01-34.045 47.336 97.342 97.342 0 01-112.788 2.811 97.339 97.339 0 01-7.825-155.538 97.336 97.336 0 01111.68-9.012c.455.268.6.855.328 1.307a.963.963 0 01-1.314.328 95.432 95.432 0 00-109.473 8.845 95.426 95.426 0 10151.618 103.341.963.963 0 011.205-.617z" fill="#F4F4F4"/><path d="M245.09 182.156a.975.975 0 011.168.758 53.844 53.844 0 01-24.739 56.412 53.843 53.843 0 01-62.255-4.344 53.836 53.836 0 013.816-86.058 53.842 53.842 0 0130.398-9.38c.546 0 .981.452.97.999-.01.546-.461.98-1.008.98a51.857 51.857 0 00-48.651 33.912 51.865 51.865 0 0015.731 58.018 51.86 51.86 0 0080.61-19.677 51.859 51.859 0 003.194-30.441 1.005 1.005 0 01.766-1.179z" fill="#F4F4F4"/><g filter="url(#filter0_f)"><path d="M292.114 74.148c-2.936-10.992-14.192-17.513-25.148-14.567-10.955 2.945-17.454 14.239-14.519 25.23 2.936 10.993 14.192 17.513 25.148 14.568 10.927-2.897 17.464-14.201 14.519-25.231z" fill="#F4F4F4"/></g><path d="M289.625 73.208c-2.935-10.992-14.192-17.512-25.147-14.567-10.955 2.945-17.454 14.239-14.519 25.23 2.936 10.993 14.192 17.513 25.147 14.568 10.928-2.897 17.465-14.201 14.519-25.231z" fill="#fff"/><path d="M289.625 73.208c-2.935-10.992-14.192-17.512-25.147-14.567-10.955 2.945-17.454 14.239-14.519 25.23 2.936 10.993 14.192 17.513 25.147 14.568 10.928-2.897 17.465-14.201 14.519-25.231z" fill="url(#paint0_linear)" fill-opacity=".5"/><path d="M289.625 73.208c-2.935-10.992-14.192-17.512-25.147-14.567-10.955 2.945-17.454 14.239-14.519 25.23 2.936 10.993 14.192 17.513 25.147 14.568 10.928-2.897 17.465-14.201 14.519-25.231z" fill="url(#paint1_linear)"/><path d="M289.625 73.208c-2.935-10.992-14.192-17.512-25.147-14.567-10.955 2.945-17.454 14.239-14.519 25.23 2.936 10.993 14.192 17.513 25.147 14.568 10.928-2.897 17.465-14.201 14.519-25.231z" fill="url(#paint2_radial)"/><g filter="url(#filter1_f)"><path d="M206.423 334.417c-2.012-7.535-9.728-12.005-17.238-9.986s-11.965 9.761-9.953 17.296c2.012 7.535 9.729 12.005 17.239 9.986 7.49-1.986 11.971-9.735 9.952-17.296z" fill="#F4F4F4"/></g><path d="M204.72 333.773c-2.012-7.535-9.729-12.005-17.238-9.986-7.51 2.019-11.965 9.761-9.953 17.296 2.012 7.535 9.728 12.005 17.238 9.986 7.491-1.986 11.972-9.735 9.953-17.296z" fill="#fff"/><path d="M204.72 333.773c-2.012-7.535-9.729-12.005-17.238-9.986-7.51 2.019-11.965 9.761-9.953 17.296 2.012 7.535 9.728 12.005 17.238 9.986 7.491-1.986 11.972-9.735 9.953-17.296z" fill="url(#paint3_linear)" fill-opacity=".5"/><path d="M204.72 333.773c-2.012-7.535-9.729-12.005-17.238-9.986-7.51 2.019-11.965 9.761-9.953 17.296 2.012 7.535 9.728 12.005 17.238 9.986 7.491-1.986 11.972-9.735 9.953-17.296z" fill="url(#paint4_linear)"/><path d="M204.72 333.773c-2.012-7.535-9.729-12.005-17.238-9.986-7.51 2.019-11.965 9.761-9.953 17.296 2.012 7.535 9.728 12.005 17.238 9.986 7.491-1.986 11.972-9.735 9.953-17.296z" fill="url(#paint5_radial)"/><defs><linearGradient id="paint0_linear" x1="383.153" y1="740.076" x2="252.515" y2="-17.022" gradientUnits="userSpaceOnUse"><stop offset=".001" stop-color="#fff"/><stop offset=".998" stop-color="#fff"/></linearGradient><linearGradient id="paint1_linear" x1="253.612" y1="69.945" x2="303.757" y2="108.636" gradientUnits="userSpaceOnUse"><stop offset=".127" stop-color="#fff" stop-opacity=".56"/><stop offset="1" stop-color="#fff" stop-opacity="0"/></linearGradient><linearGradient id="paint3_linear" x1="268.833" y1="790.911" x2="179.28" y2="271.92" gradientUnits="userSpaceOnUse"><stop offset=".001" stop-color="#fff"/><stop offset=".998" stop-color="#fff"/></linearGradient><linearGradient id="paint4_linear" x1="180.033" y1="331.536" x2="214.407" y2="358.059" gradientUnits="userSpaceOnUse"><stop offset=".127" stop-color="#fff" stop-opacity=".56"/><stop offset="1" stop-color="#fff" stop-opacity="0"/></linearGradient><radialGradient id="paint2_radial" cx="0" cy="0" r="1" gradientUnits="userSpaceOnUse" gradientTransform="matrix(34.25682 34.6582 -34.65706 34.2557 255.872 67.365)"><stop stop-color="#fff" stop-opacity=".94"/><stop offset=".348" stop-color="#F7F7F7"/><stop offset=".636" stop-color="#E7E7E7"/><stop offset=".909" stop-color="#fff"/></radialGradient><radialGradient id="paint5_radial" cx="0" cy="0" r="1" gradientUnits="userSpaceOnUse" gradientTransform="rotate(45.334 -304.018 382.28) scale(33.4051 33.404)"><stop stop-color="#fff" stop-opacity=".94"/><stop offset=".348" stop-color="#F7F7F7"/><stop offset=".636" stop-color="#E7E7E7"/><stop offset=".909" stop-color="#fff"/></radialGradient><filter id="filter0_f" x="206.742" y="13.873" width="131.078" height="131.213" filterUnits="userSpaceOnUse" color-interpolation-filters="sRGB"><feFlood flood-opacity="0" result="BackgroundImageFix"/><feBlend in="SourceGraphic" in2="BackgroundImageFix" result="shape"/><feGaussianBlur stdDeviation="22.5" result="effect1_foregroundBlur"/></filter><filter id="filter1_f" x="133.75" y="278.946" width="118.159" height="118.251" filterUnits="userSpaceOnUse" color-interpolation-filters="sRGB"><feFlood flood-opacity="0" result="BackgroundImageFix"/><feBlend in="SourceGraphic" in2="BackgroundImageFix" result="shape"/><feGaussianBlur stdDeviation="22.5" result="effect1_foregroundBlur"/></filter></defs></svg>