<svg width="269" height="284" fill="none" xmlns="http://www.w3.org/2000/svg"><path d="M39.53 170.258a.7.7 0 01-.833-.539 97.925 97.925 0 01190.352-45.743 97.928 97.928 0 01-95.669 123.546.699.699 0 01-.69-.713.709.709 0 01.717-.693 96.515 96.515 0 0091.683-63.108 96.517 96.517 0 00-29.277-107.979 96.522 96.522 0 00-155.742 94.392c.08.38-.16.754-.54.837z" fill="#F4F4F4"/><path d="M197.73 169.802c.345.111.535.48.422.824a67.22 67.22 0 01-23.409 32.697 66.729 66.729 0 01-38.465 13.408 66.703 66.703 0 01-39.082-11.467 67.173 67.173 0 01-25.234-32.097 67.512 67.512 0 01-2.045-40.847 67.261 67.261 0 0121.9-34.48 66.76 66.76 0 0137.738-15.348 66.68 66.68 0 0139.048 9.125.653.653 0 01.225.9.664.664 0 01-.908.227 65.372 65.372 0 00-38.266-8.937 65.448 65.448 0 00-36.998 15.047 65.943 65.943 0 00-21.47 33.803 66.188 66.188 0 002.005 40.046 65.86 65.86 0 0024.739 31.468 65.395 65.395 0 0038.315 11.242 65.426 65.426 0 0037.711-13.146 65.887 65.887 0 0022.944-32.039.662.662 0 01.83-.426z" fill="#F4F4F4"/><path d="M170.315 141.842a.675.675 0 01.808.525 37.247 37.247 0 01-39.127 44.397 37.246 37.246 0 012.615-74.4c.378 0 .678.313.671.691a.694.694 0 01-.697.678 35.879 35.879 0 00-33.655 23.46 35.872 35.872 0 0031.161 48.205 35.871 35.871 0 0037.694-42.741.694.694 0 01.53-.815z" fill="#F4F4F4"/><g filter="url(#filter0_f)"><path d="M148.84 36.825c-1.354-5.826-6.993-9.176-12.598-7.485-5.605 1.692-9.05 7.783-7.696 13.609 1.353 5.826 6.992 9.177 12.597 7.485 5.591-1.665 9.055-7.763 7.697-13.609z" fill="#F4F4F4"/></g><path d="M147.586 36.352c-1.354-5.826-6.993-9.177-12.598-7.485-5.605 1.69-9.05 7.782-7.696 13.608 1.353 5.826 6.992 9.177 12.597 7.486 5.591-1.666 9.055-7.763 7.697-13.61z" fill="#fff"/><path d="M147.586 36.352c-1.354-5.826-6.993-9.177-12.598-7.485-5.605 1.69-9.05 7.782-7.696 13.608 1.353 5.826 6.992 9.177 12.597 7.486 5.591-1.666 9.055-7.763 7.697-13.61z" fill="url(#paint0_linear)" fill-opacity=".5"/><path d="M147.586 36.352c-1.354-5.826-6.993-9.177-12.598-7.485-5.605 1.69-9.05 7.782-7.696 13.608 1.353 5.826 6.992 9.177 12.597 7.486 5.591-1.666 9.055-7.763 7.697-13.61z" fill="url(#paint1_linear)"/><path d="M147.586 36.352c-1.354-5.826-6.993-9.177-12.598-7.485-5.605 1.69-9.05 7.782-7.696 13.608 1.353 5.826 6.992 9.177 12.597 7.486 5.591-1.666 9.055-7.763 7.697-13.61z" fill="url(#paint2_radial)"/><g filter="url(#filter1_f)"><path d="M210.754 203.058c-.883-3.799-4.56-5.983-8.215-4.88-3.655 1.103-5.902 5.075-5.02 8.873.883 3.799 4.56 5.984 8.216 4.881 3.645-1.086 5.905-5.062 5.019-8.874z" fill="#F4F4F4"/></g><path d="M209.938 202.749c-.883-3.798-4.56-5.983-8.216-4.88-3.655 1.103-5.902 5.075-5.019 8.874.883 3.799 4.56 5.983 8.215 4.88 3.646-1.086 5.905-5.062 5.02-8.874z" fill="#fff"/><path d="M209.938 202.749c-.883-3.798-4.56-5.983-8.216-4.88-3.655 1.103-5.902 5.075-5.019 8.874.883 3.799 4.56 5.983 8.215 4.88 3.646-1.086 5.905-5.062 5.02-8.874z" fill="url(#paint3_linear)" fill-opacity=".5"/><path d="M209.938 202.749c-.883-3.798-4.56-5.983-8.216-4.88-3.655 1.103-5.902 5.075-5.019 8.874.883 3.799 4.56 5.983 8.215 4.88 3.646-1.086 5.905-5.062 5.02-8.874z" fill="url(#paint4_linear)"/><path d="M209.938 202.749c-.883-3.798-4.56-5.983-8.216-4.88-3.655 1.103-5.902 5.075-5.019 8.874.883 3.799 4.56 5.983 8.215 4.88 3.646-1.086 5.905-5.062 5.02-8.874z" fill="url(#paint5_radial)"/><defs><linearGradient id="paint0_linear" x1="186.729" y1="390.746" x2="106.497" y2="-6.611" gradientUnits="userSpaceOnUse"><stop offset=".001" stop-color="#fff"/><stop offset=".998" stop-color="#fff"/></linearGradient><linearGradient id="paint1_linear" x1="129.324" y1="35.012" x2="154.985" y2="54.191" gradientUnits="userSpaceOnUse"><stop offset=".127" stop-color="#fff" stop-opacity=".56"/><stop offset="1" stop-color="#fff" stop-opacity="0"/></linearGradient><linearGradient id="paint3_linear" x1="235.456" y1="433.833" x2="183.139" y2="174.737" gradientUnits="userSpaceOnUse"><stop offset=".001" stop-color="#fff"/><stop offset=".998" stop-color="#fff"/></linearGradient><linearGradient id="paint4_linear" x1="198.028" y1="201.876" x2="214.761" y2="214.384" gradientUnits="userSpaceOnUse"><stop offset=".127" stop-color="#fff" stop-opacity=".56"/><stop offset="1" stop-color="#fff" stop-opacity="0"/></linearGradient><radialGradient id="paint2_radial" cx="0" cy="0" r="1" gradientUnits="userSpaceOnUse" gradientTransform="rotate(46.826 26.44 167.503) scale(24.8087 25.9153)"><stop stop-color="#fff" stop-opacity=".94"/><stop offset=".348" stop-color="#F7F7F7"/><stop offset=".636" stop-color="#E7E7E7"/><stop offset=".909" stop-color="#fff"/></radialGradient><radialGradient id="paint5_radial" cx="0" cy="0" r="1" gradientUnits="userSpaceOnUse" gradientTransform="matrix(11.06935 11.79682 -12.32405 11.56407 198.798 200.963)"><stop stop-color="#fff" stop-opacity=".94"/><stop offset=".348" stop-color="#F7F7F7"/><stop offset=".636" stop-color="#E7E7E7"/><stop offset=".909" stop-color="#fff"/></radialGradient><filter id="filter0_f" x="83.25" y="-16.099" width="110.883" height="111.971" filterUnits="userSpaceOnUse" color-interpolation-filters="sRGB"><feFlood flood-opacity="0" result="BackgroundImageFix"/><feBlend in="SourceGraphic" in2="BackgroundImageFix" result="shape"/><feGaussianBlur stdDeviation="22.5" result="effect1_foregroundBlur"/></filter><filter id="filter1_f" x="152.328" y="152.892" width="103.619" height="104.326" filterUnits="userSpaceOnUse" color-interpolation-filters="sRGB"><feFlood flood-opacity="0" result="BackgroundImageFix"/><feBlend in="SourceGraphic" in2="BackgroundImageFix" result="shape"/><feGaussianBlur stdDeviation="22.5" result="effect1_foregroundBlur"/></filter></defs></svg>