<svg width="21" height="21" fill="none" xmlns="http://www.w3.org/2000/svg"><path d="M20.82 17.34l-3.55-3.55 1.74-1.74a.615.615 0 00-.24-1.019L8.33 7.551a.615.615 0 00-.779.778l3.48 10.441a.615.615 0 001.02.24l1.74-1.74 3.548 3.549a.613.613 0 00.87 0l2.61-2.61c.24-.24.24-.63 0-.87zm-3.046 2.175l-3.548-3.549a.615.615 0 00-.87 0l-1.471 1.472-2.776-8.33 8.329 2.777-1.472 1.471c-.24.24-.24.63 0 .87l3.549 3.548-1.74 1.74zM7.998 4.922c.34 0 .615-.276.615-.615V.615a.615.615 0 00-1.23 0v3.692c0 .34.275.615.615.615zM3.212 2.343a.615.615 0 10-.87.87l2.61 2.61a.615.615 0 10.87-.87l-2.61-2.61zm1.741 7.83l-2.61 2.61a.615.615 0 00.87.87l2.61-2.61a.615.615 0 10-.87-.87zm6.09-4.35l2.61-2.61a.615.615 0 00-.87-.87l-2.61 2.61a.615.615 0 10.87.87zM4.922 7.998a.615.615 0 00-.615-.615H.615a.615.615 0 000 1.23h3.692c.34 0 .615-.275.615-.615z" fill="#fff"/></svg>