<svg width="48" height="48" fill="none" xmlns="http://www.w3.org/2000/svg"><path d="M45.099 7.28L38.464.647A2.192 2.192 0 0036.904 0H8.969C7.753 0 6.763.99 6.763 2.206v21.842H5.212a2.961 2.961 0 00-2.958 2.958v13.527a2.961 2.961 0 002.958 2.958h27.805a2.21 2.21 0 002.207-2.206V30.764c0-1.217-.99-2.206-2.206-2.206H5.211a1.553 1.553 0 01-1.552-1.552c0-.855.696-1.551 1.552-1.551h1.55v.8a.703.703 0 001.407 0V2.206a.8.8 0 01.8-.8h27.103v6.812c0 .802.652 1.455 1.454 1.455h6.813v36.12a.8.8 0 01-.8.8H8.969a.8.8 0 01-.8-.8.703.703 0 00-1.406 0A2.21 2.21 0 008.969 48h34.57c1.216 0 2.206-.99 2.206-2.206V8.84c0-.59-.23-1.143-.646-1.56zM5.212 29.965h27.805a.8.8 0 01.8.8v10.52a.8.8 0 01-.8.8H5.212a1.553 1.553 0 01-1.552-1.55v-11.01c.451.279.983.44 1.552.44zM37.478 8.218V1.65l6.618 6.618h-6.57a.049.049 0 01-.048-.049z" fill="url(#paint0_linear)"/><path d="M17.986 24.703H34.52a.703.703 0 000-1.406H17.986a.703.703 0 000 1.406z" fill="url(#paint1_linear)"/><path d="M17.986 20.946H34.52a.703.703 0 000-1.406H17.986a.703.703 0 000 1.406z" fill="url(#paint2_linear)"/><path d="M28.508 17.188h6.012a.703.703 0 000-1.406h-6.012a.703.703 0 000 1.406z" fill="url(#paint3_linear)"/><path d="M28.508 13.43h6.012a.703.703 0 100-1.406h-6.012a.703.703 0 000 1.406z" fill="url(#paint4_linear)"/><path d="M27.29 39.854c.841 0 1.596-.276 2.183-.799a3.22 3.22 0 00.325-.335.703.703 0 10-1.078-.904 1.794 1.794 0 01-.182.189c-.33.294-.75.443-1.249.443a2.427 2.427 0 01-2.424-2.424 2.427 2.427 0 013.779-2.01.703.703 0 00.787-1.166 3.812 3.812 0 00-2.142-.654 3.834 3.834 0 00-3.83 3.83 3.835 3.835 0 003.83 3.83z" fill="url(#paint5_linear)"/><path d="M18.358 39.854a3.835 3.835 0 003.83-3.83 3.834 3.834 0 00-3.83-3.83 3.835 3.835 0 00-3.83 3.83 3.835 3.835 0 003.83 3.83zm0-6.254a2.427 2.427 0 012.423 2.424 2.427 2.427 0 01-2.423 2.424 2.427 2.427 0 01-2.424-2.424 2.427 2.427 0 012.424-2.424z" fill="url(#paint6_linear)"/><path d="M18.738 17.188h5.26c.802 0 1.455-.653 1.455-1.455V13.48c0-.802-.652-1.455-1.455-1.455h-5.26c-.802 0-1.455.653-1.455 1.455v2.254c0 .802.653 1.455 1.455 1.455zm-.049-3.71c0-.026.022-.048.049-.048h5.26a.05.05 0 01.049.049v2.254a.048.048 0 01-.049.049h-5.26a.048.048 0 01-.049-.049V13.48z" fill="url(#paint7_linear)"/><path d="M7.528 39.061a.704.704 0 00.703.701h.003c.052 0 1.277-.005 1.766-.014 1.791-.03 3.091-1.597 3.091-3.724 0-2.235-1.267-3.737-3.153-3.737h-1.72a.703.703 0 00-.702.704l.004 3.026c0 .844.008 3.044.008 3.044zm2.41-5.368c1.288 0 1.747 1.204 1.747 2.331 0 1.581-.858 2.304-1.71 2.319-.238.004-.67.007-1.043.01-.003-.719-.006-1.8-.006-2.335l-.003-2.325h1.015z" fill="url(#paint8_linear)"/><defs><linearGradient id="paint0_linear" x1="45.745" y1="14.4" x2="1.029" y2="31.619" gradientUnits="userSpaceOnUse"><stop stop-color="#57D1DC"/><stop offset="1" stop-color="#049EFC"/></linearGradient><linearGradient id="paint1_linear" x1="35.223" y1="23.719" x2="34.526" y2="27.497" gradientUnits="userSpaceOnUse"><stop stop-color="#57D1DC"/><stop offset="1" stop-color="#049EFC"/></linearGradient><linearGradient id="paint2_linear" x1="35.223" y1="19.961" x2="34.526" y2="23.739" gradientUnits="userSpaceOnUse"><stop stop-color="#57D1DC"/><stop offset="1" stop-color="#049EFC"/></linearGradient><linearGradient id="paint3_linear" x1="35.223" y1="16.204" x2="33.77" y2="19.462" gradientUnits="userSpaceOnUse"><stop stop-color="#57D1DC"/><stop offset="1" stop-color="#049EFC"/></linearGradient><linearGradient id="paint4_linear" x1="35.223" y1="12.446" x2="33.77" y2="15.704" gradientUnits="userSpaceOnUse"><stop stop-color="#57D1DC"/><stop offset="1" stop-color="#049EFC"/></linearGradient><linearGradient id="paint5_linear" x1="29.962" y1="34.492" x2="23.169" y2="36.943" gradientUnits="userSpaceOnUse"><stop stop-color="#57D1DC"/><stop offset="1" stop-color="#049EFC"/></linearGradient><linearGradient id="paint6_linear" x1="22.188" y1="34.492" x2="14.527" y2="37.748" gradientUnits="userSpaceOnUse"><stop stop-color="#57D1DC"/><stop offset="1" stop-color="#049EFC"/></linearGradient><linearGradient id="paint7_linear" x1="25.453" y1="13.573" x2="18.811" y2="18.039" gradientUnits="userSpaceOnUse"><stop stop-color="#57D1DC"/><stop offset="1" stop-color="#049EFC"/></linearGradient><linearGradient id="paint8_linear" x1="13.091" y1="34.529" x2="7.11" y2="36.425" gradientUnits="userSpaceOnUse"><stop stop-color="#57D1DC"/><stop offset="1" stop-color="#049EFC"/></linearGradient></defs></svg>