<svg width="387" height="387" fill="none" xmlns="http://www.w3.org/2000/svg"><path d="M38.009 235.979a1.155 1.155 0 01-1.377-.889 161.692 161.692 0 11156.336 128.464 1.156 1.156 0 01-1.139-1.179 1.168 1.168 0 011.183-1.143 159.361 159.361 0 00151.382-104.201 159.367 159.367 0 00-48.341-178.288A159.37 159.37 0 0038.9 234.596a1.168 1.168 0 01-.891 1.383z" fill="#F4F4F4"/><path d="M299.22 235.227c.569.183.883.792.696 1.36-7.086 21.532-20.571 40.377-38.651 53.987a110.177 110.177 0 01-63.512 22.139 110.139 110.139 0 01-64.53-18.933c-19.03-12.89-33.593-31.413-41.665-52.997a111.475 111.475 0 01-3.377-67.445c5.874-22.289 18.512-42.187 36.159-56.93a110.23 110.23 0 0162.313-25.343 110.101 110.101 0 0164.473 15.067c.515.305.68.972.372 1.485-.31.517-.981.682-1.499.375a107.941 107.941 0 00-63.182-14.756 108.067 108.067 0 00-61.091 24.846c-17.3 14.454-29.69 33.962-35.45 55.813a109.288 109.288 0 003.311 66.122c7.914 21.161 22.191 39.321 40.848 51.958a107.974 107.974 0 0063.264 18.561 108.022 108.022 0 0062.266-21.704c17.718-13.338 30.935-31.803 37.885-52.903.187-.57.798-.885 1.37-.702z" fill="#F4F4F4"/><path d="M253.945 189.059a1.113 1.113 0 011.334.866 61.496 61.496 0 01-119.677 28.052 61.496 61.496 0 0159.39-77.59c.624 0 1.121.517 1.109 1.141a1.147 1.147 0 01-1.151 1.119 59.235 59.235 0 00-57.167 74.739 59.236 59.236 0 00111.639 7.789 59.231 59.231 0 003.648-34.769 1.147 1.147 0 01.875-1.347z" fill="#F4F4F4"/><g filter="url(#filter0_f)"><path d="M296.225 37.334c-1.56-5.822-7.542-9.275-13.363-7.715-5.822 1.56-9.275 7.541-7.715 13.363 1.56 5.821 7.541 9.274 13.363 7.715 5.806-1.535 9.28-7.522 7.715-13.363z" fill="#F4F4F4"/></g><path d="M294.902 36.836c-1.56-5.822-7.541-9.275-13.362-7.715-5.822 1.56-9.275 7.541-7.715 13.363 1.559 5.821 7.541 9.274 13.362 7.715 5.807-1.535 9.281-7.522 7.715-13.363z" fill="#fff"/><path d="M294.902 36.836c-1.56-5.822-7.541-9.275-13.362-7.715-5.822 1.56-9.275 7.541-7.715 13.363 1.559 5.821 7.541 9.274 13.362 7.715 5.807-1.535 9.281-7.522 7.715-13.363z" fill="url(#paint0_linear)" fill-opacity=".5"/><path d="M294.902 36.836c-1.56-5.822-7.541-9.275-13.362-7.715-5.822 1.56-9.275 7.541-7.715 13.363 1.559 5.821 7.541 9.274 13.362 7.715 5.807-1.535 9.281-7.522 7.715-13.363z" fill="url(#paint1_linear)"/><path d="M294.902 36.836c-1.56-5.822-7.541-9.275-13.362-7.715-5.822 1.56-9.275 7.541-7.715 13.363 1.559 5.821 7.541 9.274 13.362 7.715 5.807-1.535 9.281-7.522 7.715-13.363z" fill="url(#paint2_radial)"/><g filter="url(#filter1_f)"><path d="M367.447 203.39a7.113 7.113 0 00-8.713-5.03 7.112 7.112 0 00-5.03 8.713 7.112 7.112 0 008.713 5.03c3.786-1 6.051-4.904 5.03-8.713z" fill="#F4F4F4"/></g><path d="M366.586 203.066a7.113 7.113 0 00-8.713-5.031 7.113 7.113 0 00-5.031 8.713 7.114 7.114 0 008.713 5.031c3.787-1.001 6.052-4.904 5.031-8.713z" fill="#fff"/><path d="M366.586 203.066a7.113 7.113 0 00-8.713-5.031 7.113 7.113 0 00-5.031 8.713 7.114 7.114 0 008.713 5.031c3.787-1.001 6.052-4.904 5.031-8.713z" fill="url(#paint3_linear)" fill-opacity=".5"/><path d="M366.586 203.066a7.113 7.113 0 00-8.713-5.031 7.113 7.113 0 00-5.031 8.713 7.114 7.114 0 008.713 5.031c3.787-1.001 6.052-4.904 5.031-8.713z" fill="url(#paint4_linear)"/><path d="M366.586 203.066a7.113 7.113 0 00-8.713-5.031 7.113 7.113 0 00-5.031 8.713 7.114 7.114 0 008.713 5.031c3.787-1.001 6.052-4.904 5.031-8.713z" fill="url(#paint5_radial)"/><defs><linearGradient id="paint0_linear" x1="344.601" y1="390.019" x2="275.63" y2="-11.028" gradientUnits="userSpaceOnUse"><stop offset=".001" stop-color="#fff"/><stop offset=".998" stop-color="#fff"/></linearGradient><linearGradient id="paint1_linear" x1="275.766" y1="35.108" x2="302.345" y2="55.684" gradientUnits="userSpaceOnUse"><stop offset=".127" stop-color="#fff" stop-opacity=".56"/><stop offset="1" stop-color="#fff" stop-opacity="0"/></linearGradient><linearGradient id="paint3_linear" x1="398.992" y1="433.359" x2="354.019" y2="171.856" gradientUnits="userSpaceOnUse"><stop offset=".001" stop-color="#fff"/><stop offset=".998" stop-color="#fff"/></linearGradient><linearGradient id="paint4_linear" x1="354.108" y1="201.939" x2="371.439" y2="215.356" gradientUnits="userSpaceOnUse"><stop offset=".127" stop-color="#fff" stop-opacity=".56"/><stop offset="1" stop-color="#fff" stop-opacity="0"/></linearGradient><radialGradient id="paint2_radial" cx="0" cy="0" r="1" gradientUnits="userSpaceOnUse" gradientTransform="rotate(45.238 97.993 349.242) scale(25.8512)"><stop stop-color="#fff" stop-opacity=".94"/><stop offset=".348" stop-color="#F7F7F7"/><stop offset=".636" stop-color="#E7E7E7"/><stop offset=".909" stop-color="#fff"/></radialGradient><radialGradient id="paint5_radial" cx="0" cy="0" r="1" gradientUnits="userSpaceOnUse" gradientTransform="rotate(45.238 -63.82 526.407) scale(16.8563)"><stop stop-color="#fff" stop-opacity=".94"/><stop offset=".348" stop-color="#F7F7F7"/><stop offset=".636" stop-color="#E7E7E7"/><stop offset=".909" stop-color="#fff"/></radialGradient><filter id="filter0_f" x="229.771" y="-15.756" width="111.828" height="111.827" filterUnits="userSpaceOnUse" color-interpolation-filters="sRGB"><feFlood flood-opacity="0" result="BackgroundImageFix"/><feBlend in="SourceGraphic" in2="BackgroundImageFix" result="shape"/><feGaussianBlur stdDeviation="22.5" result="effect1_foregroundBlur"/></filter><filter id="filter1_f" x="308.459" y="153.115" width="104.233" height="104.232" filterUnits="userSpaceOnUse" color-interpolation-filters="sRGB"><feFlood flood-opacity="0" result="BackgroundImageFix"/><feBlend in="SourceGraphic" in2="BackgroundImageFix" result="shape"/><feGaussianBlur stdDeviation="22.5" result="effect1_foregroundBlur"/></filter></defs></svg>