<svg width="105" height="76" fill="none" xmlns="http://www.w3.org/2000/svg"><path d="M17.1 70.3l-.527.85.007.004.007.005.513-.859zM5.9 57.7l-.9.434.002.007.004.006.894-.447zm0-39.3l-.897-.443-.002.005.899.438zM17.1 5.8l.518.855.004-.002L17.1 5.8zm32.9 0l-.527.85.007.004.007.005L50 5.8zm11.2 12.6l-.9.434.002.007.004.006.894-.447zm0 39.3l-.897-.443-.002.005.899.438zM50 70.3l.518.855.004-.002L50 70.3zm-16.4 3.3c-6.04 0-11.359-1.394-15.987-4.158l-1.026 1.717C21.56 74.127 27.24 75.6 33.6 75.6v-2zm-15.973-4.15c-4.56-2.826-8.174-6.88-10.833-12.197l-1.788.894c2.807 5.616 6.661 9.963 11.567 13.003l1.054-1.7zM6.8 57.266C4.213 51.896 2.9 45.484 2.9 38h-2c0 7.715 1.354 14.437 4.1 20.134l1.8-.868zM2.9 38c0-7.485 1.313-13.861 3.899-19.162L5 17.962C2.253 23.595.9 30.285.9 38h2zm3.897-19.157c2.659-5.383 6.269-9.43 10.821-12.188l-1.036-1.71C11.667 7.92 7.811 12.273 5.003 17.957l1.794.886zm10.825-12.19C22.248 3.826 27.565 2.4 33.6 2.4v-2c-6.365 0-12.049 1.508-17.021 4.547l1.043 1.706zM33.6 2.4c6.036 0 11.316 1.426 15.873 4.25l1.054-1.7C45.617 1.908 39.964.4 33.6.4v2zm15.887 4.259c4.616 2.756 8.222 6.8 10.812 12.175l1.802-.868C59.358 12.274 55.497 7.918 50.513 4.94l-1.026 1.72zm10.819 12.188C62.955 24.145 64.3 30.518 64.3 38h2c0-7.718-1.388-14.412-4.206-20.047l-1.788.894zM64.3 38c0 7.481-1.345 13.89-3.997 19.257l1.794.886C64.912 52.443 66.3 45.719 66.3 38h-2zm-3.999 19.262c-2.59 5.31-6.199 9.359-10.822 12.185l1.043 1.706c4.976-3.04 8.834-7.391 11.577-13.015l-1.798-.876zM49.482 69.445C44.923 72.205 39.64 73.6 33.6 73.6v2c6.36 0 12.01-1.472 16.918-4.445l-1.036-1.71zM33.6 56.7c1.53 0 2.909-.428 4.093-1.301 1.174-.866 2.102-2.127 2.818-3.712C41.933 48.54 42.6 43.944 42.6 38h-2c0 5.856-.666 10.11-1.911 12.863-.617 1.365-1.356 2.316-2.182 2.926-.816.601-1.77.911-2.907.911v2zm9-18.7c0-5.944-.667-10.54-2.089-13.687-.716-1.585-1.644-2.846-2.818-3.712C36.51 19.728 35.13 19.3 33.6 19.3v2c1.136 0 2.091.31 2.907.911.826.61 1.565 1.561 2.182 2.926C39.934 27.89 40.6 32.144 40.6 38h2zm-9-18.7c-1.53 0-2.909.428-4.094 1.301-1.173.866-2.1 2.127-2.817 3.712C25.267 27.46 24.6 32.056 24.6 38h2c0-5.856.666-10.11 1.911-12.863.617-1.365 1.356-2.316 2.183-2.926.815-.601 1.77-.911 2.906-.911v-2zm-9 18.7c0 5.944.667 10.54 2.089 13.687.716 1.585 1.644 2.846 2.817 3.712 1.185.873 2.564 1.301 4.094 1.301v-2c-1.136 0-2.091-.31-2.907-.911-.826-.61-1.565-1.561-2.182-2.926C27.267 48.11 26.6 43.856 26.6 38h-2zm78.762-35h1V2h-1v1zm0 70v1h1v-1h-1zm-23.6 0h-1v1h1v-1zm0-52.2h1v-1h-1v1zm-12 0h-1v1h1v-1zm0-17.8V2h-1v1h1zm34.6 0v70h2V3h-2zm1 69h-23.6v2h23.6v-2zm-22.6 1V20.8h-2V73h2zm-1-53.2h-12v2h12v-2zm-11 1V3h-2v17.8h2zm-1-16.8h35.6V2h-35.6v2z" fill="#E0E0E0"/></svg>