<svg width="590" height="520" fill="none" xmlns="http://www.w3.org/2000/svg"><path d="M33.973 332.183a1.7 1.7 0 01-2.026-1.309A237.915 237.915 0 01415.835 98.181a237.914 237.914 0 01-16.863 380.286A237.912 237.912 0 01261.985 519.9a1.7 1.7 0 01-1.677-1.734 1.72 1.72 0 011.742-1.682 234.505 234.505 0 00222.747-153.325 234.5 234.5 0 10-449.512-33.01 1.719 1.719 0 01-1.312 2.034z" fill="#F5F5F5"/><path d="M418.706 330.966a1.593 1.593 0 011.032 2.015 163.593 163.593 0 01-246.779 84.282 163.595 163.595 0 01-66.684-177.508 163.59 163.59 0 01241.232-99.048 1.593 1.593 0 01.55 2.196 1.617 1.617 0 01-2.207.552 160.385 160.385 0 00-183.99 14.865 160.377 160.377 0 00-47.58 179.707 160.377 160.377 0 00154.133 103.931 160.387 160.387 0 00148.268-109.954 1.618 1.618 0 012.025-1.038z" fill="#F5F5F5"/><path d="M351.707 263.145a1.64 1.64 0 011.963 1.275 90.492 90.492 0 01-41.579 94.81 90.486 90.486 0 01-104.631-7.301 90.491 90.491 0 01-27.448-101.231 90.487 90.487 0 0184.95-59.17c.919 0 1.649.76 1.631 1.678a1.686 1.686 0 01-1.694 1.647 87.16 87.16 0 00-81.767 56.996 87.166 87.166 0 0075.71 117.119 87.159 87.159 0 0086.209-52.68 87.162 87.162 0 005.368-51.162 1.687 1.687 0 011.288-1.981z" fill="#F5F5F5"/><g filter="url(#filter0_f)"><path d="M231.832 31.366c-2.969-11.08-14.353-17.652-25.433-14.684-11.08 2.97-17.653 14.353-14.684 25.433 2.969 11.08 14.353 17.652 25.433 14.684 11.052-2.92 17.663-14.315 14.684-25.433z" fill="#F4F4F4"/></g><path d="M230.601 30.419c-2.969-11.08-14.353-17.653-25.433-14.684-11.079 2.969-17.652 14.353-14.683 25.433 2.969 11.08 14.353 17.652 25.433 14.683 11.051-2.92 17.662-14.314 14.683-25.432z" fill="#fff"/><path d="M230.601 30.419c-2.969-11.08-14.353-17.653-25.433-14.684-11.079 2.969-17.652 14.353-14.683 25.433 2.969 11.08 14.353 17.652 25.433 14.683 11.051-2.92 17.662-14.314 14.683-25.432z" fill="url(#paint0_linear)" fill-opacity=".5"/><path d="M230.601 30.419c-2.969-11.08-14.353-17.653-25.433-14.684-11.079 2.969-17.652 14.353-14.683 25.433 2.969 11.08 14.353 17.652 25.433 14.683 11.051-2.92 17.662-14.314 14.683-25.432z" fill="url(#paint1_linear)"/><path d="M230.601 30.419c-2.969-11.08-14.353-17.653-25.433-14.684-11.079 2.969-17.652 14.353-14.683 25.433 2.969 11.08 14.353 17.652 25.433 14.683 11.051-2.92 17.662-14.314 14.683-25.432z" fill="url(#paint2_radial)"/><g filter="url(#filter1_f)"><path d="M163.606 286.499c-1.893-7.063-9.15-11.254-16.214-9.361-7.064 1.893-11.254 9.151-9.361 16.214 1.892 7.064 9.15 11.254 16.214 9.362 7.046-1.862 11.26-9.127 9.361-16.215z" fill="#F4F4F4"/></g><path d="M162.003 285.895c-1.893-7.063-9.151-11.254-16.215-9.361-7.063 1.893-11.254 9.151-9.361 16.214 1.893 7.064 9.151 11.254 16.214 9.362 7.046-1.862 11.261-9.127 9.362-16.215z" fill="#fff"/><path d="M162.003 285.895c-1.893-7.063-9.151-11.254-16.215-9.361-7.063 1.893-11.254 9.151-9.361 16.214 1.893 7.064 9.151 11.254 16.214 9.362 7.046-1.862 11.261-9.127 9.362-16.215z" fill="url(#paint3_linear)" fill-opacity=".5"/><path d="M162.003 285.895c-1.893-7.063-9.151-11.254-16.215-9.361-7.063 1.893-11.254 9.151-9.361 16.214 1.893 7.064 9.151 11.254 16.214 9.362 7.046-1.862 11.261-9.127 9.362-16.215z" fill="url(#paint4_linear)"/><path d="M162.003 285.895c-1.893-7.063-9.151-11.254-16.215-9.361-7.063 1.893-11.254 9.151-9.361 16.214 1.893 7.064 9.151 11.254 16.214 9.362 7.046-1.862 11.261-9.127 9.362-16.215z" fill="url(#paint5_radial)"/><defs><linearGradient id="paint0_linear" x1="325.191" y1="702.617" x2="193.92" y2="-60.679" gradientUnits="userSpaceOnUse"><stop offset=".001" stop-color="#fff"/><stop offset=".998" stop-color="#fff"/></linearGradient><linearGradient id="paint1_linear" x1="194.179" y1="27.13" x2="244.767" y2="66.293" gradientUnits="userSpaceOnUse"><stop offset=".127" stop-color="#fff" stop-opacity=".56"/><stop offset="1" stop-color="#fff" stop-opacity="0"/></linearGradient><linearGradient id="paint3_linear" x1="222.307" y1="714.446" x2="138.617" y2="227.817" gradientUnits="userSpaceOnUse"><stop offset=".001" stop-color="#fff"/><stop offset=".998" stop-color="#fff"/></linearGradient><linearGradient id="paint4_linear" x1="138.782" y1="283.799" x2="171.034" y2="308.766" gradientUnits="userSpaceOnUse"><stop offset=".127" stop-color="#fff" stop-opacity=".56"/><stop offset="1" stop-color="#fff" stop-opacity="0"/></linearGradient><radialGradient id="paint2_radial" cx="0" cy="0" r="1" gradientUnits="userSpaceOnUse" gradientTransform="rotate(45.238 68.797 248.03) scale(49.2016)"><stop stop-color="#fff" stop-opacity=".94"/><stop offset=".348" stop-color="#F7F7F7"/><stop offset=".636" stop-color="#E7E7E7"/><stop offset=".909" stop-color="#fff"/></radialGradient><radialGradient id="paint5_radial" cx="0" cy="0" r="1" gradientUnits="userSpaceOnUse" gradientTransform="rotate(45.238 -268.46 309.364) scale(31.3678)"><stop stop-color="#fff" stop-opacity=".94"/><stop offset=".348" stop-color="#F7F7F7"/><stop offset=".636" stop-color="#E7E7E7"/><stop offset=".909" stop-color="#fff"/></radialGradient><filter id="filter0_f" x="146.002" y="-29.031" width="131.544" height="131.542" filterUnits="userSpaceOnUse" color-interpolation-filters="sRGB"><feFlood flood-opacity="0" result="BackgroundImageFix"/><feBlend in="SourceGraphic" in2="BackgroundImageFix" result="shape"/><feGaussianBlur stdDeviation="22.5" result="effect1_foregroundBlur"/></filter><filter id="filter1_f" x="92.576" y="231.684" width="116.486" height="116.485" filterUnits="userSpaceOnUse" color-interpolation-filters="sRGB"><feFlood flood-opacity="0" result="BackgroundImageFix"/><feBlend in="SourceGraphic" in2="BackgroundImageFix" result="shape"/><feGaussianBlur stdDeviation="22.5" result="effect1_foregroundBlur"/></filter></defs></svg>