<svg width="590" height="520" fill="none" xmlns="http://www.w3.org/2000/svg"><path d="M33.973 332.183a1.699 1.699 0 01-2.026-1.308A237.918 237.918 0 11261.985 519.9a1.699 1.699 0 01-1.677-1.734 1.719 1.719 0 011.742-1.681 234.499 234.499 0 00229.067-295.851A234.505 234.505 0 00281.111 48.069 234.5 234.5 0 0035.285 330.15a1.718 1.718 0 01-1.312 2.034z" fill="#F5F5F5"/><path d="M351.707 263.144a1.64 1.64 0 011.963 1.275 90.48 90.48 0 01-41.579 94.81 90.487 90.487 0 01-98.217-151.937 90.487 90.487 0 0151.088-15.765 1.639 1.639 0 011.631 1.679 1.687 1.687 0 01-1.694 1.647 87.16 87.16 0 00-84.116 109.972 87.16 87.16 0 00129.574 51.567 87.17 87.17 0 0040.062-91.266 1.689 1.689 0 011.288-1.982z" fill="#F5F5F5"/><path d="M418.706 330.967a1.593 1.593 0 011.032 2.015 163.59 163.59 0 11-72.231-192.275 1.593 1.593 0 01.55 2.196 1.619 1.619 0 01-2.207.553 160.379 160.379 0 00-183.99 14.864 160.385 160.385 0 00-47.58 179.708 160.38 160.38 0 00302.401-6.024 1.618 1.618 0 012.025-1.037z" fill="#F5F5F5"/><g filter="url(#filter0_f)"><path d="M231.832 31.365c-2.969-11.08-14.353-17.652-25.433-14.683-11.08 2.969-17.653 14.353-14.684 25.433 2.969 11.08 14.353 17.652 25.433 14.683 11.052-2.92 17.663-14.315 14.684-25.433z" fill="#F4F4F4"/></g><path d="M230.601 30.418c-2.969-11.08-14.353-17.652-25.433-14.683-11.079 2.968-17.652 14.353-14.683 25.432 2.969 11.08 14.353 17.653 25.433 14.684 11.051-2.92 17.662-14.315 14.683-25.433z" fill="#fff"/><path d="M230.601 30.418c-2.969-11.08-14.353-17.652-25.433-14.683-11.079 2.968-17.652 14.353-14.683 25.432 2.969 11.08 14.353 17.653 25.433 14.684 11.051-2.92 17.662-14.315 14.683-25.433z" fill="url(#paint0_linear)" fill-opacity=".5"/><path d="M230.601 30.418c-2.969-11.08-14.353-17.652-25.433-14.683-11.079 2.968-17.652 14.353-14.683 25.432 2.969 11.08 14.353 17.653 25.433 14.684 11.051-2.92 17.662-14.315 14.683-25.433z" fill="url(#paint1_linear)"/><path d="M230.601 30.418c-2.969-11.08-14.353-17.652-25.433-14.683-11.079 2.968-17.652 14.353-14.683 25.432 2.969 11.08 14.353 17.653 25.433 14.684 11.051-2.92 17.662-14.315 14.683-25.433z" fill="url(#paint2_radial)"/><g filter="url(#filter1_f)"><path d="M322.606 124.753c-1.893-7.064-9.15-11.254-16.214-9.362-7.064 1.893-11.254 9.151-9.361 16.215 1.892 7.063 9.15 11.254 16.214 9.361 7.046-1.862 11.26-9.126 9.361-16.214z" fill="#F4F4F4"/></g><path d="M321.003 124.148c-1.893-7.064-9.151-11.254-16.215-9.361-7.063 1.893-11.254 9.15-9.361 16.214 1.893 7.064 9.151 11.254 16.214 9.361 7.046-1.861 11.261-9.126 9.362-16.214z" fill="#fff"/><path d="M321.003 124.148c-1.893-7.064-9.151-11.254-16.215-9.361-7.063 1.893-11.254 9.15-9.361 16.214 1.893 7.064 9.151 11.254 16.214 9.361 7.046-1.861 11.261-9.126 9.362-16.214z" fill="url(#paint3_linear)" fill-opacity=".5"/><path d="M321.003 124.148c-1.893-7.064-9.151-11.254-16.215-9.361-7.063 1.893-11.254 9.15-9.361 16.214 1.893 7.064 9.151 11.254 16.214 9.361 7.046-1.861 11.261-9.126 9.362-16.214z" fill="url(#paint4_linear)"/><path d="M321.003 124.148c-1.893-7.064-9.151-11.254-16.215-9.361-7.063 1.893-11.254 9.15-9.361 16.214 1.893 7.064 9.151 11.254 16.214 9.361 7.046-1.861 11.261-9.126 9.362-16.214z" fill="url(#paint5_radial)"/><defs><linearGradient id="paint0_linear" x1="325.191" y1="702.616" x2="193.92" y2="-60.68" gradientUnits="userSpaceOnUse"><stop offset=".001" stop-color="#fff"/><stop offset=".998" stop-color="#fff"/></linearGradient><linearGradient id="paint1_linear" x1="194.179" y1="27.129" x2="244.767" y2="66.292" gradientUnits="userSpaceOnUse"><stop offset=".127" stop-color="#fff" stop-opacity=".56"/><stop offset="1" stop-color="#fff" stop-opacity="0"/></linearGradient><linearGradient id="paint3_linear" x1="381.307" y1="552.699" x2="297.617" y2="66.07" gradientUnits="userSpaceOnUse"><stop offset=".001" stop-color="#fff"/><stop offset=".998" stop-color="#fff"/></linearGradient><linearGradient id="paint4_linear" x1="297.782" y1="122.051" x2="330.034" y2="147.019" gradientUnits="userSpaceOnUse"><stop offset=".127" stop-color="#fff" stop-opacity=".56"/><stop offset="1" stop-color="#fff" stop-opacity="0"/></linearGradient><radialGradient id="paint2_radial" cx="0" cy="0" r="1" gradientUnits="userSpaceOnUse" gradientTransform="rotate(45.238 68.797 248.03) scale(49.2016)"><stop stop-color="#fff" stop-opacity=".94"/><stop offset=".348" stop-color="#F7F7F7"/><stop offset=".636" stop-color="#E7E7E7"/><stop offset=".909" stop-color="#fff"/></radialGradient><radialGradient id="paint5_radial" cx="0" cy="0" r="1" gradientUnits="userSpaceOnUse" gradientTransform="rotate(45.238 5.144 419.296) scale(31.3678)"><stop stop-color="#fff" stop-opacity=".94"/><stop offset=".348" stop-color="#F7F7F7"/><stop offset=".636" stop-color="#E7E7E7"/><stop offset=".909" stop-color="#fff"/></radialGradient><filter id="filter0_f" x="141.34" y="-33.692" width="140.866" height="140.866" filterUnits="userSpaceOnUse" color-interpolation-filters="sRGB"><feFlood flood-opacity="0" result="BackgroundImageFix"/><feBlend in="SourceGraphic" in2="BackgroundImageFix" result="shape"/><feGaussianBlur stdDeviation="22.5" result="effect1_foregroundBlur"/></filter><filter id="filter1_f" x="248.604" y="66.965" width="122.429" height="122.429" filterUnits="userSpaceOnUse" color-interpolation-filters="sRGB"><feFlood flood-opacity="0" result="BackgroundImageFix"/><feBlend in="SourceGraphic" in2="BackgroundImageFix" result="shape"/><feGaussianBlur stdDeviation="22.5" result="effect1_foregroundBlur"/></filter></defs></svg>