<svg width="48" height="48" fill="none" xmlns="http://www.w3.org/2000/svg"><path d="M45.099 7.28L38.464.647A2.192 2.192 0 0036.904 0H8.969C7.753 0 6.763.99 6.763 2.206v21.842H5.212a2.961 2.961 0 00-2.958 2.958v13.527a2.961 2.961 0 002.958 2.958h23.296a2.21 2.21 0 002.207-2.206V30.764c0-1.217-.99-2.206-2.207-2.206H5.212a1.553 1.553 0 01-1.552-1.552c0-.855.696-1.551 1.552-1.551h1.55v.8a.703.703 0 001.407 0V2.206a.8.8 0 01.8-.8h27.103v6.812c0 .802.652 1.455 1.454 1.455h6.813v36.12a.8.8 0 01-.8.8H8.969a.8.8 0 01-.8-.8.703.703 0 00-1.406 0A2.21 2.21 0 008.969 48h34.57c1.216 0 2.206-.99 2.206-2.206V8.84c0-.59-.23-1.143-.646-1.56zM5.212 29.965h23.296a.8.8 0 01.8.8v10.52a.8.8 0 01-.8.8H5.212a1.553 1.553 0 01-1.552-1.55v-11.01c.451.279.983.44 1.552.44zM37.478 8.218V1.65l6.618 6.618h-6.57a.049.049 0 01-.048-.049z" fill="url(#paint0_linear)"/><path d="M8.09 39.312c.305.222.738.424 1.224.424.276 0 .57-.065.866-.23.604-.336.98-.98.98-1.683v-4.805a.703.703 0 00-.725-.703c-.385.012-.681.348-.681.733v4.775a.515.515 0 01-.257.454c-.223.124-.473-.024-.593-.115a.697.697 0 00-1.104.66c.029.195.13.373.29.49z" fill="url(#paint1_linear)"/><path d="M22.625 39.733c1.942 0 3.298-1.525 3.298-3.709a.703.703 0 00-.703-.703h-1.798a.703.703 0 000 1.406h1.02c-.183.84-.724 1.6-1.817 1.6a2.305 2.305 0 01-2.303-2.303 2.306 2.306 0 013.59-1.91.703.703 0 10.787-1.165 3.691 3.691 0 00-2.074-.634 3.713 3.713 0 00-3.709 3.71 3.713 3.713 0 003.71 3.708z" fill="url(#paint2_linear)"/><path d="M13.598 39.733a.703.703 0 00.703-.703v-1.912l.97-.004c1.342 0 2.434-1.076 2.434-2.4 0-1.322-1.092-2.4-2.433-2.4h-1.674a.703.703 0 00-.704.706v6.01c0 .389.315.703.704.703zm1.674-6.012c.556 0 1.026.455 1.026.994 0 .538-.47.993-1.026.993l-.963.004-.006-1.99h.969z" fill="url(#paint3_linear)"/><path d="M16.585 24.27a.703.703 0 00.65.433H35.27a.703.703 0 00.703-.703v-5.26a.703.703 0 00-.206-.498l-3.446-3.446a2.192 2.192 0 00-1.56-.646c-.59 0-1.144.23-1.56.646l-3.79 3.79-.75-.5a2.212 2.212 0 00-2.784.276l-5.14 5.14a.703.703 0 00-.153.767zm6.287-4.913a.802.802 0 011.01-.1l1.229.819c.279.186.65.15.887-.088l4.198-4.198a.795.795 0 01.566-.234c.213 0 .414.083.565.234l3.24 3.24v4.267H18.932l3.94-3.94z" fill="url(#paint4_linear)"/><path d="M23.95 13.103a3.337 3.337 0 00-3.333-3.333 3.337 3.337 0 00-3.334 3.333 3.337 3.337 0 003.334 3.333 3.337 3.337 0 003.333-3.333zm-5.26 0a1.93 1.93 0 011.927-1.927 1.93 1.93 0 011.927 1.927 1.93 1.93 0 01-1.927 1.927 1.93 1.93 0 01-1.928-1.927z" fill="url(#paint5_linear)"/><defs><linearGradient id="paint0_linear" x1="45.745" y1="14.4" x2="1.029" y2="31.619" gradientUnits="userSpaceOnUse"><stop stop-color="#57D1DC"/><stop offset="1" stop-color="#049EFC"/></linearGradient><linearGradient id="paint1_linear" x1="11.16" y1="34.541" x2="7.327" y2="35.28" gradientUnits="userSpaceOnUse"><stop stop-color="#57D1DC"/><stop offset="1" stop-color="#049EFC"/></linearGradient><linearGradient id="paint2_linear" x1="25.923" y1="34.54" x2="18.799" y2="37.401" gradientUnits="userSpaceOnUse"><stop stop-color="#57D1DC"/><stop offset="1" stop-color="#049EFC"/></linearGradient><linearGradient id="paint3_linear" x1="17.705" y1="34.541" x2="12.427" y2="35.995" gradientUnits="userSpaceOnUse"><stop stop-color="#57D1DC"/><stop offset="1" stop-color="#049EFC"/></linearGradient><linearGradient id="paint4_linear" x1="35.974" y1="17.316" x2="21.744" y2="28.458" gradientUnits="userSpaceOnUse"><stop stop-color="#57D1DC"/><stop offset="1" stop-color="#049EFC"/></linearGradient><linearGradient id="paint5_linear" x1="23.95" y1="11.77" x2="17.283" y2="14.603" gradientUnits="userSpaceOnUse"><stop stop-color="#57D1DC"/><stop offset="1" stop-color="#049EFC"/></linearGradient></defs></svg>