<svg width="237" height="33" fill="none" xmlns="http://www.w3.org/2000/svg"><path d="M14.753 1.256c-2.786 0-5.332.809-7.564 2.232C6.695 1.998 5.332.94 3.722.94A3.731 3.731 0 000 4.663v23.68a3.731 3.731 0 003.722 3.721 3.731 3.731 0 003.722-3.722V17.806c0-4.276 2.478-9.114 7.316-9.114 3.902 0 7.13 3.535 7.13 7.93v11.713c0 2.044 1.61 3.722 3.721 3.722 2.045 0 3.655-1.67 3.655-3.722V16.623C29.258 8.13 22.75 1.256 14.753 1.256z" fill="url(#paint0_linear)"/><path d="M63.286 1.316c-3.407 0-6.387 1.243-8.552 3.347-2.299-2.112-5.272-3.347-8.56-3.347-2.044 0-3.968.494-5.705 1.363-.555-.869-1.67-1.49-2.854-1.49-1.984 0-3.721 1.737-3.721 3.781v23.68c0 1.984 1.737 3.654 3.721 3.654 2.105 0 3.722-1.678 3.722-3.655V13.028c0-2.419 2.172-4.276 4.838-4.276s4.838 1.857 4.838 4.276v15.434c0 2.104 1.61 3.722 3.721 3.722 1.985 0 3.655-1.61 3.655-3.722V13.028c0-2.419 2.172-4.276 4.897-4.276 2.54 0 4.71 1.857 4.71 4.276v15.434c0 2.104 1.738 3.722 3.783 3.722 2.044 0 3.654-1.61 3.654-3.722V13.028c0-6.448-5.519-11.712-12.147-11.712z" fill="url(#paint1_linear)"/><path d="M101.772 22.389c-1.491 1.363-3.408 2.171-5.452 2.171a7.701 7.701 0 01-5.699-2.291 7.786 7.786 0 01-2.479-5.64c-.06-2.17.81-4.215 2.232-5.765 1.55-1.55 3.535-2.48 5.706-2.48.45 0 .892.053 1.333.12-1.4-2.35-.808-5.9 1.745-7.256a14.654 14.654 0 00-3.198-.3c-4.156.128-7.997 1.798-10.843 4.77-2.973 2.974-4.463 6.943-4.403 11.032.127 4.156 1.797 7.998 4.77 10.91 2.913 2.786 6.695 4.337 10.784 4.337h.247a15.41 15.41 0 0010.289-4.157c1.49-1.422 1.61-3.781.187-5.272-1.378-1.482-3.789-1.602-5.219-.18z" fill="url(#paint2_linear)"/><path d="M104.445 10.025a3.931 3.931 0 10-3.931-3.932 3.926 3.926 0 003.931 3.932z" fill="url(#paint3_linear)"/><path d="M122.425.941h-.427v31.363h.427V.94z" fill="#E5E5E5"/><path d="M141.563 13.53h-.861v-3.474h-3.887v3.475h-.861V6.138h.861v3.145h3.887V6.14h.861v7.391zm6.681-2.778c0 .906-.225 1.61-.682 2.111-.457.51-1.086.764-1.887.764-.494 0-.936-.12-1.318-.352a2.332 2.332 0 01-.891-1.003c-.21-.434-.315-.944-.315-1.528 0-.899.225-1.602.674-2.112.45-.501 1.079-.756 1.88-.756.771 0 1.393.255 1.842.771.472.532.697 1.228.697 2.105zm-4.216 0c0 .704.142 1.243.426 1.617.285.375.697.554 1.251.554.547 0 .966-.187 1.251-.554.284-.367.426-.906.426-1.617 0-.704-.142-1.236-.426-1.603-.285-.367-.704-.547-1.258-.547-.547 0-.967.18-1.244.54-.292.359-.426.898-.426 1.61zm10.176-1.37c0 .36-.105.636-.315.823-.209.188-.494.315-.868.375v.045c.471.06.816.202 1.033.412.217.21.322.509.322.876 0 .517-.187.913-.569 1.19-.382.278-.929.42-1.663.42h-2.441V7.989h2.426c1.386 0 2.075.464 2.075 1.393zm-.816.082c0-.27-.105-.457-.315-.577-.21-.112-.524-.172-.944-.172h-1.58v1.558h1.416c.516 0 .883-.068 1.101-.195.209-.12.322-.33.322-.614zm.157 2.396c0-.3-.113-.516-.345-.651-.232-.135-.606-.202-1.13-.202h-1.521v1.82h1.543c.966 0 1.453-.323 1.453-.967zm5.459 1.67l-.165-.786h-.037c-.277.345-.554.584-.824.704-.277.12-.614.187-1.026.187-.546 0-.981-.142-1.288-.427-.314-.284-.472-.681-.472-1.205 0-1.116.892-1.7 2.681-1.76l.936-.03v-.345c0-.434-.097-.756-.277-.966-.187-.21-.486-.314-.898-.314-.465 0-.981.142-1.565.427l-.255-.637a4.013 4.013 0 011.872-.48c.659 0 1.146.15 1.468.443.314.292.479.764.479 1.408v3.781h-.629zm-1.895-.591c.525 0 .929-.143 1.229-.427.299-.285.449-.689.449-1.206v-.501l-.839.037c-.666.022-1.146.127-1.445.314-.3.188-.442.472-.442.854 0 .3.09.532.277.69.18.156.442.239.771.239zm4.517.591h-.981l1.595-2.336c-.427-.098-.757-.277-.981-.547-.225-.27-.345-.614-.345-1.026 0-.502.172-.899.509-1.19.345-.293.817-.435 1.423-.435h2.464v5.534h-.839v-2.209h-1.4l-1.445 2.21zm.112-3.901c0 .636.464.958 1.393.958h1.348V8.715h-1.52c-.817.007-1.221.307-1.221.914zm11.435 3.901l-2.501-6.545h-.037c.045.517.067 1.138.067 1.85v4.695h-.794V6.139h1.296l2.336 6.095h.038l2.359-6.095h1.28v7.384h-.861V8.767c0-.546.022-1.138.075-1.775h-.038l-2.523 6.538h-.697zm8.29.097c-.816 0-1.46-.247-1.939-.748-.472-.495-.712-1.191-.712-2.075 0-.891.218-1.602.66-2.127.441-.524 1.033-.786 1.767-.786.696 0 1.243.232 1.647.682.405.456.607 1.055.607 1.804v.532h-3.812c.015.652.18 1.146.494 1.483.315.337.749.509 1.318.509.6 0 1.184-.127 1.768-.374v.748c-.3.128-.577.218-.839.277-.27.053-.584.075-.959.075zm-.232-5.032c-.441 0-.801.142-1.063.434-.262.292-.419.69-.464 1.206h2.898c0-.532-.12-.936-.352-1.213-.24-.292-.577-.427-1.019-.427zm8.507 6.845h-.816v-1.917h-3.872v1.917h-.809v-2.636h.435c.449-.614.801-1.333 1.063-2.157a9.197 9.197 0 00.397-2.658h2.801v4.815h.793v2.636h.008zm-1.603-2.636V8.655h-1.243a9.13 9.13 0 01-.434 2.27c-.247.763-.547 1.392-.914 1.879h2.591zm3.491-4.815V11.5l-.037.921-.015.285 2.996-4.718h1.04v5.534h-.786v-3.385l.015-.666.023-.66-2.988 4.71h-1.049V7.99h.801zm11.171 7.451h-.839v-1.917h-4.561V7.989h.839v4.815h2.943V7.989h.839v4.815h.786v2.636h-.007zm1.867-7.451V11.5l-.038.921-.015.285 2.996-4.718h1.041v5.534h-.787v-3.385l.015-.666.023-.66-2.988 4.71h-1.049V7.99h.802zm6.605 0v2.321h3.101V7.99h.838v5.534h-.838V11.03h-3.101v2.494h-.838V7.989h.838zm7.928 5.639c-.802 0-1.423-.248-1.865-.742-.442-.494-.659-1.19-.659-2.097 0-.928.225-1.64.666-2.149.45-.51 1.079-.756 1.91-.756.27 0 .532.03.801.082.27.06.472.127.629.202l-.254.712a4.483 4.483 0 00-.607-.187 2.97 2.97 0 00-.584-.075c-1.123 0-1.685.719-1.685 2.149 0 .681.135 1.206.412 1.565.277.36.681.547 1.221.547.464 0 .936-.098 1.422-.3v.741c-.382.21-.846.308-1.407.308zm5.939-5.639h.921l-2.389 2.673 2.584 2.868h-.981l-2.524-2.8v2.8h-.839V7.99h.839v2.696l2.389-2.696zm5.551 5.541l-.165-.786h-.037c-.278.345-.555.584-.824.704-.277.12-.614.187-1.026.187-.547 0-.981-.142-1.288-.427-.315-.284-.472-.681-.472-1.205 0-1.116.891-1.7 2.681-1.76l.936-.03v-.345c0-.434-.097-.756-.277-.966-.187-.21-.487-.314-.899-.314-.464 0-.981.142-1.565.427l-.254-.637a4.005 4.005 0 011.872-.48c.659 0 1.145.15 1.468.443.314.292.479.764.479 1.408v3.781h-.629zm-1.895-.591c.524 0 .929-.143 1.228-.427.3-.285.45-.689.45-1.206v-.501l-.839.037c-.667.022-1.146.127-1.445.314-.3.188-.442.472-.442.854 0 .3.09.532.277.69.187.156.442.239.771.239zm4.524.591h-.981l1.595-2.336c-.427-.098-.756-.277-.981-.547-.225-.27-.344-.614-.344-1.026 0-.502.172-.899.509-1.19.344-.293.816-.435 1.423-.435H237v5.534h-.838v-2.209h-1.401l-1.445 2.21zm.105-3.901c0 .636.464.958 1.393.958h1.348V8.715h-1.521c-.816.007-1.22.307-1.22.914zm-92.149 17.695h-1.041l-3.415-3.744v3.744h-.861V19.94h.861v3.58l3.333-3.58h.981l-3.265 3.587 3.407 3.797zm5.669-2.778c0 .906-.225 1.61-.682 2.112-.456.51-1.085.764-1.887.764-.494 0-.936-.12-1.318-.352a2.331 2.331 0 01-.891-1.004c-.21-.434-.314-.943-.314-1.527 0-.9.224-1.603.674-2.112.449-.502 1.078-.757 1.879-.757.772 0 1.393.255 1.842.772.472.531.697 1.228.697 2.104zm-4.216 0c0 .704.142 1.243.427 1.618.284.374.696.554 1.25.554.547 0 .966-.188 1.251-.554.284-.367.427-.907.427-1.618 0-.704-.143-1.236-.427-1.602-.285-.367-.704-.547-1.258-.547-.547 0-.966.18-1.243.539-.292.36-.427.899-.427 1.61zm8.56 1.969l.157-.472.217-.599 1.498-3.654h1.063v5.526h-.741v-4.568l-.105.292-.292.772-1.431 3.504h-.703l-1.431-3.52a9.738 9.738 0 01-.367-1.055v4.568h-.749v-5.527h1.026l1.453 3.512c.15.382.285.787.405 1.221zm5.563.809h-.839V21.79h4.65v5.534h-.853v-4.816h-2.958v4.816zm8.993 0l-.165-.786h-.037c-.277.345-.554.584-.824.704-.277.12-.614.187-1.026.187-.547 0-.981-.142-1.288-.427-.314-.284-.472-.681-.472-1.205 0-1.116.891-1.7 2.681-1.76l.936-.03v-.345c0-.434-.097-.756-.277-.966-.187-.21-.487-.314-.898-.314-.465 0-.981.142-1.566.427l-.254-.637a4.004 4.004 0 011.872-.48c.659 0 1.146.15 1.468.443.314.292.479.763.479 1.408v3.781h-.629zm-1.895-.591c.525 0 .929-.143 1.229-.427.299-.285.449-.69.449-1.206v-.502l-.839.038c-.666.022-1.146.127-1.445.314-.292.18-.442.472-.442.854 0 .3.09.532.277.69.187.156.442.239.771.239zm5.085-4.951v2.322h3.1v-2.322h.839v5.534h-.839v-2.493h-3.1v2.493h-.839v-5.534h.839zm6.501 0v3.512l-.038.921-.015.285 2.996-4.718h1.041v5.534h-.787v-3.384l.015-.667.023-.659-2.988 4.71h-1.049v-5.534h.802zm6.052 5.542h-.981l1.595-2.337c-.427-.097-.757-.277-.981-.546-.225-.27-.345-.614-.345-1.026 0-.502.172-.9.509-1.191.345-.292.817-.434 1.423-.434h2.464v5.534h-.839v-2.21h-1.4l-1.445 2.21zm.104-3.902c0 .637.465.959 1.393.959h1.348v-1.872h-1.52c-.816 0-1.221.306-1.221.913z" fill="#1F688E"/><defs><linearGradient id="paint0_linear" x1="-24.875" y1="13.505" x2="121.147" y2="26.901" gradientUnits="userSpaceOnUse"><stop offset=".001" stop-color="#049EFC"/><stop offset=".998" stop-color="#62D8D8"/></linearGradient><linearGradient id="paint1_linear" x1="-24.545" y1="9.911" x2="121.477" y2="23.308" gradientUnits="userSpaceOnUse"><stop offset=".001" stop-color="#049EFC"/><stop offset=".998" stop-color="#62D8D8"/></linearGradient><linearGradient id="paint2_linear" x1="-24.133" y1="5.432" x2="121.889" y2="18.828" gradientUnits="userSpaceOnUse"><stop offset=".001" stop-color="#049EFC"/><stop offset=".998" stop-color="#62D8D8"/></linearGradient><linearGradient id="paint3_linear" x1="-23.119" y1="-5.616" x2="122.902" y2="7.781" gradientUnits="userSpaceOnUse"><stop offset=".001" stop-color="#049EFC"/><stop offset=".998" stop-color="#62D8D8"/></linearGradient></defs></svg>