<svg width="13" height="17" fill="none" xmlns="http://www.w3.org/2000/svg"><path d="M11.783 3.058C10.562 1.327 8.626.333 6.473.333c-2.154 0-4.09.994-5.311 2.725C-.054 4.781-.334 6.962.409 8.89a5 5 0 00.938 1.517l4.7 5.406a.564.564 0 00.851 0l4.698-5.405c.425-.482.74-.992.938-1.514.745-1.93.465-4.112-.75-5.835zm-.297 5.45c-.152.404-.4.802-.738 1.185l-.002.003-4.273 4.916-4.276-4.92a3.897 3.897 0 01-.74-1.187c-.615-1.593-.381-3.397.625-4.823 1.01-1.432 2.61-2.253 4.39-2.253 1.781 0 3.381.821 4.39 2.253 1.007 1.426 1.241 3.23.624 4.827z" fill="#002122"/><path d="M6.473 3.585c-1.728 0-3.133 1.376-3.133 3.069 0 1.692 1.405 3.068 3.133 3.068 1.727 0 3.133-1.376 3.133-3.068 0-1.692-1.406-3.069-3.133-3.069zm0 5.041c-1.11 0-2.014-.885-2.014-1.972 0-1.088.903-1.973 2.014-1.973 1.11 0 2.014.885 2.014 1.973 0 1.087-.904 1.972-2.014 1.972z" fill="#002122"/></svg>