<svg width="240" height="220" fill="none" xmlns="http://www.w3.org/2000/svg"><g clip-path="url(#clip0)"><path d="M139.151 124.297c.697.493.866 1.46.33 2.123a23.68 23.68 0 01-24.961 7.851 23.676 23.676 0 01-17.078-21.476 23.676 23.676 0 0114.681-23.182 23.673 23.673 0 0125.657 5.134c.605.602.54 1.582-.1 2.146-.64.564-1.612.498-2.222-.098a20.588 20.588 0 00-22.166-4.322 20.583 20.583 0 1023.66 32.16c.543-.658 1.503-.828 2.199-.336z" fill="#6FCCFC"/><path d="M120.269 203.552c12.316 0 26.795-3.169 40.067-7.124 25.438-7.578 40.706-32.242 40.706-58.785v0c0-37.72-24.038-84.586-47.9-113.8C144.079 12.75 133.847 4 120.269 4c-17.435 0-29.354 14.426-40.364 29.722-18.037 25.058-40.409 60.652-40.409 91.527v0" stroke="#6FCCFC" stroke-width="3" stroke-linecap="round" stroke-linejoin="round"/><path d="M156.235 83.907c-3.538-12.411-13.165-38.823-35.375-38.823-7.404 0-13.146 4.314-18.21 10.066-15.692 17.82-30.136 48.006-30.136 71.751v0c0 14.608 7.448 28.533 21.448 32.704 7.578 2.257 16.765 4.037 26.898 4.037 27.71 0 41.271-17.021 41.271-17.021" stroke="#6FCCFC" stroke-width="3" stroke-linecap="round" stroke-linejoin="round"/><g filter="url(#filter0_f)"><path d="M193.01 49.098c-2.443-9.078-11.812-14.462-20.931-12.03-9.118 2.432-14.528 11.759-12.084 20.836 2.443 9.077 11.812 14.462 20.931 12.03 9.095-2.392 14.536-11.728 12.084-20.836z" fill="#F4F4F4"/></g><path d="M190.94 48.322c-2.443-9.078-11.812-14.462-20.931-12.03-9.119 2.432-14.528 11.759-12.085 20.836 2.444 9.078 11.813 14.463 20.932 12.03 9.095-2.392 14.536-11.727 12.084-20.836z" fill="#fff"/><path d="M190.94 48.322c-2.443-9.078-11.812-14.462-20.931-12.03-9.119 2.432-14.528 11.759-12.085 20.836 2.444 9.078 11.813 14.463 20.932 12.03 9.095-2.392 14.536-11.727 12.084-20.836z" fill="url(#paint0_linear)" fill-opacity=".5"/><path d="M190.94 48.322c-2.443-9.078-11.812-14.462-20.931-12.03-9.119 2.432-14.528 11.759-12.085 20.836 2.444 9.078 11.813 14.463 20.932 12.03 9.095-2.392 14.536-11.727 12.084-20.836z" fill="url(#paint1_linear)"/><path d="M190.94 48.322c-2.443-9.078-11.812-14.462-20.931-12.03-9.119 2.432-14.528 11.759-12.085 20.836 2.444 9.078 11.813 14.463 20.932 12.03 9.095-2.392 14.536-11.727 12.084-20.836z" fill="url(#paint2_radial)"/><g filter="url(#filter1_f)"><path d="M129.061 201.287c-1.779-6.609-8.6-10.529-15.239-8.758-6.639 1.77-10.577 8.561-8.798 15.17s8.6 10.529 15.239 8.758c6.622-1.742 10.583-8.538 8.798-15.17z" fill="#F4F4F4"/></g><path d="M127.554 200.722c-1.779-6.609-8.601-10.529-15.24-8.759-6.639 1.771-10.577 8.562-8.798 15.171s8.6 10.529 15.239 8.758c6.622-1.742 10.584-8.538 8.799-15.17z" fill="#fff"/><path d="M127.554 200.722c-1.779-6.609-8.601-10.529-15.24-8.759-6.639 1.771-10.577 8.562-8.798 15.171s8.6 10.529 15.239 8.758c6.622-1.742 10.584-8.538 8.799-15.17z" fill="url(#paint3_linear)" fill-opacity=".5"/><path d="M127.554 200.722c-1.779-6.609-8.601-10.529-15.24-8.759-6.639 1.771-10.577 8.562-8.798 15.171s8.6 10.529 15.239 8.758c6.622-1.742 10.584-8.538 8.799-15.17z" fill="url(#paint4_linear)"/><path d="M127.554 200.722c-1.779-6.609-8.601-10.529-15.24-8.759-6.639 1.771-10.577 8.562-8.798 15.171s8.6 10.529 15.239 8.758c6.622-1.742 10.584-8.538 8.799-15.17z" fill="url(#paint5_radial)"/></g><defs><linearGradient id="paint0_linear" x1="268.787" y1="599.037" x2="161.7" y2="-26.474" gradientUnits="userSpaceOnUse"><stop offset=".001" stop-color="#fff"/><stop offset=".998" stop-color="#fff"/></linearGradient><linearGradient id="paint1_linear" x1="160.965" y1="45.627" x2="202.457" y2="77.895" gradientUnits="userSpaceOnUse"><stop offset=".127" stop-color="#fff" stop-opacity=".56"/><stop offset="1" stop-color="#fff" stop-opacity="0"/></linearGradient><linearGradient id="paint3_linear" x1="184.232" y1="601.679" x2="106.264" y2="146.265" gradientUnits="userSpaceOnUse"><stop offset=".001" stop-color="#fff"/><stop offset=".998" stop-color="#fff"/></linearGradient><linearGradient id="paint4_linear" x1="105.73" y1="198.76" x2="135.939" y2="222.253" gradientUnits="userSpaceOnUse"><stop offset=".127" stop-color="#fff" stop-opacity=".56"/><stop offset="1" stop-color="#fff" stop-opacity="0"/></linearGradient><radialGradient id="paint2_radial" cx="0" cy="0" r="1" gradientUnits="userSpaceOnUse" gradientTransform="rotate(45.108 29.058 217.796) scale(40.4006 40.4017)"><stop stop-color="#fff" stop-opacity=".94"/><stop offset=".348" stop-color="#F7F7F7"/><stop offset=".636" stop-color="#E7E7E7"/><stop offset=".909" stop-color="#fff"/></radialGradient><radialGradient id="paint5_radial" cx="0" cy="0" r="1" gradientUnits="userSpaceOnUse" gradientTransform="rotate(45.109 -183.867 227.539) scale(29.4143 29.4151)"><stop stop-color="#fff" stop-opacity=".94"/><stop offset=".348" stop-color="#F7F7F7"/><stop offset=".636" stop-color="#E7E7E7"/><stop offset=".909" stop-color="#fff"/></radialGradient><filter id="filter0_f" x="114.408" y="-8.516" width="124.191" height="124.035" filterUnits="userSpaceOnUse" color-interpolation-filters="sRGB"><feFlood flood-opacity="0" result="BackgroundImageFix"/><feBlend in="SourceGraphic" in2="BackgroundImageFix" result="shape"/><feGaussianBlur stdDeviation="22.5" result="effect1_foregroundBlur"/></filter><filter id="filter1_f" x="59.596" y="147.103" width="114.893" height="114.779" filterUnits="userSpaceOnUse" color-interpolation-filters="sRGB"><feFlood flood-opacity="0" result="BackgroundImageFix"/><feBlend in="SourceGraphic" in2="BackgroundImageFix" result="shape"/><feGaussianBlur stdDeviation="22.5" result="effect1_foregroundBlur"/></filter><clipPath id="clip0"><path fill="#fff" d="M0 0h240v220H0z"/></clipPath></defs></svg>