<svg width="240" height="220" fill="none" xmlns="http://www.w3.org/2000/svg"><g clip-path="url(#clip0)"><g clip-path="url(#clip1)"><path d="M205.462 41.217c.956-.06 1.797.673 1.674 1.623a9.065 9.065 0 11-9.179-10.228c.958-.02 1.596.895 1.433 1.84-.162.944-1.073 1.55-2.022 1.683a5.588 5.588 0 00-4.118 2.833 5.592 5.592 0 003.669 8.166 5.593 5.593 0 006.652-4.088c.235-.929.935-1.769 1.891-1.829z" fill="#6FCCFC"/><path d="M222.329 70.38c3.862-3.11 7.6-7.758 10.763-12.354 6.097-8.861 4.637-20.525-2.107-28.904v0c-9.6-11.927-29.125-20.69-44.104-23.862-5.642-1.195-11.053-1.35-15.302 2.07-5.26 4.235-5.548 11.378-5.186 18.678.615 12.392 4.608 29.956 13.644 38.46v0c5.648 5.315 8.107 6.58 8.107 6.58" stroke="#6FCCFC" stroke-width="3" stroke-linecap="round" stroke-linejoin="round"/><path d="M203.211 23.473c-4.269-3.026-14.014-8.933-20.999-3.31-2.315 1.863-3.029 4.657-3.165 7.734-.427 9.63 2.732 22.858 8.776 30.367v0c3.711 4.61 9.595 7.119 15.073 4.883 2.953-1.205 6.287-2.966 9.468-5.526 8.715-7.016 8.651-15.827 8.651-15.827" stroke="#6FCCFC" stroke-width="3" stroke-linecap="round" stroke-linejoin="round"/><g filter="url(#filter0_f)"><path d="M228.221 66.542a8.107 8.107 0 00-11.466.087 8.107 8.107 0 00.086 11.466 8.108 8.108 0 0011.467-.086c3.143-3.169 3.115-8.313-.087-11.467z" fill="#F4F4F4"/></g><path d="M227.188 66.72a8.107 8.107 0 00-11.466.087 8.107 8.107 0 00.086 11.467 8.107 8.107 0 0011.466-.087c3.144-3.168 3.116-8.312-.086-11.466z" fill="#fff"/><path d="M227.188 66.72a8.107 8.107 0 00-11.466.087 8.107 8.107 0 00.086 11.467 8.107 8.107 0 0011.466-.087c3.144-3.168 3.116-8.312-.086-11.466z" fill="url(#paint0_linear)" fill-opacity=".5"/><path d="M227.188 66.72a8.107 8.107 0 00-11.466.087 8.107 8.107 0 00.086 11.467 8.107 8.107 0 0011.466-.087c3.144-3.168 3.116-8.312-.086-11.466z" fill="url(#paint1_linear)"/><path d="M227.188 66.72a8.107 8.107 0 00-11.466.087 8.107 8.107 0 00.086 11.467 8.107 8.107 0 0011.466-.087c3.144-3.168 3.116-8.312-.086-11.466z" fill="url(#paint2_radial)"/><path d="M188.848 42.745c.087.215.181.442.283.674.615 1.408 1.602 3.296 2.969 4.464 1.365 1.165 3.352 1.82 4.926 2.196l-26.099 20.568-6.804-8.814 24.725-19.088z" fill="#049EFC" stroke="#6FCCFC" stroke-width="3"/><path d="M91.86 64.923c32.825-25.342 56.122-12.76 63.061-7.78 1.292.926 3.075.993 4.334.02a3.225 3.225 0 014.523.583l10.755 13.93a3.293 3.293 0 01-.595 4.618c-1.241.959-1.655 2.655-1.141 4.137 2.815 8.124 8.713 34.766-23.139 59.357-31.857 24.594-59.132 14.446-67.262 10.43-1.519-.751-3.361-.656-4.702.38l-1.143.882a4 4 0 01-5.61-.722l-9.849-12.756a4 4 0 01.722-5.611l1.045-.807c1.389-1.072 1.936-2.912 1.536-4.62-2.06-8.809-5.29-36.753 27.465-62.04z" fill="#089FFB" stroke="#6FCCFC" stroke-width="3"/><g filter="url(#filter1_f)"><path d="M83.937 75.64c-4.901-4.828-12.786-4.769-17.614.133-4.829 4.901-4.77 12.786.132 17.615 4.901 4.828 12.786 4.769 17.614-.133 4.83-4.868 4.787-12.77-.132-17.614z" fill="#F4F4F4"/></g><path d="M82.351 75.914c-4.901-4.828-12.786-4.769-17.614.133-4.829 4.901-4.77 12.786.132 17.614 4.901 4.829 12.786 4.77 17.614-.132 4.83-4.868 4.787-12.77-.132-17.615z" fill="#fff"/><path d="M82.351 75.914c-4.901-4.828-12.786-4.769-17.614.133-4.829 4.901-4.77 12.786.132 17.614 4.901 4.829 12.786 4.77 17.614-.132 4.83-4.868 4.787-12.77-.132-17.615z" fill="url(#paint3_linear)" fill-opacity=".5"/><path d="M82.351 75.914c-4.901-4.828-12.786-4.769-17.614.133-4.829 4.901-4.77 12.786.132 17.614 4.901 4.829 12.786 4.77 17.614-.132 4.83-4.868 4.787-12.77-.132-17.615z" fill="url(#paint4_linear)"/><path d="M82.351 75.914c-4.901-4.828-12.786-4.769-17.614.133-4.829 4.901-4.77 12.786.132 17.614 4.901 4.829 12.786 4.77 17.614-.132 4.83-4.868 4.787-12.77-.132-17.615z" fill="url(#paint5_radial)"/><path d="M6.056 180.235c-.66-2.571 1.207-5.156 3.86-5.241 25.312-.806 59.702-4.496 69.625-5.605 1.685-.189 3.035-1.422 3.41-3.075l5.83-25.678a4.056 4.056 0 011.061-1.942c2.557-2.613 10.452-10.842 12.647-14.994 2.631-4.977 5.695-18.002 10.963-17.127 5.268.875 3.519 11.411 1.475 18.289a50.298 50.298 0 01-2.549 5.902c-1.621 3.177.863 7.366 4.395 6.867 7.559-1.07 17.278-2.594 20.108-3.711 4.828-1.905 26.91-20.794 34.223-26.798 7.312-6.004 9.363-2.055 3.515 5.997a134.252 134.252 0 00-16.662 29.714c-4.674 11.855-40.514 26.656-52.067 36.467-11.271 9.571-56.103 19.582-77.982 27.685a4.057 4.057 0 01-3.167-.144c-18.152-8.748-14.197-9.095-18.685-26.606z" fill="#089FFB"/><path d="M59.489 171.716c9.33-1.107 15.05-1.78 18.507-2.181 2.761-.32 4.981-3.335 5.597-6.045l5.189-22.854a4.057 4.057 0 011.06-1.942c2.556-2.613 10.452-10.842 12.647-14.994 2.63-4.977 5.695-18.002 10.963-17.127 5.268.875 3.519 11.411 1.475 18.289a50.467 50.467 0 01-2.549 5.902c-1.621 3.177.863 7.366 4.395 6.867 7.558-1.07 17.278-2.594 20.108-3.711 4.828-1.905 26.91-20.795 34.223-26.798 7.312-6.004 9.363-2.055 3.515 5.997a134.23 134.23 0 00-16.662 29.714c-4.619 11.714-39.667 26.305-51.646 36.115-.289.237-.59.428-.931.581-3.326 1.49-22.2 9.891-35.099 14.411-12.63 4.425-32.84 9.793-32.84 9.793" stroke="#6FCCFC" stroke-width="3" stroke-linecap="round" stroke-linejoin="round"/><path d="M166.308 125.043s-14.879 16.151-16.03 19.172c-1.151 3.021-11.351 10.332-13.437 11.267" stroke="#6FCCFC" stroke-width="3" stroke-linecap="round" stroke-linejoin="round"/></g></g><defs><linearGradient id="paint0_linear" x1="391.975" y1="274.333" x2="196.822" y2="43.304" gradientUnits="userSpaceOnUse"><stop offset=".001" stop-color="#fff"/><stop offset=".998" stop-color="#fff"/></linearGradient><linearGradient id="paint1_linear" x1="214.275" y1="72.817" x2="239.052" y2="75.997" gradientUnits="userSpaceOnUse"><stop offset=".127" stop-color="#fff" stop-opacity=".56"/><stop offset="1" stop-color="#fff" stop-opacity="0"/></linearGradient><linearGradient id="paint3_linear" x1="335.488" y1="394.837" x2="35.704" y2="39.943" gradientUnits="userSpaceOnUse"><stop offset=".001" stop-color="#fff"/><stop offset=".998" stop-color="#fff"/></linearGradient><linearGradient id="paint4_linear" x1="62.515" y1="85.278" x2="100.576" y2="90.165" gradientUnits="userSpaceOnUse"><stop offset=".127" stop-color="#fff" stop-opacity=".56"/><stop offset="1" stop-color="#fff" stop-opacity="0"/></linearGradient><radialGradient id="paint2_radial" cx="0" cy="0" r="1" gradientUnits="userSpaceOnUse" gradientTransform="rotate(14.808 -167.794 861.165) scale(19.2119)"><stop stop-color="#fff" stop-opacity=".94"/><stop offset=".348" stop-color="#F7F7F7"/><stop offset=".636" stop-color="#E7E7E7"/><stop offset=".909" stop-color="#fff"/></radialGradient><radialGradient id="paint5_radial" cx="0" cy="0" r="1" gradientUnits="userSpaceOnUse" gradientTransform="rotate(14.808 -288.815 283.658) scale(29.5123)"><stop stop-color="#fff" stop-opacity=".94"/><stop offset=".348" stop-color="#F7F7F7"/><stop offset=".636" stop-color="#E7E7E7"/><stop offset=".909" stop-color="#fff"/></radialGradient><clipPath id="clip0"><path fill="#fff" d="M0 0h240v220H0z"/></clipPath><clipPath id="clip1"><path fill="#fff" transform="rotate(13.904 325.03 140.127)" d="M0 0h266.76v296.283H0z"/></clipPath><filter id="filter0_f" x="166.064" y="15.852" width="112.934" height="112.934" filterUnits="userSpaceOnUse" color-interpolation-filters="sRGB"><feFlood flood-opacity="0" result="BackgroundImageFix"/><feBlend in="SourceGraphic" in2="BackgroundImageFix" result="shape"/><feGaussianBlur stdDeviation="22.5" result="effect1_foregroundBlur"/></filter><filter id="filter1_f" x="12.582" y="21.899" width="125.229" height="125.229" filterUnits="userSpaceOnUse" color-interpolation-filters="sRGB"><feFlood flood-opacity="0" result="BackgroundImageFix"/><feBlend in="SourceGraphic" in2="BackgroundImageFix" result="shape"/><feGaussianBlur stdDeviation="22.5" result="effect1_foregroundBlur"/></filter></defs></svg>