<svg width="240" height="220" fill="none" xmlns="http://www.w3.org/2000/svg"><g clip-path="url(#clip0)"><path d="M100.742 86.366c.523 8.224.478 12.858.365 14.785-.092 1.549-.336 3.067-.564 4.22-.24 1.217-.866 2.308-1.547 3.345-.39.593-.656 1.098-.867 1.49-.218.399-.287.505-.456.436v0a.17.17 0 01-.06-.028c-.295-.22-1.256-1.516-2.525-3.454-3.478-5.318-9.321-14.37-15.533-16.623-3.59-1.302-7.122-1.466-10.055-1.21-4.316.385-7.513 1.977-8.135 3.21-1.05 2.07.225 4.108.413 4.387a.78.78 0 00.28.261c1.366.848 3.199 2.479 5.098 4.342a129.088 129.088 0 017.194 7.693c3.97 4.652 6.724 10.883 9.49 17.047 3.59 7.997 7.167 15.971 13.422 20.89 1.918 1.511 4.362 3.671 6.268 5.771 6.93 7.611 12.565 27.899 14.818 37.997 1.85 8.293 3.226 21.516 3.226 21.516M99.347 58.421c-2.175-20.166-1.774-40.554-.367-42.474 1.076-1.47 2.94-2.44 4.914-2.772 1.05-.176 2.164-.262 3.193-.074 1.051.194 2.01.71 2.844 1.32 1.114.827 1.944 1.955 2.207 3.568.761 4.631 6.269 48.07 7.648 58.062.12.876.972 1.79 1.762 1.394v0c.068-.034.158-.175.238-.494.14-.525.182-1.356.049-2.776-.181-1.918-.1-17.173.411-30.565.317-8.292-.195-29.722.509-33.115a.946.946 0 01.052-.172c.188-.506 2.139-5.355 6.639-5.842 2.391-.255 4.256.341 5.579 1.869 1.256 1.456 1.973 3.66 2.091 6.881l.073 2.995c.305 8.34 1.977 39.714 2.159 42.196 0 21.554 2.126 15.066 2.152 15.753l5.446-57.663c.007-.046.03-.131.041-.175.123-.5 1.419-5.322 6.658-4.907 2.663.21 4.424.953 5.53 2.598 1.056 1.567 1.478 3.762 1.521 6.915.036 2.653-2.958 27.329-3.405 37.479-.38 8.54-1.653 17.374-2.182 22.626-.119 1.179.912 1.477 1.182.323v0l10.998-44.125.047-.174c.905-2.77 2.545-4.472 4.327-5.16.95-.367 1.922-.356 2.867-.16.946.194 1.821.715 2.58 1.435 1.492 1.42 2.489 3.798 2.272 7.116-.232 3.613-4.304 19.207-5.516 25.5-1.287 6.706-3.677 18.005-4.372 24.501m-3.953 30.546c-2.057 11.476-4.415 23.837-5.475 28.278-.51 2.143 1.235 10.401 4.086 21.546 2.799 10.945 6.713 24.658 10.651 37.995" stroke="#6FCCFC" stroke-width="3" stroke-linecap="round" stroke-linejoin="round"/><g filter="url(#filter0_f)"><path d="M173.86 116.856a9.04 9.04 0 00-12.793.096 9.06 9.06 0 00.096 12.806 9.04 9.04 0 0012.793-.096c3.507-3.539 3.476-9.283-.096-12.806z" fill="#F4F4F4"/></g><path d="M172.78 117.055a9.038 9.038 0 00-12.793.096 9.06 9.06 0 00.096 12.805 9.038 9.038 0 0012.793-.096c3.507-3.539 3.476-9.283-.096-12.805z" fill="#fff"/><path d="M172.78 117.055a9.038 9.038 0 00-12.793.096 9.06 9.06 0 00.096 12.805 9.038 9.038 0 0012.793-.096c3.507-3.539 3.476-9.283-.096-12.805z" fill="url(#paint0_linear)" fill-opacity=".5"/><path d="M172.78 117.055a9.038 9.038 0 00-12.793.096 9.06 9.06 0 00.096 12.805 9.038 9.038 0 0012.793-.096c3.507-3.539 3.476-9.283-.096-12.805z" fill="url(#paint1_linear)"/><path d="M172.78 117.055a9.038 9.038 0 00-12.793.096 9.06 9.06 0 00.096 12.805 9.038 9.038 0 0012.793-.096c3.507-3.539 3.476-9.283-.096-12.805z" fill="url(#paint2_radial)"/><g filter="url(#filter1_f)"><path d="M105.467 83.438a5.526 5.526 0 00-7.821.059 5.539 5.539 0 00.058 7.829 5.527 5.527 0 007.822-.06c2.144-2.163 2.125-5.675-.059-7.828z" fill="#F4F4F4"/></g><path d="M104.762 83.56a5.526 5.526 0 00-7.821.059 5.54 5.54 0 00.058 7.829 5.527 5.527 0 007.822-.06c2.144-2.163 2.125-5.675-.059-7.828z" fill="#fff"/><path d="M104.762 83.56a5.526 5.526 0 00-7.821.059 5.54 5.54 0 00.058 7.829 5.527 5.527 0 007.822-.06c2.144-2.163 2.125-5.675-.059-7.828z" fill="url(#paint3_linear)" fill-opacity=".5"/><path d="M104.762 83.56a5.526 5.526 0 00-7.821.059 5.54 5.54 0 00.058 7.829 5.527 5.527 0 007.822-.06c2.144-2.163 2.125-5.675-.059-7.828z" fill="url(#paint4_linear)"/><path d="M104.762 83.56a5.526 5.526 0 00-7.821.059 5.54 5.54 0 00.058 7.829 5.527 5.527 0 007.822-.06c2.144-2.163 2.125-5.675-.059-7.828z" fill="url(#paint5_radial)"/></g><defs><linearGradient id="paint0_linear" x1="356.635" y1="348.907" x2="138.662" y2="91.106" gradientUnits="userSpaceOnUse"><stop offset=".001" stop-color="#fff"/><stop offset=".998" stop-color="#fff"/></linearGradient><linearGradient id="paint1_linear" x1="158.373" y1="123.862" x2="186.018" y2="127.408" gradientUnits="userSpaceOnUse"><stop offset=".127" stop-color="#fff" stop-opacity=".56"/><stop offset="1" stop-color="#fff" stop-opacity="0"/></linearGradient><linearGradient id="paint3_linear" x1="217.163" y1="225.305" x2="83.903" y2="67.695" gradientUnits="userSpaceOnUse"><stop offset=".001" stop-color="#fff"/><stop offset=".998" stop-color="#fff"/></linearGradient><linearGradient id="paint4_linear" x1="95.954" y1="87.722" x2="112.855" y2="89.889" gradientUnits="userSpaceOnUse"><stop offset=".127" stop-color="#fff" stop-opacity=".56"/><stop offset="1" stop-color="#fff" stop-opacity="0"/></linearGradient><radialGradient id="paint2_radial" cx="0" cy="0" r="1" gradientUnits="userSpaceOnUse" gradientTransform="matrix(20.72294 5.48364 -5.48811 20.73986 158.658 122.38)"><stop stop-color="#fff" stop-opacity=".94"/><stop offset=".348" stop-color="#F7F7F7"/><stop offset=".636" stop-color="#E7E7E7"/><stop offset=".909" stop-color="#fff"/></radialGradient><radialGradient id="paint5_radial" cx="0" cy="0" r="1" gradientUnits="userSpaceOnUse" gradientTransform="matrix(12.66922 3.35256 -3.3553 12.67957 96.13 86.817)"><stop stop-color="#fff" stop-opacity=".94"/><stop offset=".348" stop-color="#F7F7F7"/><stop offset=".636" stop-color="#E7E7E7"/><stop offset=".909" stop-color="#fff"/></radialGradient><filter id="filter0_f" x="113.465" y="69.251" width="108.099" height="108.111" filterUnits="userSpaceOnUse" color-interpolation-filters="sRGB"><feFlood flood-opacity="0" result="BackgroundImageFix"/><feBlend in="SourceGraphic" in2="BackgroundImageFix" result="shape"/><feGaussianBlur stdDeviation="22.5" result="effect1_foregroundBlur"/></filter><filter id="filter1_f" x="51.055" y="36.846" width="101.065" height="101.073" filterUnits="userSpaceOnUse" color-interpolation-filters="sRGB"><feFlood flood-opacity="0" result="BackgroundImageFix"/><feBlend in="SourceGraphic" in2="BackgroundImageFix" result="shape"/><feGaussianBlur stdDeviation="22.5" result="effect1_foregroundBlur"/></filter><clipPath id="clip0"><path fill="#fff" transform="translate(49)" d="M0 0h142v220H0z"/></clipPath></defs></svg>