<svg width="239" height="220" fill="none" xmlns="http://www.w3.org/2000/svg"><g clip-path="url(#clip0)"><path d="M73.529 150.487l-18.5 11.684c-4.037 2.549-4.04 8.45 0 11.001l58.299 36.823a6.51 6.51 0 006.95 0l58.299-36.823c4.037-2.549 4.04-8.449 0-11.001l-18.5-11.684M83.054 67.834c1.499-9.574 7.149-18.416 16.174-23.627 15.838-9.144 36.162-3.696 45.307 12.143 9.145 15.84 3.701 36.166-12.137 45.309-14.679 8.476-33.214 4.415-43.128-8.837" stroke="#93DAFF" stroke-width="3" stroke-linecap="round" stroke-linejoin="round"/><path d="M156.223 23.39C144.928 14.222 130.626 9 115.913 9c-19.594 0-38.46 9.26-50.465 24.772-13.106 16.939-16.28 37.977-8.937 59.24 5.073 14.687 14.332 27.221 23.285 39.343 8.985 12.163 5.375 7.432 31.255 44.382 2.352 3.371 7.354 3.387 9.72.005 25.997-37.125 22.42-32.423 31.259-44.388 8.953-12.121 18.212-24.656 23.285-39.344 5.852-16.943 5.025-33.744-2.185-48.442" stroke="#93DAFF" stroke-width="3" stroke-linecap="round" stroke-linejoin="round"/><g filter="url(#filter0_f)"><path d="M180.537 38.002a9.064 9.064 0 00-12.82.096 9.065 9.065 0 00.096 12.82 9.064 9.064 0 0012.82-.096c3.515-3.543 3.484-9.294-.096-12.82z" fill="#F4F4F4"/></g><path d="M179.383 38.203a9.064 9.064 0 00-12.82.096 9.065 9.065 0 00.096 12.82 9.064 9.064 0 0012.82-.096c3.515-3.543 3.484-9.294-.096-12.82z" fill="#fff"/><path d="M179.383 38.203a9.064 9.064 0 00-12.82.096 9.065 9.065 0 00.096 12.82 9.064 9.064 0 0012.82-.096c3.515-3.543 3.484-9.294-.096-12.82z" fill="url(#paint0_linear)" fill-opacity=".5"/><path d="M179.383 38.203a9.064 9.064 0 00-12.82.096 9.065 9.065 0 00.096 12.82 9.064 9.064 0 0012.82-.096c3.515-3.543 3.484-9.294-.096-12.82z" fill="url(#paint1_linear)"/><path d="M179.383 38.203a9.064 9.064 0 00-12.82.096 9.065 9.065 0 00.096 12.82 9.064 9.064 0 0012.82-.096c3.515-3.543 3.484-9.294-.096-12.82z" fill="url(#paint2_radial)"/><g filter="url(#filter1_f)"><path d="M94.91 89.734a6.117 6.117 0 00-8.652.065 6.118 6.118 0 108.717 8.587c2.372-2.391 2.351-6.272-.065-8.652z" fill="#F4F4F4"/></g><path d="M94.135 89.868a6.117 6.117 0 00-8.652.065 6.117 6.117 0 00.065 8.652 6.117 6.117 0 008.652-.065c2.371-2.391 2.35-6.272-.065-8.652z" fill="#fff"/><path d="M94.135 89.868a6.117 6.117 0 00-8.652.065 6.117 6.117 0 00.065 8.652 6.117 6.117 0 008.652-.065c2.371-2.391 2.35-6.272-.065-8.652z" fill="url(#paint3_linear)" fill-opacity=".5"/><path d="M94.135 89.868a6.117 6.117 0 00-8.652.065 6.117 6.117 0 00.065 8.652 6.117 6.117 0 008.652-.065c2.371-2.391 2.35-6.272-.065-8.652z" fill="url(#paint4_linear)"/><path d="M94.135 89.868a6.117 6.117 0 00-8.652.065 6.117 6.117 0 00.065 8.652 6.117 6.117 0 008.652-.065c2.371-2.391 2.35-6.272-.065-8.652z" fill="url(#paint5_radial)"/></g><defs><linearGradient id="paint0_linear" x1="363.619" y1="270.319" x2="145.433" y2="12.022" gradientUnits="userSpaceOnUse"><stop offset=".001" stop-color="#fff"/><stop offset=".998" stop-color="#fff"/></linearGradient><linearGradient id="paint1_linear" x1="164.946" y1="45.018" x2="192.647" y2="48.574" gradientUnits="userSpaceOnUse"><stop offset=".127" stop-color="#fff" stop-opacity=".56"/><stop offset="1" stop-color="#fff" stop-opacity="0"/></linearGradient><linearGradient id="paint3_linear" x1="218.47" y1="246.516" x2="71.223" y2="72.2" gradientUnits="userSpaceOnUse"><stop offset=".001" stop-color="#fff"/><stop offset=".998" stop-color="#fff"/></linearGradient><linearGradient id="paint4_linear" x1="84.392" y1="94.467" x2="103.087" y2="96.867" gradientUnits="userSpaceOnUse"><stop offset=".127" stop-color="#fff" stop-opacity=".56"/><stop offset="1" stop-color="#fff" stop-opacity="0"/></linearGradient><radialGradient id="paint2_radial" cx="0" cy="0" r="1" gradientUnits="userSpaceOnUse" gradientTransform="rotate(14.808 -84.883 657.506) scale(21.4795)"><stop stop-color="#fff" stop-opacity=".94"/><stop offset=".348" stop-color="#F7F7F7"/><stop offset=".636" stop-color="#E7E7E7"/><stop offset=".909" stop-color="#fff"/></radialGradient><radialGradient id="paint5_radial" cx="0" cy="0" r="1" gradientUnits="userSpaceOnUse" gradientTransform="rotate(14.808 -317.325 372.177) scale(14.4958)"><stop stop-color="#fff" stop-opacity=".94"/><stop offset=".348" stop-color="#F7F7F7"/><stop offset=".636" stop-color="#E7E7E7"/><stop offset=".909" stop-color="#fff"/></radialGradient><filter id="filter0_f" x="116.355" y="-13.36" width="115.64" height="115.64" filterUnits="userSpaceOnUse" color-interpolation-filters="sRGB"><feFlood flood-opacity="0" result="BackgroundImageFix"/><feBlend in="SourceGraphic" in2="BackgroundImageFix" result="shape"/><feGaussianBlur stdDeviation="22.5" result="effect1_foregroundBlur"/></filter><filter id="filter1_f" x="36.965" y="40.44" width="107.304" height="107.304" filterUnits="userSpaceOnUse" color-interpolation-filters="sRGB"><feFlood flood-opacity="0" result="BackgroundImageFix"/><feBlend in="SourceGraphic" in2="BackgroundImageFix" result="shape"/><feGaussianBlur stdDeviation="22.5" result="effect1_foregroundBlur"/></filter><clipPath id="clip0"><path fill="#fff" d="M0 0h239v220H0z"/></clipPath></defs></svg>