<svg width="48" height="48" fill="none" xmlns="http://www.w3.org/2000/svg"><g clip-path="url(#clip0)"><path d="M45.099 7.28L38.464.647A2.192 2.192 0 0036.904 0H8.969C7.753 0 6.763.99 6.763 2.206v21.842H5.212a2.961 2.961 0 00-2.958 2.958v13.527a2.961 2.961 0 002.958 2.958h23.296a2.21 2.21 0 002.207-2.206V30.764c0-1.217-.99-2.206-2.207-2.206H5.212a1.553 1.553 0 01-1.552-1.552c0-.855.696-1.551 1.552-1.551h1.55v.8a.703.703 0 001.407 0V2.206a.8.8 0 01.8-.8h27.103v6.812c0 .802.652 1.455 1.454 1.455h6.813v36.12a.8.8 0 01-.8.8H8.969a.8.8 0 01-.8-.8.703.703 0 00-1.406 0A2.21 2.21 0 008.969 48h34.57c1.216 0 2.206-.99 2.206-2.206V8.84c0-.59-.23-1.143-.646-1.56zM5.212 29.965h23.296a.8.8 0 01.8.8v10.52a.8.8 0 01-.8.8H5.212a1.553 1.553 0 01-1.552-1.55v-11.01c.451.279.983.44 1.552.44zM37.478 8.218V1.65l6.618 6.618h-6.57a.049.049 0 01-.048-.049z" fill="url(#paint0_linear)"/><path d="M22.178 39.711a.703.703 0 00.703-.703v-2.337h1.523a.703.703 0 000-1.407h-1.523v-1.52h1.716a.703.703 0 000-1.407h-2.42a.703.703 0 00-.702.703v5.968c0 .388.314.703.703.703z" fill="url(#paint1_linear)"/><path d="M14.788 39.44c.132.131.31.204.495.204h.003c.05 0 1.228-.004 1.698-.013 1.738-.03 2.999-1.547 2.999-3.607 0-2.165-1.23-3.62-3.06-3.62h-1.651a.703.703 0 00-.704.704v5.738c0 .049.005.096.014.141.012.17.084.332.206.453zm2.136-5.63c1.219 0 1.653 1.144 1.653 2.214 0 1.501-.812 2.187-1.617 2.201-.224.004-.623.007-.976.01l-.008-4.425h.948z" fill="url(#paint2_linear)"/><path d="M8.947 39.733a.703.703 0 00.703-.703v-1.912l.971-.004c1.342 0 2.433-1.076 2.433-2.4 0-1.322-1.091-2.4-2.433-2.4H8.947a.704.704 0 00-.703.704v6.012c0 .389.315.703.703.703zm1.674-6.012c.557 0 1.027.455 1.027.994 0 .538-.47.993-1.027.993l-.963.004-.006-1.99h.97z" fill="url(#paint3_linear)"/><path d="M22.118 20.387c-1.728.546-3.502 1.3-4.448 2.277-.78.806-.922 1.74-.388 2.565.362.56.86.852 1.42.852.215 0 .44-.043.668-.13.827-.317 1.719-1.216 2.728-2.749a24.68 24.68 0 00.985-1.64 35.064 35.064 0 016.566-1.232c1.2 1.162 2.441 2.067 3.5 2.314 1.164.272 2.087-.26 2.468-1.424.231-.705-.034-1.37-.71-1.778-.696-.42-1.905-.622-3.592-.603-.36.004-.739.019-1.133.043a26.854 26.854 0 01-2.306-2.748 27.088 27.088 0 01-1.56-2.359c.049-.166.095-.33.138-.492.481-1.783.652-3.147.51-4.057-.206-1.313-1.053-1.499-1.408-1.518-1.208-.065-2.022.544-2.177 1.63-.123.863.168 2.05.863 3.528.165.352.35.714.554 1.084a36.23 36.23 0 01-.247.76 40.382 40.382 0 01-2.431 5.677zm-3.377 4.284c-.05.006-.134.017-.28-.206-.117-.182-.123-.32-.023-.506.235-.438 1.037-1.052 2.587-1.686-1.082 1.678-1.891 2.349-2.284 2.398zm15.552-3.937a.246.246 0 01-.012.048c-.175.536-.411.586-.813.493-.49-.115-1.112-.477-1.806-1.03 1.88.014 2.535.353 2.63.489zM24.772 9.537c.028-.201.06-.427.595-.427.034 0 .07 0 .107.002.16.195.243 1.063-.128 2.781-.436-1-.65-1.832-.575-2.356zm.979 6a30.207 30.207 0 002.67 3.508 36.517 36.517 0 00-4.468.827 42.165 42.165 0 001.797-4.335z" fill="url(#paint4_linear)"/></g><defs><linearGradient id="paint0_linear" x1="45.745" y1="14.4" x2="1.029" y2="31.619" gradientUnits="userSpaceOnUse"><stop stop-color="#57D1DC"/><stop offset="1" stop-color="#049EFC"/></linearGradient><linearGradient id="paint1_linear" x1="25.3" y1="34.549" x2="20.993" y2="35.499" gradientUnits="userSpaceOnUse"><stop stop-color="#57D1DC"/><stop offset="1" stop-color="#049EFC"/></linearGradient><linearGradient id="paint2_linear" x1="19.983" y1="34.576" x2="14.177" y2="36.421" gradientUnits="userSpaceOnUse"><stop stop-color="#57D1DC"/><stop offset="1" stop-color="#049EFC"/></linearGradient><linearGradient id="paint3_linear" x1="13.054" y1="34.541" x2="7.776" y2="35.995" gradientUnits="userSpaceOnUse"><stop stop-color="#57D1DC"/><stop offset="1" stop-color="#049EFC"/></linearGradient><linearGradient id="paint4_linear" x1="35.699" y1="13.216" x2="17.075" y2="21.286" gradientUnits="userSpaceOnUse"><stop stop-color="#57D1DC"/><stop offset="1" stop-color="#049EFC"/></linearGradient><clipPath id="clip0"><path fill="#fff" d="M0 0h48v48H0z"/></clipPath></defs></svg>