<svg width="909" height="890" fill="none" xmlns="http://www.w3.org/2000/svg"><path d="M886.263 580.197c.602.193.935.838.74 1.441a444.996 444.996 0 01-672.288 232.321A444.996 444.996 0 0133.322 331.105 444.997 444.997 0 01429.885 1.271a445.001 445.001 0 01262.403 62.047 1.146 1.146 0 11-1.184 1.963A442.708 442.708 0 10884.82 580.94a1.15 1.15 0 011.443-.743z" fill="#F4F4F4"/><path d="M370.022 734.42a1.385 1.385 0 01-1.745.897 305.977 305.977 0 01-211.363-283.391 305.979 305.979 0 01384.2-303.414 305.976 305.976 0 01226.793 272.676A305.981 305.981 0 01725.552 601.1a1.384 1.384 0 01-1.903.474 1.394 1.394 0 01-.475-1.908 303.201 303.201 0 00-27.262-349.251 303.205 303.205 0 10-326.789 482.257 1.394 1.394 0 01.899 1.748z" fill="#F4F4F4"/><path d="M350.754 320.73a1.274 1.274 0 01.09-1.806 169.254 169.254 0 01193.828-22.53 169.248 169.248 0 0139.087 267.96 169.246 169.246 0 01-193.344 33.227 169.25 169.25 0 01-74.219-69.6 1.273 1.273 0 01.497-1.738 1.287 1.287 0 011.744.5 166.687 166.687 0 00173.521 82.571 166.692 166.692 0 0051.49-310.671 166.692 166.692 0 00-190.882 22.176 1.288 1.288 0 01-1.812-.089z" fill="#F4F4F4"/><g filter="url(#filter0_f)"><path d="M809.017 663.605c-4.762-17.774-23.024-28.318-40.798-23.556-17.774 4.763-28.318 23.025-23.556 40.799 4.763 17.774 23.025 28.318 40.799 23.555 17.729-4.684 28.334-22.963 23.555-40.798z" fill="#F4F4F4"/></g><path d="M804.974 662.086c-4.762-17.774-23.024-28.318-40.798-23.556-17.774 4.763-28.318 23.025-23.556 40.799 4.763 17.774 23.025 28.318 40.799 23.555 17.729-4.684 28.334-22.963 23.555-40.798z" fill="#fff"/><path d="M804.974 662.086c-4.762-17.774-23.024-28.318-40.798-23.556-17.774 4.763-28.318 23.025-23.556 40.799 4.763 17.774 23.025 28.318 40.799 23.555 17.729-4.684 28.334-22.963 23.555-40.798z" fill="url(#paint0_linear)" fill-opacity=".5"/><path d="M804.974 662.086c-4.762-17.774-23.024-28.318-40.798-23.556-17.774 4.763-28.318 23.025-23.556 40.799 4.763 17.774 23.025 28.318 40.799 23.555 17.729-4.684 28.334-22.963 23.555-40.798z" fill="url(#paint1_linear)"/><path d="M804.974 662.086c-4.762-17.774-23.024-28.318-40.798-23.556-17.774 4.763-28.318 23.025-23.556 40.799 4.763 17.774 23.025 28.318 40.799 23.555 17.729-4.684 28.334-22.963 23.555-40.798z" fill="url(#paint2_radial)"/><g filter="url(#filter1_f)"><path d="M145.517 235.411c-6.525-24.353-31.547-38.799-55.9-32.274-24.353 6.526-38.8 31.547-32.274 55.9 6.525 24.353 31.547 38.799 55.9 32.274 24.291-6.419 38.822-31.463 32.274-55.9z" fill="#F4F4F4"/></g><path d="M139.986 233.33c-6.526-24.353-31.548-38.799-55.9-32.274-24.353 6.525-38.8 31.547-32.274 55.9 6.525 24.352 31.547 38.798 55.9 32.273 24.291-6.419 38.821-31.463 32.274-55.899z" fill="#fff"/><path d="M139.986 233.33c-6.526-24.353-31.548-38.799-55.9-32.274-24.353 6.525-38.8 31.547-32.274 55.9 6.525 24.352 31.547 38.798 55.9 32.273 24.291-6.419 38.821-31.463 32.274-55.899z" fill="url(#paint3_linear)" fill-opacity=".5"/><path d="M139.986 233.33c-6.526-24.353-31.548-38.799-55.9-32.274-24.353 6.525-38.8 31.547-32.274 55.9 6.525 24.352 31.547 38.798 55.9 32.273 24.291-6.419 38.821-31.463 32.274-55.899z" fill="url(#paint4_linear)"/><path d="M139.986 233.33c-6.526-24.353-31.548-38.799-55.9-32.274-24.353 6.525-38.8 31.547-32.274 55.9 6.525 24.352 31.547 38.798 55.9 32.273 24.291-6.419 38.821-31.463 32.274-55.899z" fill="url(#paint5_radial)"/><defs><linearGradient id="paint0_linear" x1="956.714" y1="1740.42" x2="746.132" y2="515.948" gradientUnits="userSpaceOnUse"><stop offset=".001" stop-color="#fff"/><stop offset=".998" stop-color="#fff"/></linearGradient><linearGradient id="paint1_linear" x1="746.547" y1="656.81" x2="827.699" y2="719.634" gradientUnits="userSpaceOnUse"><stop offset=".127" stop-color="#fff" stop-opacity=".56"/><stop offset="1" stop-color="#fff" stop-opacity="0"/></linearGradient><linearGradient id="paint3_linear" x1="347.888" y1="1710.78" x2="59.363" y2="33.102" gradientUnits="userSpaceOnUse"><stop offset=".001" stop-color="#fff"/><stop offset=".998" stop-color="#fff"/></linearGradient><linearGradient id="paint4_linear" x1="59.932" y1="226.101" x2="171.121" y2="312.178" gradientUnits="userSpaceOnUse"><stop offset=".127" stop-color="#fff" stop-opacity=".56"/><stop offset="1" stop-color="#fff" stop-opacity="0"/></linearGradient><radialGradient id="paint2_radial" cx="0" cy="0" r="1" gradientUnits="userSpaceOnUse" gradientTransform="rotate(45.238 -408.084 1226.605) scale(78.9284)"><stop stop-color="#fff" stop-opacity=".94"/><stop offset=".348" stop-color="#F7F7F7"/><stop offset=".636" stop-color="#E7E7E7"/><stop offset=".909" stop-color="#fff"/></radialGradient><radialGradient id="paint5_radial" cx="0" cy="0" r="1" gradientUnits="userSpaceOnUse" gradientTransform="rotate(45.238 -231.993 188.142) scale(108.142)"><stop stop-color="#fff" stop-opacity=".94"/><stop offset=".348" stop-color="#F7F7F7"/><stop offset=".636" stop-color="#E7E7E7"/><stop offset=".909" stop-color="#fff"/></radialGradient><filter id="filter0_f" x="691.043" y="586.428" width="171.598" height="171.598" filterUnits="userSpaceOnUse" color-interpolation-filters="sRGB"><feFlood flood-opacity="0" result="BackgroundImageFix"/><feBlend in="SourceGraphic" in2="BackgroundImageFix" result="shape"/><feGaussianBlur stdDeviation="22.5" result="effect1_foregroundBlur"/></filter><filter id="filter1_f" x=".531" y="146.324" width="201.8" height="201.8" filterUnits="userSpaceOnUse" color-interpolation-filters="sRGB"><feFlood flood-opacity="0" result="BackgroundImageFix"/><feBlend in="SourceGraphic" in2="BackgroundImageFix" result="shape"/><feGaussianBlur stdDeviation="22.5" result="effect1_foregroundBlur"/></filter></defs></svg>