<svg width="210" height="182" fill="none" xmlns="http://www.w3.org/2000/svg"><g clip-path="url(#clip0_1114_863)"><path d="M-121.405-78.514a1.22 1.22 0 011.284-1.163A170.935 170.935 0 11-294.077 44.815a1.221 1.221 0 011.516-.84c.651.187 1.026.868.843 1.52a168.484 168.484 0 0064.984 183.094A168.48 168.48 0 0032.101 43.352 168.48 168.48 0 00-120.238-77.225a1.234 1.234 0 01-1.167-1.29z" fill="#F4F4F4"/><path d="M-182.816-12.072a1.144 1.144 0 01.499-1.548A117.535 117.535 0 01-14.128 68.934a117.534 117.534 0 01-229.174 51.823 1.144 1.144 0 01.836-1.395 1.163 1.163 0 011.402.84 115.231 115.231 0 00101.024 85.921 115.231 115.231 0 00115.468-67.125A115.227 115.227 0 00-181.26-11.571a1.161 1.161 0 01-1.555-.501z" fill="#F4F4F4"/><g filter="url(#filter0_f_1114_863)"><path d="M40.535 152.821c-1.765-6.586-8.532-10.492-15.117-8.728-6.586 1.765-10.493 8.532-8.728 15.117 1.764 6.586 8.531 10.493 15.117 8.728 6.569-1.736 10.498-8.508 8.728-15.117z" fill="#F4F4F4"/></g><path d="M39.04 152.259c-1.765-6.586-8.532-10.493-15.118-8.728-6.585 1.764-10.492 8.531-8.728 15.117 1.765 6.586 8.532 10.492 15.118 8.728 6.569-1.736 10.498-8.509 8.727-15.117z" fill="#fff"/><path d="M39.04 152.259c-1.765-6.586-8.532-10.493-15.118-8.728-6.585 1.764-10.492 8.531-8.728 15.117 1.765 6.586 8.532 10.492 15.118 8.728 6.569-1.736 10.498-8.509 8.727-15.117z" fill="url(#paint0_linear_1114_863)" fill-opacity=".5"/><path d="M39.04 152.259c-1.765-6.586-8.532-10.493-15.118-8.728-6.585 1.764-10.492 8.531-8.728 15.117 1.765 6.586 8.532 10.492 15.118 8.728 6.569-1.736 10.498-8.509 8.727-15.117z" fill="url(#paint1_linear_1114_863)"/><path d="M39.04 152.259c-1.765-6.586-8.532-10.493-15.118-8.728-6.585 1.764-10.492 8.531-8.728 15.117 1.765 6.586 8.532 10.492 15.118 8.728 6.569-1.736 10.498-8.509 8.727-15.117z" fill="url(#paint2_radial_1114_863)"/></g><defs><linearGradient id="paint0_linear_1114_863" x1="95.263" y1="551.808" x2="17.237" y2="98.111" gradientUnits="userSpaceOnUse"><stop offset=".001" stop-color="#fff"/><stop offset=".998" stop-color="#fff"/></linearGradient><linearGradient id="paint1_linear_1114_863" x1="17.391" y1="150.304" x2="47.459" y2="173.582" gradientUnits="userSpaceOnUse"><stop offset=".127" stop-color="#fff" stop-opacity=".56"/><stop offset="1" stop-color="#fff" stop-opacity="0"/></linearGradient><radialGradient id="paint2_radial_1114_863" cx="0" cy="0" r="1" gradientUnits="userSpaceOnUse" gradientTransform="rotate(45.238 -169.14 96.879) scale(29.245)"><stop stop-color="#fff" stop-opacity=".94"/><stop offset=".348" stop-color="#F7F7F7"/><stop offset=".636" stop-color="#E7E7E7"/><stop offset=".909" stop-color="#fff"/></radialGradient><clipPath id="clip0_1114_863"><path fill="#fff" d="M0 0h210v182H0z"/></clipPath><filter id="filter0_f_1114_863" x="-28.734" y="98.67" width="114.694" height="114.692" filterUnits="userSpaceOnUse" color-interpolation-filters="sRGB"><feFlood flood-opacity="0" result="BackgroundImageFix"/><feBlend in="SourceGraphic" in2="BackgroundImageFix" result="shape"/><feGaussianBlur stdDeviation="22.5" result="effect1_foregroundBlur_1114_863"/></filter></defs></svg>