<svg width="200" height="182" fill="none" xmlns="http://www.w3.org/2000/svg"><g clip-path="url(#clip0_1129_868)"><g clip-path="url(#clip1_1129_868)" fill="#F4F4F4"><path d="M261.514 274.595c.677.032 1.2.608 1.163 1.285a170.935 170.935 0 01-309.68 90.1 170.938 170.938 0 01-.59-198.13 170.933 170.933 0 01185.778-65.926c.652.183 1.028.864.841 1.515a1.235 1.235 0 01-1.521.843 168.48 168.48 0 102.143 323.82 168.481 168.481 0 00120.577-152.339c.037-.677.612-1.2 1.289-1.168z"/><path d="M195.072 213.184a1.145 1.145 0 011.548.5 117.53 117.53 0 01-19.844 133.829 117.53 117.53 0 01-133.727 26.015A117.529 117.529 0 01-25.42 255.749a117.536 117.536 0 0187.662-103.051 1.144 1.144 0 011.395.836 1.162 1.162 0 01-.84 1.402 115.232 115.232 0 00-85.92 101.024 115.229 115.229 0 10217.692-41.22 1.163 1.163 0 01.502-1.556z"/></g></g><defs><clipPath id="clip0_1129_868"><path d="M0 8a8 8 0 018-8h192v174a8 8 0 01-8 8H0V8z" fill="#fff"/></clipPath><clipPath id="clip1_1129_868"><path fill="#fff" transform="rotate(90 100 100)" d="M0 0h182v199H0z"/></clipPath></defs></svg>