<svg width="201" height="182" fill="none" xmlns="http://www.w3.org/2000/svg"><g clip-path="url(#clip0_1114_855)"><path d="M105.595-78.514a1.22 1.22 0 011.284-1.163A170.937 170.937 0 01261.456 42.658a170.93 170.93 0 01-64.477 187.346A170.933 170.933 0 01-67.077 44.815a1.22 1.22 0 011.516-.84c.65.187 1.026.868.843 1.52A168.478 168.478 0 0098 259.478 168.478 168.478 0 00201.58-41.487a168.477 168.477 0 00-94.818-35.738 1.234 1.234 0 01-1.167-1.29z" fill="#F4F4F4"/><path d="M44.184-12.072a1.144 1.144 0 01.5-1.548 117.534 117.534 0 11-60.986 134.377 1.144 1.144 0 01.836-1.395 1.162 1.162 0 011.402.84 115.23 115.23 0 00169.475 70.795 115.225 115.225 0 0055.197-121.623 115.223 115.223 0 00-96.766-92.06A115.228 115.228 0 0045.74-11.57a1.162 1.162 0 01-1.556-.502z" fill="#F4F4F4"/><path d="M43.764 56.42a1.178 1.178 0 01-.35-1.645 65.013 65.013 0 118.035 82.097 1.177 1.177 0 01.024-1.681 1.212 1.212 0 011.698.024 62.624 62.624 0 10-7.746-79.148 1.213 1.213 0 01-1.66.353z" fill="#F4F4F4"/><g filter="url(#filter0_f_1114_855)"><path d="M189.535 16.821c-1.765-6.586-8.532-10.492-15.117-8.728-6.586 1.765-10.493 8.532-8.728 15.117 1.764 6.586 8.531 10.493 15.117 8.728 6.569-1.736 10.498-8.508 8.728-15.117z" fill="#F4F4F4"/></g><path d="M188.039 16.259c-1.764-6.586-8.531-10.493-15.117-8.728-6.585 1.764-10.492 8.531-8.727 15.117 1.764 6.585 8.531 10.492 15.117 8.728 6.569-1.736 10.498-8.509 8.727-15.117z" fill="#fff"/><path d="M188.039 16.259c-1.764-6.586-8.531-10.493-15.117-8.728-6.585 1.764-10.492 8.531-8.727 15.117 1.764 6.585 8.531 10.492 15.117 8.728 6.569-1.736 10.498-8.509 8.727-15.117z" fill="url(#paint0_linear_1114_855)" fill-opacity=".5"/><path d="M188.039 16.259c-1.764-6.586-8.531-10.493-15.117-8.728-6.585 1.764-10.492 8.531-8.727 15.117 1.764 6.585 8.531 10.492 15.117 8.728 6.569-1.736 10.498-8.509 8.727-15.117z" fill="url(#paint1_linear_1114_855)"/><path d="M188.039 16.259c-1.764-6.586-8.531-10.493-15.117-8.728-6.585 1.764-10.492 8.531-8.727 15.117 1.764 6.585 8.531 10.492 15.117 8.728 6.569-1.736 10.498-8.509 8.727-15.117z" fill="url(#paint2_radial_1114_855)"/></g><defs><linearGradient id="paint0_linear_1114_855" x1="244.263" y1="415.808" x2="166.237" y2="-37.889" gradientUnits="userSpaceOnUse"><stop offset=".001" stop-color="#fff"/><stop offset=".998" stop-color="#fff"/></linearGradient><linearGradient id="paint1_linear_1114_855" x1="166.391" y1="14.304" x2="196.46" y2="37.582" gradientUnits="userSpaceOnUse"><stop offset=".127" stop-color="#fff" stop-opacity=".56"/><stop offset="1" stop-color="#fff" stop-opacity="0"/></linearGradient><radialGradient id="paint2_radial_1114_855" cx="0" cy="0" r="1" gradientUnits="userSpaceOnUse" gradientTransform="rotate(45.238 68.565 207.684) scale(29.245)"><stop stop-color="#fff" stop-opacity=".94"/><stop offset=".348" stop-color="#F7F7F7"/><stop offset=".636" stop-color="#E7E7E7"/><stop offset=".909" stop-color="#fff"/></radialGradient><clipPath id="clip0_1114_855"><path fill="#fff" d="M0 0h201v182H0z"/></clipPath><filter id="filter0_f_1114_855" x="120.266" y="-37.33" width="114.694" height="114.692" filterUnits="userSpaceOnUse" color-interpolation-filters="sRGB"><feFlood flood-opacity="0" result="BackgroundImageFix"/><feBlend in="SourceGraphic" in2="BackgroundImageFix" result="shape"/><feGaussianBlur stdDeviation="22.5" result="effect1_foregroundBlur_1114_855"/></filter></defs></svg>