<svg width="203" height="182" fill="none" xmlns="http://www.w3.org/2000/svg"><g clip-path="url(#clip0_1114_847)"><path d="M338.595-78.514a1.22 1.22 0 011.284-1.163A170.937 170.937 0 01494.456 42.658a170.93 170.93 0 01-64.477 187.346A170.933 170.933 0 01165.923 44.815a1.221 1.221 0 011.516-.84c.651.187 1.026.868.843 1.52a168.484 168.484 0 0064.984 183.094A168.48 168.48 0 00492.101 43.352 168.476 168.476 0 00339.762-77.225a1.234 1.234 0 01-1.167-1.29z" fill="#F4F4F4"/><path d="M277.184-12.072a1.144 1.144 0 01.499-1.548 117.535 117.535 0 01159.845 153.571 117.544 117.544 0 01-47.958 53.039 117.537 117.537 0 01-172.872-72.233 1.144 1.144 0 01.836-1.395 1.163 1.163 0 011.402.84 115.231 115.231 0 00101.024 85.921A115.23 115.23 0 00443.608 69.374a115.223 115.223 0 00-96.766-92.06 115.23 115.23 0 00-68.103 11.116 1.161 1.161 0 01-1.555-.502z" fill="#F4F4F4"/><g filter="url(#filter0_f_1114_847)"><path d="M182.535 142.821c-1.765-6.586-8.532-10.492-15.117-8.728-6.586 1.765-10.493 8.532-8.728 15.117 1.764 6.586 8.531 10.493 15.117 8.728 6.569-1.736 10.498-8.508 8.728-15.117z" fill="#F4F4F4"/></g><path d="M181.039 142.259c-1.764-6.586-8.531-10.493-15.117-8.728-6.585 1.764-10.492 8.531-8.727 15.117 1.764 6.586 8.531 10.492 15.117 8.728 6.569-1.736 10.498-8.509 8.727-15.117z" fill="#fff"/><path d="M181.039 142.259c-1.764-6.586-8.531-10.493-15.117-8.728-6.585 1.764-10.492 8.531-8.727 15.117 1.764 6.586 8.531 10.492 15.117 8.728 6.569-1.736 10.498-8.509 8.727-15.117z" fill="url(#paint0_linear_1114_847)" fill-opacity=".5"/><path d="M181.039 142.259c-1.764-6.586-8.531-10.493-15.117-8.728-6.585 1.764-10.492 8.531-8.727 15.117 1.764 6.586 8.531 10.492 15.117 8.728 6.569-1.736 10.498-8.509 8.727-15.117z" fill="url(#paint1_linear_1114_847)"/><path d="M181.039 142.259c-1.764-6.586-8.531-10.493-15.117-8.728-6.585 1.764-10.492 8.531-8.727 15.117 1.764 6.586 8.531 10.492 15.117 8.728 6.569-1.736 10.498-8.509 8.727-15.117z" fill="url(#paint2_radial_1114_847)"/></g><defs><linearGradient id="paint0_linear_1114_847" x1="237.263" y1="541.808" x2="159.237" y2="88.111" gradientUnits="userSpaceOnUse"><stop offset=".001" stop-color="#fff"/><stop offset=".998" stop-color="#fff"/></linearGradient><linearGradient id="paint1_linear_1114_847" x1="159.391" y1="140.304" x2="189.46" y2="163.582" gradientUnits="userSpaceOnUse"><stop offset=".127" stop-color="#fff" stop-opacity=".56"/><stop offset="1" stop-color="#fff" stop-opacity="0"/></linearGradient><radialGradient id="paint2_radial_1114_847" cx="0" cy="0" r="1" gradientUnits="userSpaceOnUse" gradientTransform="rotate(45.238 -86.14 262.284) scale(29.245)"><stop stop-color="#fff" stop-opacity=".94"/><stop offset=".348" stop-color="#F7F7F7"/><stop offset=".636" stop-color="#E7E7E7"/><stop offset=".909" stop-color="#fff"/></radialGradient><clipPath id="clip0_1114_847"><path fill="#fff" d="M0 0h203v182H0z"/></clipPath><filter id="filter0_f_1114_847" x="113.266" y="88.67" width="114.694" height="114.692" filterUnits="userSpaceOnUse" color-interpolation-filters="sRGB"><feFlood flood-opacity="0" result="BackgroundImageFix"/><feBlend in="SourceGraphic" in2="BackgroundImageFix" result="shape"/><feGaussianBlur stdDeviation="22.5" result="effect1_foregroundBlur_1114_847"/></filter></defs></svg>