<svg width="319" height="596" fill="none" xmlns="http://www.w3.org/2000/svg"><g clip-path="url(#clip0)"><path d="M159.643 122.661a1.704 1.704 0 01.121-2.416 238.647 238.647 0 01373.716 73.106 238.647 238.647 0 01-174.059 339.85 238.647 238.647 0 01-248.489-118.32 1.704 1.704 0 01.666-2.326 1.724 1.724 0 012.334.669 235.224 235.224 0 00371.889 50.608 235.22 235.22 0 00-323.752-341.051 1.726 1.726 0 01-2.426-.12z" fill="#F4F4F4"/><path d="M164.61 248.883a1.598 1.598 0 01-1.035-2.021 164.094 164.094 0 1172.454 192.866 1.597 1.597 0 01-.552-2.203 1.622 1.622 0 012.214-.553 160.874 160.874 0 00237.2-97.421 160.88 160.88 0 00-65.576-174.561 160.876 160.876 0 00-242.674 82.852 1.622 1.622 0 01-2.031 1.041z" fill="#F4F4F4"/><path d="M231.815 316.913c-.9.195-1.79-.375-1.97-1.279a90.771 90.771 0 0141.707-95.102 90.769 90.769 0 01134.932 53.698 90.77 90.77 0 01-36.412 98.707 90.765 90.765 0 01-51.246 15.814 1.644 1.644 0 01-1.636-1.684 1.692 1.692 0 011.699-1.652 87.437 87.437 0 0082.019-57.172 87.432 87.432 0 00-162.417-64.637 87.427 87.427 0 00-5.385 51.319 1.694 1.694 0 01-1.291 1.988z" fill="#F4F4F4"/><g filter="url(#filter0_f)"><path d="M109.433 312.371c-2.253-8.409-10.893-13.397-19.302-11.144-8.409 2.253-13.397 10.893-11.144 19.302 2.254 8.408 10.893 13.397 19.302 11.143 8.388-2.216 13.405-10.864 11.144-19.301z" fill="#F4F4F4"/></g><path d="M107.524 311.652c-2.253-8.409-10.893-13.397-19.302-11.144-8.409 2.253-13.397 10.893-11.144 19.302 2.253 8.409 10.893 13.397 19.302 11.144 8.388-2.217 13.405-10.864 11.144-19.302z" fill="#fff"/><path d="M107.524 311.652c-2.253-8.409-10.893-13.397-19.302-11.144-8.409 2.253-13.397 10.893-11.144 19.302 2.253 8.409 10.893 13.397 19.302 11.144 8.388-2.217 13.405-10.864 11.144-19.302z" fill="url(#paint0_linear)" fill-opacity=".5"/><path d="M107.524 311.652c-2.253-8.409-10.893-13.397-19.302-11.144-8.409 2.253-13.397 10.893-11.144 19.302 2.253 8.409 10.893 13.397 19.302 11.144 8.388-2.217 13.405-10.864 11.144-19.302z" fill="url(#paint1_linear)"/><path d="M107.524 311.652c-2.253-8.409-10.893-13.397-19.302-11.144-8.409 2.253-13.397 10.893-11.144 19.302 2.253 8.409 10.893 13.397 19.302 11.144 8.388-2.217 13.405-10.864 11.144-19.302z" fill="url(#paint2_radial)"/><g filter="url(#filter1_f)"><path d="M254.526 163.646c-3.805-14.2-18.395-22.624-32.595-18.819-14.2 3.805-22.624 18.395-18.819 32.595 3.805 14.2 18.395 22.624 32.595 18.819 14.164-3.743 22.637-18.346 18.819-32.595z" fill="#F4F4F4"/></g><path d="M251.301 162.432c-3.805-14.2-18.395-22.624-32.595-18.819-14.2 3.805-22.624 18.395-18.819 32.595 3.805 14.2 18.395 22.624 32.595 18.819 14.165-3.743 22.637-18.346 18.819-32.595z" fill="#fff"/><path d="M251.301 162.432c-3.805-14.2-18.395-22.624-32.595-18.819-14.2 3.805-22.624 18.395-18.819 32.595 3.805 14.2 18.395 22.624 32.595 18.819 14.165-3.743 22.637-18.346 18.819-32.595z" fill="url(#paint3_linear)" fill-opacity=".5"/><path d="M251.301 162.432c-3.805-14.2-18.395-22.624-32.595-18.819-14.2 3.805-22.624 18.395-18.819 32.595 3.805 14.2 18.395 22.624 32.595 18.819 14.165-3.743 22.637-18.346 18.819-32.595z" fill="url(#paint4_linear)"/><path d="M251.301 162.432c-3.805-14.2-18.395-22.624-32.595-18.819-14.2 3.805-22.624 18.395-18.819 32.595 3.805 14.2 18.395 22.624 32.595 18.819 14.165-3.743 22.637-18.346 18.819-32.595z" fill="url(#paint5_radial)"/><g filter="url(#filter2_f)"><path d="M225.131 76.945c1.729 6.453 8.36 10.282 14.814 8.552 6.454-1.729 10.282-8.36 8.553-14.814-1.729-6.453-8.361-10.282-14.814-8.552-6.438 1.7-10.288 8.338-8.553 14.814z" fill="#D8E9FA"/></g><path d="M226.597 77.496c1.729 6.454 8.36 10.282 14.814 8.553 6.453-1.73 10.282-8.36 8.553-14.814-1.73-6.454-8.361-10.282-14.814-8.553-6.438 1.701-10.288 8.338-8.553 14.814z" fill="#fff"/><path d="M226.597 77.496c1.729 6.454 8.36 10.282 14.814 8.553 6.453-1.73 10.282-8.36 8.553-14.814-1.73-6.454-8.361-10.282-14.814-8.553-6.438 1.701-10.288 8.338-8.553 14.814z" fill="url(#paint6_linear)" fill-opacity=".5"/><path d="M226.597 77.496c1.729 6.454 8.36 10.282 14.814 8.553 6.453-1.73 10.282-8.36 8.553-14.814-1.73-6.454-8.361-10.282-14.814-8.553-6.438 1.701-10.288 8.338-8.553 14.814z" fill="url(#paint7_linear)"/><path d="M226.597 77.496c1.729 6.454 8.36 10.282 14.814 8.553 6.453-1.73 10.282-8.36 8.553-14.814-1.73-6.454-8.361-10.282-14.814-8.553-6.438 1.701-10.288 8.338-8.553 14.814z" fill="url(#paint8_radial)"/><g filter="url(#filter3_f)"><path d="M251.482 72.304c-1.775-6.626-8.584-10.557-15.21-8.782-6.627 1.776-10.558 8.585-8.782 15.211 1.775 6.627 8.584 10.558 15.21 8.782 6.61-1.747 10.564-8.561 8.782-15.21z" fill="#F4F4F4"/></g><path d="M249.979 71.737c-1.775-6.626-8.584-10.557-15.21-8.781-6.627 1.775-10.558 8.584-8.782 15.21 1.775 6.627 8.584 10.558 15.21 8.782 6.61-1.746 10.564-8.561 8.782-15.21z" fill="#fff"/><path d="M249.979 71.737c-1.775-6.626-8.584-10.557-15.21-8.781-6.627 1.775-10.558 8.584-8.782 15.21 1.775 6.627 8.584 10.558 15.21 8.782 6.61-1.746 10.564-8.561 8.782-15.21z" fill="url(#paint9_linear)" fill-opacity=".5"/><path d="M249.979 71.737c-1.775-6.626-8.584-10.557-15.21-8.781-6.627 1.775-10.558 8.584-8.782 15.21 1.775 6.627 8.584 10.558 15.21 8.782 6.61-1.746 10.564-8.561 8.782-15.21z" fill="url(#paint10_linear)"/><path d="M249.979 71.737c-1.775-6.626-8.584-10.557-15.21-8.781-6.627 1.775-10.558 8.584-8.782 15.21 1.775 6.627 8.584 10.558 15.21 8.782 6.61-1.746 10.564-8.561 8.782-15.21z" fill="url(#paint11_radial)"/></g><g filter="url(#filter4_f)"><path d="M230.583 464.814c-8.261-30.83-39.938-49.119-70.769-40.858-30.83 8.261-49.119 39.938-40.858 70.768 8.261 30.831 39.938 49.12 70.769 40.859 30.752-8.127 49.148-39.833 40.858-70.769z" fill="#F4F4F4"/></g><path d="M223.583 462.178c-8.261-30.83-39.938-49.119-70.769-40.858-30.83 8.261-49.119 39.938-40.858 70.769 8.261 30.83 39.938 49.119 70.769 40.858 30.752-8.126 49.148-39.832 40.858-70.769z" fill="#fff"/><path d="M223.583 462.178c-8.261-30.83-39.938-49.119-70.769-40.858-30.83 8.261-49.119 39.938-40.858 70.769 8.261 30.83 39.938 49.119 70.769 40.858 30.752-8.126 49.148-39.832 40.858-70.769z" fill="url(#paint12_linear)" fill-opacity=".5"/><path d="M223.583 462.178c-8.261-30.83-39.938-49.119-70.769-40.858-30.83 8.261-49.119 39.938-40.858 70.769 8.261 30.83 39.938 49.119 70.769 40.858 30.752-8.126 49.148-39.832 40.858-70.769z" fill="url(#paint13_linear)"/><path d="M223.583 462.178c-8.261-30.83-39.938-49.119-70.769-40.858-30.83 8.261-49.119 39.938-40.858 70.769 8.261 30.83 39.938 49.119 70.769 40.858 30.752-8.126 49.148-39.832 40.858-70.769z" fill="url(#paint14_radial)"/><defs><linearGradient id="paint0_linear" x1="179.311" y1="821.805" x2="79.686" y2="242.515" gradientUnits="userSpaceOnUse"><stop offset=".001" stop-color="#fff"/><stop offset=".998" stop-color="#fff"/></linearGradient><linearGradient id="paint1_linear" x1="79.882" y1="309.156" x2="118.275" y2="338.878" gradientUnits="userSpaceOnUse"><stop offset=".127" stop-color="#fff" stop-opacity=".56"/><stop offset="1" stop-color="#fff" stop-opacity="0"/></linearGradient><linearGradient id="paint3_linear" x1="372.53" y1="1023.94" x2="204.29" y2="45.679" gradientUnits="userSpaceOnUse"><stop offset=".001" stop-color="#fff"/><stop offset=".998" stop-color="#fff"/></linearGradient><linearGradient id="paint4_linear" x1="204.622" y1="158.217" x2="269.457" y2="208.409" gradientUnits="userSpaceOnUse"><stop offset=".127" stop-color="#fff" stop-opacity=".56"/><stop offset="1" stop-color="#fff" stop-opacity="0"/></linearGradient><linearGradient id="paint6_linear" x1="171.501" y1="-314.043" x2="247.962" y2="130.559" gradientUnits="userSpaceOnUse"><stop offset=".001" stop-color="#fff"/><stop offset=".998" stop-color="#fff"/></linearGradient><linearGradient id="paint7_linear" x1="247.812" y1="79.412" x2="218.345" y2="56.601" gradientUnits="userSpaceOnUse"><stop offset=".127" stop-color="#fff" stop-opacity=".56"/><stop offset="1" stop-color="#fff" stop-opacity="0"/></linearGradient><linearGradient id="paint9_linear" x1="306.551" y1="473.762" x2="228.041" y2="17.254" gradientUnits="userSpaceOnUse"><stop offset=".001" stop-color="#fff"/><stop offset=".998" stop-color="#fff"/></linearGradient><linearGradient id="paint10_linear" x1="228.196" y1="69.77" x2="258.452" y2="93.193" gradientUnits="userSpaceOnUse"><stop offset=".127" stop-color="#fff" stop-opacity=".56"/><stop offset="1" stop-color="#fff" stop-opacity="0"/></linearGradient><linearGradient id="paint12_linear" x1="486.787" y1="2332.63" x2="121.516" y2="208.691" gradientUnits="userSpaceOnUse"><stop offset=".001" stop-color="#fff"/><stop offset=".998" stop-color="#fff"/></linearGradient><linearGradient id="paint13_linear" x1="122.236" y1="453.027" x2="263.001" y2="562" gradientUnits="userSpaceOnUse"><stop offset=".127" stop-color="#fff" stop-opacity=".56"/><stop offset="1" stop-color="#fff" stop-opacity="0"/></linearGradient><radialGradient id="paint2_radial" cx="0" cy="0" r="1" gradientUnits="userSpaceOnUse" gradientTransform="rotate(45.238 -327.822 251.534) scale(37.3406)"><stop stop-color="#fff" stop-opacity=".94"/><stop offset=".348" stop-color="#F7F7F7"/><stop offset=".636" stop-color="#E7E7E7"/><stop offset=".909" stop-color="#fff"/></radialGradient><radialGradient id="paint5_radial" cx="0" cy="0" r="1" gradientUnits="userSpaceOnUse" gradientTransform="rotate(45.238 -82.091 326.511) scale(63.0579)"><stop stop-color="#fff" stop-opacity=".94"/><stop offset=".348" stop-color="#F7F7F7"/><stop offset=".636" stop-color="#E7E7E7"/><stop offset=".909" stop-color="#fff"/></radialGradient><radialGradient id="paint8_radial" cx="0" cy="0" r="1" gradientUnits="userSpaceOnUse" gradientTransform="rotate(-134.762 140.1 -10.884) scale(28.6587)"><stop stop-color="#fff" stop-opacity=".94"/><stop offset=".348" stop-color="#ECF5FF"/><stop offset=".636" stop-color="#C4DFEE"/><stop offset=".909" stop-color="#fff"/></radialGradient><radialGradient id="paint11_radial" cx="0" cy="0" r="1" gradientUnits="userSpaceOnUse" gradientTransform="rotate(45.238 32.92 309.592) scale(29.4262)"><stop stop-color="#fff" stop-opacity=".94"/><stop offset=".348" stop-color="#F7F7F7"/><stop offset=".636" stop-color="#E7E7E7"/><stop offset=".909" stop-color="#fff"/></radialGradient><radialGradient id="paint14_radial" cx="0" cy="0" r="1" gradientUnits="userSpaceOnUse" gradientTransform="rotate(45.238 -470.667 377.215) scale(136.907)"><stop stop-color="#fff" stop-opacity=".94"/><stop offset=".348" stop-color="#F7F7F7"/><stop offset=".636" stop-color="#E7E7E7"/><stop offset=".909" stop-color="#fff"/></radialGradient><filter id="filter0_f" x="29.908" y="252.148" width="128.604" height="128.604" filterUnits="userSpaceOnUse" color-interpolation-filters="sRGB"><feFlood flood-opacity="0" result="BackgroundImageFix"/><feBlend in="SourceGraphic" in2="BackgroundImageFix" result="shape"/><feGaussianBlur stdDeviation="22.5" result="effect1_foregroundBlur"/></filter><filter id="filter1_f" x="157.198" y="98.913" width="143.244" height="143.242" filterUnits="userSpaceOnUse" color-interpolation-filters="sRGB"><feFlood flood-opacity="0" result="BackgroundImageFix"/><feBlend in="SourceGraphic" in2="BackgroundImageFix" result="shape"/><feGaussianBlur stdDeviation="22.5" result="effect1_foregroundBlur"/></filter><filter id="filter2_f" x="179.715" y="16.715" width="114.198" height="114.197" filterUnits="userSpaceOnUse" color-interpolation-filters="sRGB"><feFlood flood-opacity="0" result="BackgroundImageFix"/><feBlend in="SourceGraphic" in2="BackgroundImageFix" result="shape"/><feGaussianBlur stdDeviation="22.5" result="effect1_foregroundBlur"/></filter><filter id="filter3_f" x="182.063" y="18.096" width="114.846" height="114.845" filterUnits="userSpaceOnUse" color-interpolation-filters="sRGB"><feFlood flood-opacity="0" result="BackgroundImageFix"/><feBlend in="SourceGraphic" in2="BackgroundImageFix" result="shape"/><feGaussianBlur stdDeviation="22.5" result="effect1_foregroundBlur"/></filter><filter id="filter4_f" x="59.001" y="364" width="231.538" height="231.538" filterUnits="userSpaceOnUse" color-interpolation-filters="sRGB"><feFlood flood-opacity="0" result="BackgroundImageFix"/><feBlend in="SourceGraphic" in2="BackgroundImageFix" result="shape"/><feGaussianBlur stdDeviation="22.5" result="effect1_foregroundBlur"/></filter><clipPath id="clip0"><path fill="#fff" transform="rotate(-180 159.5 295.5)" d="M0 0h319v591H0z"/></clipPath></defs></svg>