<svg width="200" height="182" fill="none" xmlns="http://www.w3.org/2000/svg"><g clip-path="url(#clip0_1129_855)"><g clip-path="url(#clip1_1129_855)"><path d="M261.514 76.595c.677.032 1.2.608 1.163 1.285a170.935 170.935 0 01-309.68 90.1 170.938 170.938 0 01-.59-198.13 170.933 170.933 0 01185.778-65.926c.652.183 1.028.864.841 1.515a1.235 1.235 0 01-1.521.843 168.479 168.479 0 10122.72 171.48c.037-.676.612-1.2 1.289-1.167z" fill="#F4F4F4"/><path d="M195.072 15.184a1.144 1.144 0 011.548.5 117.532 117.532 0 01-82.554 168.188A117.53 117.53 0 01-9.99 127.57 117.532 117.532 0 0162.243-45.302a1.144 1.144 0 011.395.836 1.162 1.162 0 01-.84 1.402A115.228 115.228 0 10194.57 16.74a1.162 1.162 0 01.502-1.556z" fill="#F4F4F4"/><path d="M126.58 14.764a1.178 1.178 0 011.645-.35 65.005 65.005 0 0124.189 29.84 65.007 65.007 0 01-17.683 73.252 65.017 65.017 0 01-101.7-21.84A65.012 65.012 0 0146.127 22.45a1.178 1.178 0 011.682.024 1.213 1.213 0 01-.024 1.698 62.624 62.624 0 1079.148-7.746 1.213 1.213 0 01-.353-1.66z" fill="#F4F4F4"/><g filter="url(#filter0_f_1129_855)"><path d="M36.648 57.534c6.585-1.765 10.492-8.531 8.727-15.117-1.764-6.586-8.53-10.493-15.117-8.728-6.585 1.765-10.492 8.532-8.727 15.117 1.736 6.57 8.508 10.499 15.117 8.728z" fill="#F4F4F4"/></g><path d="M37.21 56.039c6.586-1.765 10.493-8.531 8.728-15.117-1.765-6.586-8.531-10.493-15.117-8.728-6.586 1.765-10.493 8.531-8.728 15.117 1.736 6.57 8.509 10.499 15.117 8.728z" fill="#fff"/><path d="M37.21 56.039c6.586-1.765 10.493-8.531 8.728-15.117-1.765-6.586-8.531-10.493-15.117-8.728-6.586 1.765-10.493 8.531-8.728 15.117 1.736 6.57 8.509 10.499 15.117 8.728z" fill="url(#paint0_linear_1129_855)" fill-opacity=".5"/><path d="M37.21 56.039c6.586-1.765 10.493-8.531 8.728-15.117-1.765-6.586-8.531-10.493-15.117-8.728-6.586 1.765-10.493 8.531-8.728 15.117 1.736 6.57 8.509 10.499 15.117 8.728z" fill="url(#paint1_linear_1129_855)"/><path d="M37.21 56.039c6.586-1.765 10.493-8.531 8.728-15.117-1.765-6.586-8.531-10.493-15.117-8.728-6.586 1.765-10.493 8.531-8.728 15.117 1.736 6.57 8.509 10.499 15.117 8.728z" fill="url(#paint2_radial_1129_855)"/></g></g><defs><linearGradient id="paint0_linear_1129_855" x1="-362.339" y1="112.262" x2="91.358" y2="34.236" gradientUnits="userSpaceOnUse"><stop offset=".001" stop-color="#fff"/><stop offset=".998" stop-color="#fff"/></linearGradient><linearGradient id="paint1_linear_1129_855" x1="39.165" y1="34.39" x2="15.887" y2="64.459" gradientUnits="userSpaceOnUse"><stop offset=".127" stop-color="#fff" stop-opacity=".56"/><stop offset="1" stop-color="#fff" stop-opacity="0"/></linearGradient><clipPath id="clip0_1129_855"><path d="M0 8a8 8 0 018-8h192v174a8 8 0 01-8 8H0V8z" fill="#fff"/></clipPath><clipPath id="clip1_1129_855"><path fill="#fff" transform="rotate(90 100 100)" d="M0 0h182v199H0z"/></clipPath><radialGradient id="paint2_radial_1129_855" cx="0" cy="0" r="1" gradientUnits="userSpaceOnUse" gradientTransform="rotate(135.238 12.995 26.256) scale(29.245)"><stop stop-color="#fff" stop-opacity=".94"/><stop offset=".348" stop-color="#F7F7F7"/><stop offset=".636" stop-color="#E7E7E7"/><stop offset=".909" stop-color="#fff"/></radialGradient><filter id="filter0_f_1129_855" x="-23.893" y="-11.734" width="114.692" height="114.693" filterUnits="userSpaceOnUse" color-interpolation-filters="sRGB"><feFlood flood-opacity="0" result="BackgroundImageFix"/><feBlend in="SourceGraphic" in2="BackgroundImageFix" result="shape"/><feGaussianBlur stdDeviation="22.5" result="effect1_foregroundBlur_1129_855"/></filter></defs></svg>