<svg width="200" height="182" fill="none" xmlns="http://www.w3.org/2000/svg"><g clip-path="url(#clip0_1129_882)"><g clip-path="url(#clip1_1129_882)" fill="#F4F4F4"><path d="M262.514-121.405c.677.032 1.2.608 1.163 1.285A170.938 170.938 0 01141.342 34.456a170.933 170.933 0 11-2.157-328.532c.652.183 1.028.864.841 1.515a1.235 1.235 0 01-1.521.843 168.479 168.479 0 10122.72 171.481c.037-.677.612-1.2 1.289-1.168z"/><path d="M196.072-182.816a1.145 1.145 0 011.548.5 117.53 117.53 0 01-19.844 133.83A117.53 117.53 0 0144.049-22.473a117.533 117.533 0 0119.194-220.83 1.144 1.144 0 011.395.836 1.162 1.162 0 01-.84 1.402 115.232 115.232 0 00-85.92 101.024 115.227 115.227 0 00198.228 89.964A115.224 115.224 0 00195.57-181.26a1.163 1.163 0 01.502-1.556z"/></g></g><defs><clipPath id="clip0_1129_882"><path d="M0 8a8 8 0 018-8h192v174a8 8 0 01-8 8H0V8z" fill="#fff"/></clipPath><clipPath id="clip1_1129_882"><path fill="#fff" transform="rotate(90 100.5 100.5)" d="M0 0h182v199H0z"/></clipPath></defs></svg>