<svg width="48" height="48" fill="none" xmlns="http://www.w3.org/2000/svg"><path d="M45.099 7.28L38.464.647A2.192 2.192 0 0036.904 0H8.969C7.753 0 6.763.99 6.763 2.206v21.842H5.212a2.961 2.961 0 00-2.958 2.958v13.527a2.961 2.961 0 002.958 2.958h23.296a2.21 2.21 0 002.207-2.206V30.764c0-1.217-.99-2.206-2.207-2.206H5.212a1.553 1.553 0 01-1.552-1.552c0-.855.696-1.551 1.552-1.551h1.55v.8a.703.703 0 001.407 0V2.206a.8.8 0 01.8-.8h27.103v6.812c0 .802.652 1.455 1.454 1.455h6.813v36.12a.8.8 0 01-.8.8H8.969a.8.8 0 01-.8-.8.703.703 0 00-1.406 0A2.21 2.21 0 008.969 48h34.57c1.216 0 2.206-.99 2.206-2.206V8.84c0-.59-.23-1.143-.646-1.56zM5.212 29.965h23.296a.8.8 0 01.8.8v10.52a.8.8 0 01-.8.8H5.212a1.553 1.553 0 01-1.552-1.55v-11.01c.451.279.983.44 1.552.44zM37.478 8.218V1.65l6.618 6.618h-6.57a.049.049 0 01-.048-.049z" fill="url(#paint0_linear)"/><path d="M15.735 39.718c.05.009.09.016.763.016.324 0 .796-.002 1.487-.006a.703.703 0 10-.008-1.406c-.491.003-1.018.005-1.42.005v-5.371a.703.703 0 10-1.407 0v6.07c0 .342.247.634.585.692z" fill="url(#paint1_linear)"/><path d="M22.869 39.733c1.253 0 2.305-.797 2.5-1.896.148-.824-.23-1.903-1.73-2.456a32.416 32.416 0 01-1.663-.672.476.476 0 01-.175-.452c.017-.118.102-.406.523-.533.885-.267 1.7.379 1.723.397a.703.703 0 00.901-1.08c-.056-.046-1.4-1.154-3.03-.663-.818.246-1.396.89-1.51 1.679-.105.74.215 1.45.837 1.856.031.02.064.038.098.053.035.016.87.388 1.81.734.28.104.92.397.832.89-.064.362-.5.737-1.116.737-.62 0-1.216-.25-1.596-.67a.703.703 0 00-1.042.945c.642.709 1.628 1.131 2.638 1.131z" fill="url(#paint2_linear)"/><path d="M7.798 39.605a.7.7 0 00.98-.17L10.494 37l1.714 2.436a.702.702 0 101.15-.81l-2.003-2.847 1.702-2.417a.703.703 0 10-1.15-.81l-1.412 2.005-1.41-2.005a.703.703 0 10-1.15.81l1.7 2.416-2.007 2.848a.703.703 0 00.17.98z" fill="url(#paint3_linear)"/><path d="M35.974 13.479c0-.802-.653-1.455-1.455-1.455H17.986c-.802 0-1.455.653-1.455 1.455v9.77c0 .801.653 1.454 1.455 1.454h16.533c.802 0 1.455-.653 1.455-1.455v-9.77zm-12.024 6.06v-2.351h4.605v2.351H23.95zm4.605 1.406v2.352H23.95v-2.352h4.605zm-10.617-3.757h4.605v2.351h-4.605v-2.351zm6.012-1.406V13.43h4.605v2.352H23.95zm6.012 1.406h4.606v2.351h-4.606v-2.351zm4.606-3.71v2.303h-4.606v-2.35h4.557c.027 0 .049.02.049.048zm-16.582-.048h4.557v2.352h-4.605v-2.303c0-.027.021-.049.048-.049zm-.049 9.818v-2.303h4.606v2.352h-4.557a.048.048 0 01-.049-.049zm16.582.049h-4.557v-2.352h4.606v2.303a.048.048 0 01-.049.049z" fill="url(#paint4_linear)"/><defs><linearGradient id="paint0_linear" x1="45.745" y1="14.4" x2="1.029" y2="31.619" gradientUnits="userSpaceOnUse"><stop stop-color="#57D1DC"/><stop offset="1" stop-color="#049EFC"/></linearGradient><linearGradient id="paint1_linear" x1="18.684" y1="34.497" x2="14.674" y2="35.302" gradientUnits="userSpaceOnUse"><stop stop-color="#57D1DC"/><stop offset="1" stop-color="#049EFC"/></linearGradient><linearGradient id="paint2_linear" x1="25.399" y1="34.497" x2="19.617" y2="36.255" gradientUnits="userSpaceOnUse"><stop stop-color="#57D1DC"/><stop offset="1" stop-color="#049EFC"/></linearGradient><linearGradient id="paint3_linear" x1="13.487" y1="34.497" x2="7.151" y2="36.651" gradientUnits="userSpaceOnUse"><stop stop-color="#57D1DC"/><stop offset="1" stop-color="#049EFC"/></linearGradient><linearGradient id="paint4_linear" x1="35.974" y1="15.828" x2="19.863" y2="26.328" gradientUnits="userSpaceOnUse"><stop stop-color="#57D1DC"/><stop offset="1" stop-color="#049EFC"/></linearGradient></defs></svg>