<svg width="48" height="48" fill="none" xmlns="http://www.w3.org/2000/svg"><path d="M45.099 7.28L38.464.647A2.192 2.192 0 0036.904 0H8.969C7.753 0 6.763.99 6.763 2.206v21.842H5.212a2.961 2.961 0 00-2.958 2.958v13.527a2.961 2.961 0 002.958 2.958h23.296a2.21 2.21 0 002.207-2.206V30.764c0-1.217-.99-2.206-2.207-2.206H5.212a1.553 1.553 0 01-1.552-1.552c0-.855.696-1.551 1.552-1.551h1.55v.8a.703.703 0 001.407 0V2.206a.8.8 0 01.8-.8h27.103v6.812c0 .802.652 1.455 1.454 1.455h6.813v36.12a.8.8 0 01-.8.8H8.969a.8.8 0 01-.8-.8.703.703 0 00-1.406 0A2.21 2.21 0 008.969 48h34.57c1.216 0 2.206-.99 2.206-2.206V8.84c0-.59-.23-1.143-.646-1.56zM5.212 29.965h23.296a.8.8 0 01.8.8v10.52a.8.8 0 01-.8.8H5.212a1.553 1.553 0 01-1.552-1.55v-11.01c.451.279.983.44 1.552.44zM37.478 8.218V1.65l6.618 6.618h-6.57a.049.049 0 01-.048-.049z" fill="url(#paint0_linear)"/><path d="M26.857 18.286h1.286V17h-1.286v-1.286h1.286V14.43h-1.286v-1.286h1.286v-1.286h-1.286v-1.286h1.286V9.286h-1.286V8h-1.286v1.286h-1.285v1.285h1.285v1.286h-1.285v1.286h1.285v1.286h-1.285v1.285h1.285V17h-1.285v1.286h1.285v1.285H23v3.215A3.218 3.218 0 0026.214 26a3.218 3.218 0 003.215-3.214V19.57h-2.572v-1.285zm1.286 4.5a1.931 1.931 0 01-1.929 1.928 1.931 1.931 0 01-1.928-1.928v-1.929h3.857v1.929z" fill="url(#paint1_linear)"/><path d="M25.573 23.429h1.285a.643.643 0 100-1.286h-1.285a.643.643 0 100 1.286z" fill="url(#paint2_linear)"/><defs><linearGradient id="paint0_linear" x1="45.745" y1="14.4" x2="1.029" y2="31.619" gradientUnits="userSpaceOnUse"><stop stop-color="#57D1DC"/><stop offset="1" stop-color="#049EFC"/></linearGradient><linearGradient id="paint1_linear" x1="29.429" y1="13.4" x2="22.01" y2="14.526" gradientUnits="userSpaceOnUse"><stop stop-color="#57D1DC"/><stop offset="1" stop-color="#049EFC"/></linearGradient><linearGradient id="paint2_linear" x1="27.501" y1="22.529" x2="25.739" y2="24.027" gradientUnits="userSpaceOnUse"><stop stop-color="#57D1DC"/><stop offset="1" stop-color="#049EFC"/></linearGradient></defs></svg>